<?xml version="1.0" encoding="UTF-8"?>
<svg width="637px" height="466px" viewBox="0 0 637 466" version="1.1" xmlns="http://www.w3.org/2000/svg" xmlns:xlink="http://www.w3.org/1999/xlink">
    <!-- Generator: Sketch 51.3 (57544) - http://www.bohemiancoding.com/sketch -->
    <title>Artboard</title>
    <desc>Created with Sketch.</desc>
    <defs>
        <polyline id="path-1" points="124.929688 289.152344 170.84375 260.394531 206.832031 250.535156 242.660156 243.730469 272.285156 243.730469 278.5625 243.730469"></polyline>
    </defs>
    <g id="Artboard" stroke="none" stroke-width="1" fill="none" fill-rule="evenodd">
        <path d="M79.6796875,207.453125 L124.222656,126.285156" id="Path" stroke="#979797"></path>
        <path d="M79.0234375,207.144531 L122.394531,286.996094" id="Path-2" stroke="#979797"></path>
        <polyline id="Path-3" stroke="#979797" points="523 128 571.019531 206.707337 523 290.136719"></polyline>
        <polyline id="Path-4" stroke="#979797" points="371 171 416.625713 143.65683 452.387981 134.282454 487.991099 127.8125 517.430048 127.8125 523.667969 127.8125"></polyline>
        <polyline id="Path-4" stroke="#979797" transform="translate(445.805981, 267.211792) rotate(-147.000000) translate(-445.805981, -267.211792) " points="368.989574 289.922729 414.903637 261.164917 450.891918 251.305542 486.720043 244.500854 516.345043 244.500854 522.622387 244.500854"></polyline>
        <mask id="mask-2" fill="white">
            <use xlink:href="#path-1"></use>
        </mask>
        <use id="Path-4" stroke="#979797" transform="translate(201.746094, 266.441406) rotate(181.000000) translate(-201.746094, -266.441406) " xlink:href="#path-1"></use>
        <polyline id="Path-4" stroke="#979797" transform="translate(198.914086, 148.925203) rotate(33.000000) translate(-198.914086, -148.925203) " points="123.918943 171.306441 168.744415 142.966112 203.879439 133.249868 238.858104 126.543966 267.780716 126.543966 273.909228 126.543966"></polyline>
        <polygon id="Path-5" stroke="#979797" points="274 171.08844 305.870125 171 324.591237 171 345.390217 171 362.808602 171 371.042969 171"></polygon>
        <polyline id="Path-5" stroke="#979797" points="279 244.5 303.510669 244.5 322.609946 244.5 343.829064 244.5 361.599299 244.5 370 244.5"></polyline>
    </g>
</svg>