<?xml version="1.0" encoding="UTF-8"?>
<svg width="558px" height="552px" viewBox="0 0 558 552" version="1.1" xmlns="http://www.w3.org/2000/svg" xmlns:xlink="http://www.w3.org/1999/xlink">
    <!-- Generator: Sketch 51.3 (57544) - http://www.bohemiancoding.com/sketch -->
    <title>death 2</title>
    <desc>Created with Sketch.</desc>
    <defs></defs>
    <g id="Page-1" stroke="none" stroke-width="1" fill="none" fill-rule="evenodd">
        <g id="death" transform="translate(0.000000, 1.000000)" fill="#000000" fill-rule="nonzero">
            <g id="Group" transform="translate(278.900000, 275.550000) scale(-1, 1) rotate(-180.000000) translate(-278.900000, -275.550000) translate(0.800000, 0.200000)">
                <path d="M219.8,549.8 C217.6,549.3 215.6,548.6 215.3,548.4 C215.1,548.1 243.4,547.9 278.3,548 C327.7,548 341.1,548.3 339.2,549.2 C336.1,550.7 225.8,551.2 219.8,549.8 Z" id="Shape"></path>
                <path d="M183.3,539.3 C181.5,538.5 180.1,537.7 180.3,537.6 C180.5,537.5 216.4,537.5 260,537.7 C329.3,537.9 339.2,538.1 339.2,539.4 C339.2,541.6 188.4,541.5 183.3,539.3 Z" id="Shape"></path>
                <path d="M163.2,530.9 L156.7,528 L169.5,527.9 C179.5,527.9 182.2,528.2 181.6,529.2 C181,530.2 181.2,530.2 182.3,529.2 C183.1,528.3 187,527.9 193.8,527.9 C201.1,527.9 204.2,528.3 204.5,529.2 C204.9,530.2 205.1,530.2 205.1,529.2 C205.2,528.2 225.3,527.9 302.5,527.9 L399.7,528 L393.2,530.9 L386.7,533.8 L278.2,533.8 L169.7,533.8 L163.2,530.9 Z" id="Shape"></path>
                <path d="M173.2,516.4 C173.2,515.1 181.2,514.9 239,514.9 C275.1,514.9 331.4,514.8 364,514.6 C396.5,514.5 423.2,514.7 423.2,515 C423.2,517.7 415.1,517.9 295.7,517.9 C187.6,517.9 173.2,517.7 173.2,516.4 Z" id="Shape"></path>
                <path d="M123,508.6 C120.9,507.4 119.2,506.2 119.2,505.9 C119.2,505.6 190.8,505.4 278.2,505.4 C365.7,505.4 437.2,505.6 437.2,505.9 C437.2,506.2 435.4,507.4 433.2,508.7 L429.2,510.9 L278,510.8 L126.7,510.8 L123,508.6 Z" id="Shape"></path>
                <path d="M105.7,495.9 C103.9,494 104.3,493.9 188,493.9 C254.7,493.9 272.1,494.1 272.5,495.1 C272.9,496.1 273.1,496.1 273.1,495.2 C273.2,494.2 291.8,493.9 362.9,493.9 C452.4,493.9 452.5,493.9 450.7,495.9 C448.9,497.9 447.6,497.9 278.2,497.9 C109.4,497.9 107.5,497.9 105.7,495.9 Z" id="Shape"></path>
                <path d="M308.1,489.2 C308,489.1 307.9,487.9 307.9,486.7 L307.8,484.4 L385.5,484.2 C428.2,484 463.2,484.3 463.2,484.8 C463.2,486.2 460.4,488.1 459.2,487.4 C458.6,487 458.3,487.3 458.4,488.1 C458.7,489.2 445.3,489.4 383.5,489.5 C342.1,489.5 308.2,489.4 308.1,489.2 Z" id="Shape"></path>
                <path d="M87,479 C85.6,478.5 83.2,476.3 83.2,475.5 C83.2,475.2 99.4,475 119.1,474.9 C147.3,474.9 155.1,475.1 155.5,476.1 C155.9,477.1 156.1,477.1 156.1,476.2 C156.2,475.2 188.7,474.9 314.7,474.9 C402.1,474.9 473.2,475.3 473.2,475.8 C473.2,479 471.1,479 279.3,479.2 C174.2,479.3 87.6,479.2 87,479 Z" id="Shape"></path>
                <path d="M75.5,467.7 C74,466 80.9,465.9 220.5,465.9 C333.9,465.9 367.2,466.2 367.2,467.1 C367.2,468 367.5,468 368.4,467.1 C369.2,466.3 374.8,465.9 386.9,465.9 C401.6,465.9 404.2,466.1 404.2,467.4 C404.2,468.7 401.6,468.9 386.5,468.9 C376.7,468.9 303.1,469 222.9,469.2 C85.1,469.4 77,469.3 75.5,467.7 Z" id="Shape"></path>
                <polygon id="Shape" points="66.4 457.8 64 454.9 278.2 454.9 492.4 454.9 490 457.8 487.7 460.8 278.2 460.8 68.7 460.8"></polygon>
                <path d="M59.9,450.1 C58.9,449.1 58.2,448.1 58.2,447.8 C58.2,447.6 88.1,447.4 124.7,447.4 C161.3,447.4 191.2,447.8 191.2,448.2 C191.2,448.7 191.7,448.7 192.2,448.4 C192.9,448 490.3,447.5 498.1,447.9 C498.3,447.9 497.7,448.8 496.7,449.9 C494.9,451.9 493.6,451.9 278.2,451.9 C69.7,451.9 61.4,451.8 59.9,450.1 Z" id="Shape"></path>
                <path d="M207.2,436.4 C207.2,435.1 224.5,434.9 357.2,434.9 C490.1,434.9 507.1,435.1 506.6,436.4 C506.1,437.7 488.5,437.9 356.6,437.9 C224.5,437.9 207.2,437.7 207.2,436.4 Z" id="Shape"></path>
                <path d="M45.8,430.4 C45.3,429.1 71.6,428.9 278.2,428.9 C484.8,428.9 511.1,429.1 510.6,430.4 C510.1,431.7 483.3,431.9 278.2,431.9 C73.1,431.9 46.3,431.7 45.8,430.4 Z" id="Shape"></path>
                <path d="M125.2,420.9 C125.2,418.9 125.9,418.9 321.2,418.9 C429,418.9 517.2,419.3 517.2,419.7 C517.2,422.9 516,422.9 320,422.9 C125.9,422.9 125.2,422.9 125.2,420.9 Z" id="Shape"></path>
                <path d="M35.4,413.4 C34.7,412 34.2,410.6 34.2,410.4 C34.2,410.1 144,409.9 278.2,409.9 C412.4,409.9 522.2,410.1 522.2,410.4 C522.2,410.6 521.7,411.9 521,413.3 L519.9,415.9 L409.1,415.9 C304.5,415.9 298.3,415.8 297.9,414.1 C297.5,412.5 297.4,412.5 297.3,414.2 C297.2,415.8 290.3,415.9 166.9,415.9 L36.5,415.9 L35.4,413.4 Z" id="Shape"></path>
                <path d="M29.9,403.4 C29.5,402.6 29.7,401.7 30.2,401.4 C30.8,401 31.2,401.3 31.2,401.9 C31.2,402.5 31.7,402.7 32.2,402.4 C32.8,402 78.7,401.7 134.2,401.6 C229.8,401.4 235.2,401.5 235.2,403.2 C235.2,404.8 229.7,404.9 132.8,404.9 C43.7,404.9 30.3,404.7 29.9,403.4 Z" id="Shape"></path>
                <path d="M236.6,403.3 C236.8,401.8 248.5,401.6 381.8,401.7 C461.5,401.7 526.6,402 526.5,402.3 C526.3,402.6 526.2,403.4 526.2,403.9 C526.2,404.6 477.2,404.9 381.3,404.9 C247.9,404.9 236.4,404.8 236.6,403.3 Z" id="Shape"></path>
                <path d="M25.8,394.4 C25.3,393.1 54.2,392.9 278.2,392.9 C502.1,392.9 531.1,393.1 530.6,394.4 C530.1,395.7 500.6,395.9 278.2,395.9 C55.7,395.9 26.3,395.7 25.8,394.4 Z" id="Shape"></path>
                <path d="M242.2,387.4 L242.2,384.9 L388.2,384.9 C476.2,384.9 534.2,385.3 534.2,385.8 C534.2,386.3 533.9,387.4 533.6,388.3 C533,389.8 519.2,389.9 387.6,389.9 L242.2,389.9 L242.2,387.4 Z" id="Shape"></path>
                <path d="M54.2,371.9 L54.2,368.9 L297.6,368.9 L541.1,368.9 L540.1,371.9 L539,374.9 L469.1,374.9 C424.9,374.9 399.2,374.5 399.2,373.9 C399.2,373.4 398.2,372.4 397,371.8 C395.1,370.9 394.9,370.9 396,372 C396.6,372.7 397.2,373.7 397.2,374.1 C397.2,374.5 320,374.9 225.7,374.9 L54.2,374.9 L54.2,371.9 Z" id="Shape"></path>
                <path d="M12.9,360.2 C12.5,359.9 12.2,359.2 12.2,358.7 C12.2,358.3 125.8,357.9 264.7,357.9 C488.5,357.9 517.2,358.1 517.2,359.4 C517.2,360.7 488.6,360.9 265.4,360.9 C126.9,360.9 13.2,360.6 12.9,360.2 Z" id="Shape"></path>
                <path d="M147.8,352.1 C9.4,351.9 9.3,351.9 9.2,348.7 C9.2,348.2 130.3,347.9 278.2,347.9 C426.2,347.9 547.2,348.2 547.2,348.7 C547.1,351.9 546.9,351.9 415.1,352.1 C343.4,352.3 223.1,352.3 147.8,352.1 Z" id="Shape"></path>
                <path d="M92.2,341.4 C92.2,340.1 120,339.9 320.8,339.9 C502.7,339.9 549.3,340.2 548.9,341.2 C548.6,342.1 501.3,342.4 320.4,342.6 C119.8,342.8 92.2,342.7 92.2,341.4 Z" id="Shape"></path>
                <path d="M6.2,335.9 C6.2,335.2 97.8,334.9 278.2,334.9 C458.4,334.9 550.2,335.2 550.2,335.9 C550.2,336.6 458.4,336.9 278.2,336.9 C97.8,336.9 6.2,336.6 6.2,335.9 Z" id="Shape"></path>
                <path d="M4.8,328.3 C4.5,327.4 4.2,326.3 4.2,325.8 C4.2,325.3 67.9,324.9 164.6,324.9 C292,324.9 325.1,325.2 325.5,326.2 C325.9,327.2 326.1,327.2 326.1,326.2 C326.2,325.2 349.5,324.9 439.2,324.9 C507.2,324.9 552.2,325.3 552.2,325.8 C552.2,326.3 551.9,327.4 551.6,328.3 C551,329.8 526,329.9 278.2,329.9 C30.4,329.9 5.4,329.8 4.8,328.3 Z" id="Shape"></path>
                <path d="M2.7,315.1 C2.4,314.3 2.2,313.5 2.2,313.3 C2.2,313.1 47.7,312.9 103.3,312.9 C198.3,312.9 204.3,313 204,314.6 C203.6,316.5 197.9,317.3 195.1,315.8 C194.2,315.4 193.1,315.3 192.7,315.7 C192.4,316.1 149.6,316.4 97.6,316.4 C19.9,316.4 3.1,316.2 2.7,315.1 Z" id="Shape"></path>
                <path d="M205.6,315.7 C205.3,315.3 205.4,314.5 205.7,313.9 C206.4,312.7 554.2,312.5 554.2,313.7 C554.2,314.1 553.8,314.9 553.4,315.5 C552.6,316.8 206.4,317 205.6,315.7 Z" id="Shape"></path>
                <polygon id="Shape" points="182.2 304.4 182.2 301.9 368.8 301.9 555.3 301.9 555 304.2 554.7 306.4 368.5 306.7 182.2 306.9"></polygon>
                <path d="M1.2,294.4 C1.2,293.1 34.4,292.9 278.2,292.9 C523.9,292.9 555.2,293.1 555.2,294.4 C555.2,295.7 523.9,295.9 278.2,295.9 C34.4,295.9 1.2,295.7 1.2,294.4 Z" id="Shape"></path>
                <path d="M75.2,285.9 C75.2,283.9 75.9,283.9 315.7,283.9 C555.5,283.9 556.2,283.9 556.2,285.9 C556.2,287.9 555.5,287.9 315.7,287.9 C75.9,287.9 75.2,287.9 75.2,285.9 Z" id="Shape"></path>
                <path d="M0.2,275.4 L0.2,272.9 L96,272.9 C148.6,272.9 217,272.8 248,272.6 C278.9,272.5 304.2,272.6 304.2,272.9 C304.2,273.2 360.9,273.3 430.2,273.1 L556.2,272.9 L556.2,275.4 L556.2,277.9 L278.2,277.9 L0.2,277.9 L0.2,275.4 Z" id="Shape"></path>
                <path d="M0.8,268.2 C-2.5,264.9 -4.4,264.9 224.6,264.9 C448.3,264.9 449,264.9 448.5,266.9 C448,268.9 446.9,268.9 224.7,268.8 C101.9,268.8 1.1,268.5 0.8,268.2 Z" id="Shape"></path>
                <path d="M1.2,258.9 C1.2,258.2 95.1,257.9 278.2,257.9 C462.5,257.9 555.2,258.2 555.2,258.9 C555.2,259.6 462.5,259.9 278.2,259.9 C95.1,259.9 1.2,259.6 1.2,258.9 Z" id="Shape"></path>
                <path d="M104.2,250.4 C104.2,249.1 130.1,248.9 329.2,249.1 C478.4,249.3 554.2,249.7 554.2,250.4 C554.2,251.1 478.4,251.5 329.2,251.6 C130.1,251.9 104.2,251.7 104.2,250.4 Z" id="Shape"></path>
                <polygon id="Shape" points="3.4 235.7 3.7 233.4 278.2 233.4 552.7 233.4 553 235.7 553.3 237.9 278.2 237.9 3.1 237.9"></polygon>
                <path d="M5.2,225.6 C5.2,225 5.5,223.4 5.8,222.2 L6.4,219.9 L278.2,219.9 L550,219.9 L550.6,222.2 C550.9,223.4 551.2,225 551.2,225.7 C551.2,226.6 496.1,226.9 278.2,226.9 C61,226.9 5.2,226.6 5.2,225.6 Z" id="Shape"></path>
                <path d="M144.2,214.9 C144.2,214.2 212.9,213.9 346.7,213.9 C480.2,213.9 549.2,214.3 549.2,214.9 C549.2,215.6 480.2,215.9 346.7,215.9 C212.9,215.9 144.2,215.6 144.2,214.9 Z" id="Shape"></path>
                <path d="M9.2,208.4 C9.2,207.1 42,206.9 278.2,206.9 C514.3,206.9 547.2,207.1 547.2,208.4 C547.2,209.7 514.3,209.8 278.2,209.8 C42,209.8 9.2,209.7 9.2,208.4 Z" id="Shape"></path>
                <path d="M11.6,199.3 C11.9,198.4 12.2,197.5 12.2,197.3 C12.2,197.1 131.9,196.9 278.2,196.9 C424.5,196.9 544.2,197.1 544.2,197.3 C544.2,197.6 544.5,198.4 544.8,199.3 C545.4,200.8 521.5,200.9 278.2,200.9 C34.9,200.9 11,200.8 11.6,199.3 Z" id="Shape"></path>
                <path d="M15.2,188.5 C15.2,187.7 15.5,186.4 15.8,185.5 C16.4,184 40.4,183.9 278.2,183.9 C516,183.9 540,184 540.6,185.5 C542.4,190.2 558.9,189.9 278.2,189.9 C52.2,189.9 15.2,189.7 15.2,188.5 Z" id="Shape"></path>
                <path d="M18.8,177.4 C19.3,176.1 47.2,175.9 255.8,175.9 C465.4,175.9 492.2,176.1 492.2,177.4 C492.2,178.7 488.5,178.9 464.9,178.9 C444.4,178.9 437.3,178.6 436.3,177.7 C435.2,176.7 435,176.7 435.6,177.7 C436.2,178.6 394.2,178.9 227.3,178.9 C42.4,178.9 18.3,178.7 18.8,177.4 Z" id="Shape"></path>
                <path d="M22.8,168.4 C23.3,167.1 52.6,166.9 278.2,166.9 C503.8,166.9 533.1,167.1 533.6,168.4 C534.1,169.7 505.3,169.9 278.2,169.9 C51.1,169.9 22.3,169.7 22.8,168.4 Z" id="Shape"></path>
                <path d="M191.2,157.4 L191.2,154.9 L305.1,154.9 C404.9,154.9 419.1,155.1 420.2,156.4 C420.9,157.2 421.9,157.9 422.5,157.9 C423.1,157.9 422.7,157.2 421.6,156.4 C419.9,155.1 426,155 473.8,154.9 C531,154.9 529.2,154.8 529.2,159 C529.2,159.5 462.2,159.9 360.2,159.9 L191.2,159.9 L191.2,157.4 Z" id="Shape"></path>
                <path d="M31.7,148.9 C32.6,147.5 524.2,147.5 524.2,148.9 C524.2,149.6 441.3,149.9 277.6,149.9 C113.5,149.9 31.3,149.6 31.7,148.9 Z" id="Shape"></path>
                <path d="M114.8,142.9 C114.7,142.6 114.6,141.5 114.6,140.4 C114.7,138.4 115.5,138.4 316.4,138.2 L518.1,138 L519.7,140.1 C520.5,141.4 521.2,142.6 521.2,142.9 C521.2,143.5 115.1,143.6 114.8,142.9 Z" id="Shape"></path>
                <path d="M42.2,131.4 C42.2,130.9 42.9,129.6 43.6,128.7 C44.8,127.1 58.9,127 277.9,126.9 C509.6,126.9 510.9,126.9 512.7,128.9 C513.7,130 514.3,131.1 514,131.4 C513,132.4 42.2,132.4 42.2,131.4 Z" id="Shape"></path>
                <path d="M50.4,118.7 C50.8,117.7 90.5,117.3 243.5,117.1 C414.4,116.9 436.2,117.1 436.2,118.4 C436.2,119.7 414.2,119.9 243.1,119.9 C89.1,119.9 50.1,119.6 50.4,118.7 Z" id="Shape"></path>
                <path d="M56.7,109.9 C57.6,108.5 498.8,108.5 499.7,109.9 C500.1,110.6 426.1,110.9 278.2,110.9 C131.1,110.9 56.3,110.6 56.7,109.9 Z" id="Shape"></path>
                <path d="M61.7,103.9 C62.5,102.5 493.9,102.5 494.7,103.9 C495.1,104.6 421.8,104.9 278.2,104.9 C134.4,104.9 61.3,104.6 61.7,103.9 Z" id="Shape"></path>
                <path d="M161.2,94.9 L161.2,91.9 L323,91.9 C475.9,91.9 485,92 486.4,93.7 C487.2,94.6 488.2,96 488.6,96.7 C489.2,97.6 456.2,97.9 325.3,97.9 L161.2,97.9 L161.2,94.9 Z" id="Shape"></path>
                <path d="M79.1,83.9 C81.4,81.9 84.3,81.9 278.2,81.9 C472.4,81.9 475,81.9 477.3,83.9 C479.7,85.8 478.7,85.8 278.2,85.8 C78,85.8 76.7,85.8 79.1,83.9 Z" id="Shape"></path>
                <path d="M225.7,74.9 C149.8,74.6 88.5,74.1 89.5,73.7 C90.5,73.2 152.8,72.9 227.8,72.9 C348.4,72.9 364.2,73.1 364.2,74.4 C364.2,75.2 364.1,75.8 364,75.7 C363.8,75.5 301.6,75.2 225.7,74.9 Z" id="Shape"></path>
                <path d="M100.2,64.9 C100.2,62.5 105.1,61.9 127.1,61.9 C144.5,61.9 150.2,62.2 150.5,63.2 C150.9,64.2 151.1,64.2 151.1,63.2 C151.2,62.2 182.2,61.9 302.5,61.9 C452.4,61.9 453.9,61.9 455.7,63.9 C457.5,65.9 457.2,65.9 278.8,65.9 C164.6,65.9 100.2,65.6 100.2,64.9 Z" id="Shape"></path>
                <path d="M109.5,57.1 C111.2,55.5 121.4,55.4 277.6,55.2 C441.6,54.9 444,54.9 446.3,56.9 C448.7,58.8 447.7,58.8 278.3,58.8 C116.6,58.9 107.9,58.8 109.5,57.1 Z" id="Shape"></path>
                <path d="M159.7,46.9 C160.5,45.6 431.1,45.6 433.2,46.9 C434.2,47.5 384.8,47.9 296.9,47.9 C205.3,47.9 159.3,47.6 159.7,46.9 Z" id="Shape"></path>
                <path d="M132.2,41.4 C132.2,41.2 133.5,40.3 135.2,39.4 C137.8,38.1 154.6,37.9 278.4,37.9 C416.7,37.9 418.7,37.9 421.7,39.9 L424.7,41.9 L278.5,41.9 C198,41.9 132.2,41.7 132.2,41.4 Z" id="Shape"></path>
                <path d="M149.1,31.6 C150,30.7 178.6,30.3 277.5,30.1 C388.8,29.9 405,30.1 406.7,31.4 C408.5,32.7 393.9,32.8 278.3,32.8 C175.2,32.9 148.1,32.6 149.1,31.6 Z" id="Shape"></path>
                <polygon id="Shape" points="164.2 24.4 169.7 22 278.4 21.9 387 21.9 392.4 24.4 397.7 26.9 278.2 26.9 158.7 26.8"></polygon>
                <path d="M187,15.3 C189.8,14.1 203.4,13.9 279.5,14.1 C347.5,14.3 369.2,14.7 370.7,15.6 C372.3,16.6 353,16.8 278.2,16.8 C194.8,16.7 184.1,16.6 187,15.3 Z" id="Shape"></path>
                <path d="M241.2,8.9 C241.2,7.6 346.1,7.6 348.2,8.9 C349.2,9.5 330.7,9.9 295.5,9.9 C260.4,9.9 241.2,9.5 241.2,8.9 Z" id="Shape"></path>
                <path d="M238.7,2.9 C253.1,0.1 280.3,-0.8 300.9,1 C325.9,3.1 321.3,3.7 278.2,3.7 C254.3,3.7 236.5,3.3 238.7,2.9 Z" id="Shape"></path>
            </g>
        </g>
    </g>
</svg>