<?xml version="1.0" encoding="UTF-8"?>
<svg width="1444px" height="1567px" viewBox="0 0 1444 1567" version="1.1" xmlns="http://www.w3.org/2000/svg" xmlns:xlink="http://www.w3.org/1999/xlink">
    <!-- Generator: Sketch 51.3 (57544) - http://www.bohemiancoding.com/sketch -->
    <title>geo-shapes</title>
    <desc>Created with Sketch.</desc>
    <defs></defs>
    <g id="Page-1" stroke="none" stroke-width="1" fill="none" fill-rule="evenodd">
        <g id="gpb_016" fill="#000000" fill-rule="nonzero">
            <g id="Group" transform="translate(722.000000, 783.300000) scale(-1, 1) rotate(-180.000000) translate(-722.000000, -783.300000) translate(0.000000, 0.300000)">
                <path d="M1200,1564.3 C1172.8,1564 1150.4,1563.6 1150.3,1563.5 C1150.2,1563.4 1149,1561.4 1147.7,1559.1 C1136.8,1539.8 1117.6,1506.4 1116.4,1504.8 C1115,1502.9 1113.6,1502.8 1081,1502.5 L1047.1,1502.2 L1044.7,1506 C1043.3,1508.1 1035.8,1520.8 1027.9,1534.3 C1020.1,1547.8 1013.1,1559.5 1012.3,1560.3 C1011.2,1561.5 1010.8,1561.5 1009.4,1560.1 C1008,1558.7 1008.6,1557.2 1016.8,1543.7 C1033.6,1515.7 1041,1502.3 1041,1500.1 C1041,1498.8 1039.9,1496 1038.7,1493.8 C1018.8,1459.6 1007,1439 1007,1438.7 C1007,1438.5 1013.9,1426.5 1022.3,1412 C1030.8,1397.6 1038.8,1383.7 1040.3,1381.1 L1042.9,1376.5 L1034.3,1361.6 C1029.6,1353.5 1021.8,1339.9 1016.9,1331.6 C1012,1323.2 1008,1315.5 1008,1314.6 C1008,1313.7 1011.5,1307 1015.8,1299.9 C1038,1262.9 1041.3,1256.8 1040.5,1254.2 C1039.8,1252.1 1014.7,1207.9 1013,1205.8 C1011.1,1203.4 1008,1197.1 1008,1195.5 C1008,1193.8 1016.5,1178.9 1034.6,1148.5 C1038.7,1141.7 1042,1135.4 1042,1134.5 C1042,1133 1025.7,1103.7 1013.7,1083.5 C1009.6,1076.7 1009,1075 1010,1073.8 C1012.1,1071.3 1013.9,1072.1 1016.1,1076.6 C1017.3,1078.9 1024.7,1092.1 1032.6,1105.9 L1047,1131 L1053.1,1131.7 C1056.5,1132 1071.6,1132.3 1086.6,1132.3 L1113.9,1132.3 L1120.3,1121.6 C1128.2,1108.2 1139.2,1089.5 1145.5,1078.4 L1150.3,1070.1 L1222.9,1070.8 C1276.5,1071.3 1295.7,1071.8 1296.3,1072.6 C1297.1,1073.8 1306.3,1089.8 1321.3,1115.8 C1325.7,1123.5 1330.2,1130.6 1331.3,1131.6 C1333,1133.1 1336.1,1133.3 1364.6,1133.3 L1396,1133.3 L1398.7,1129.1 C1401.9,1123.9 1416.2,1099.1 1424.9,1083.6 C1428.4,1077.4 1431.6,1072.3 1432,1072.3 C1432.9,1072.3 1436,1075.1 1436,1075.9 C1436,1076.2 1434.9,1077.9 1433.6,1079.6 C1432.3,1081.4 1427.8,1089.1 1423.5,1096.8 C1419.2,1104.5 1413.1,1115.3 1409.9,1120.8 C1400.6,1137.1 1400.6,1134 1409.7,1150.5 C1414.1,1158.3 1419.2,1167.5 1421,1170.8 C1422.8,1174.1 1424.6,1177.3 1425,1177.8 C1425.4,1178.4 1428,1183.1 1430.7,1188.3 L1435.8,1197.8 L1418.8,1227.6 L1401.9,1257.3 L1405.8,1264.5 C1408,1268.5 1414.6,1280.6 1420.5,1291.3 C1435.2,1317.9 1435,1317.6 1435,1319.3 C1435,1320.2 1434.4,1321.7 1433.6,1322.8 C1431.7,1325.6 1404.4,1374.2 1403,1377.5 C1401.7,1380.2 1403,1383.1 1415.4,1405.5 C1418.8,1411.7 1431.1,1434.3 1432.7,1437.3 C1433.4,1438.7 1434,1440.4 1434,1441 C1434,1441.7 1428.1,1452.8 1420.8,1465.5 C1403,1497 1401,1500.6 1401,1502.1 C1401,1502.9 1406.3,1513 1412.9,1524.6 C1433.9,1562.1 1433.6,1561.4 1431.5,1562.9 C1429.1,1564.7 1428.4,1564.1 1424.9,1557 C1418.1,1543.5 1397.4,1506.8 1395.7,1505.5 C1394.4,1504.5 1338.3,1503.1 1332.7,1504 C1329.5,1504.5 1328.7,1505.7 1313,1532.7 C1304,1548.1 1295.8,1561.8 1294.6,1563.1 C1292.6,1565.3 1292.4,1565.3 1271.1,1565.1 C1259.2,1564.9 1227.2,1564.6 1200,1564.3 Z M1216,1558.3 C1216,1557.5 1205.2,1538.4 1189,1510.6 L1184.8,1503.3 L1153.4,1503.3 C1136.1,1503.3 1122,1503.6 1122,1503.9 C1122,1505.2 1146.8,1548.4 1151.7,1555.6 L1154.3,1559.3 L1185.1,1559.3 C1204.5,1559.3 1216,1558.9 1216,1558.3 Z M1292.9,1557.1 C1298.2,1548.6 1323,1505.2 1323,1504.3 C1323,1503.6 1312.9,1503.4 1290.9,1503.5 L1258.8,1503.8 L1242.9,1530.8 C1234.2,1545.7 1227,1558.1 1227,1558.6 C1227,1559 1241.5,1559.3 1259.3,1559.3 L1291.5,1559.3 L1292.9,1557.1 Z M1231,1541.1 C1235.7,1533.2 1242.7,1521.2 1246.7,1514.4 L1254,1502 L1250.7,1495.9 C1243.9,1482.9 1222.1,1445.8 1221.4,1445.8 C1220.6,1445.8 1218.3,1449.7 1199.1,1482 L1188.9,1499.2 L1191.1,1503.5 C1193.9,1509 1214,1543.9 1219.7,1553.1 C1220.4,1554.3 1221.4,1555.3 1221.8,1555.3 C1222.2,1555.3 1226.4,1548.9 1231,1541.1 Z M1401.7,1489.3 C1414,1468.4 1426.8,1444.8 1426.4,1444.1 C1425.5,1442.7 1365.3,1443.2 1364.2,1444.6 C1363.6,1445.3 1360.1,1451.2 1356.2,1457.8 C1352.4,1464.4 1346.9,1473.9 1344,1478.8 C1341.2,1483.8 1337.5,1490.1 1335.9,1493 L1333,1498.2 L1342.7,1498.5 C1348.1,1498.7 1362.3,1498.8 1374.3,1498.8 L1396.1,1498.8 L1401.7,1489.3 Z M1184.9,1496.1 C1190.7,1486.9 1218,1439.9 1218,1439.1 C1218,1438.5 1214,1431.3 1209.2,1422.9 C1204.3,1414.6 1197.1,1402.1 1193.1,1395.1 C1186.6,1383.6 1185.6,1382.3 1182.7,1381.8 C1180.9,1381.5 1165.6,1381.4 1148.6,1381.5 L1117.7,1381.8 L1101.4,1409.3 C1092.4,1424.4 1085,1437.7 1085,1438.8 C1085,1439.9 1092.3,1453.4 1101.3,1468.8 L1117.5,1496.8 L1127.5,1497.3 C1133,1497.6 1147.9,1497.9 1160.5,1498.1 L1183.5,1498.4 L1184.9,1496.1 Z M1333.8,1486.6 C1337.6,1480.1 1345.1,1467.2 1350.5,1457.9 L1360.4,1441 L1356.5,1433.9 C1348.2,1418.6 1328.8,1384.7 1327.6,1383.5 C1326.7,1382.6 1318.1,1382.1 1292.9,1381.7 C1261.5,1381.2 1259.3,1381.3 1257.8,1383 C1255.8,1385.4 1225,1437.8 1225,1439 C1225,1439.5 1229,1446.9 1233.8,1455.4 C1238.6,1463.8 1245.9,1476.7 1250,1484 C1254.1,1491.3 1258.2,1497.4 1259,1497.6 C1259.8,1497.9 1275.4,1498.1 1293.7,1498.2 L1326.9,1498.3 L1333.8,1486.6 Z M1109.8,1493.1 C1102.4,1480.1 1085,1450.2 1082.7,1446.6 L1080,1442.3 L1057.2,1442.2 C1044.7,1442.2 1030.1,1441.9 1024.8,1441.8 C1018.9,1441.5 1015,1441.8 1015,1442.4 C1015,1443.6 1041.5,1489.8 1044.7,1494.1 L1047.1,1497.3 L1079.6,1497.3 L1112.2,1497.3 L1109.8,1493.1 Z M1427,1437.9 C1427,1436.8 1402.4,1391.7 1399.1,1386.8 L1396.4,1382.8 L1365.2,1382.5 C1348,1382.4 1334,1382.6 1334,1383 C1334,1384.1 1363.2,1435.4 1364.7,1436.9 C1365.9,1438 1371.8,1438.3 1396.6,1438.3 C1413.3,1438.3 1427,1438.1 1427,1437.9 Z M1084.3,1428.6 C1092.7,1414.9 1111.3,1382.3 1110.9,1381.9 C1110.2,1381.3 1052.7,1380.5 1049.4,1381 C1046.6,1381.4 1045.4,1383 1036.5,1398.1 C1021.7,1423.3 1015,1435 1015,1435.7 C1015,1436.2 1025.3,1436.5 1063.7,1437.1 L1078.9,1437.3 L1084.3,1428.6 Z M1237.7,1406.3 C1245.9,1392.3 1252.9,1380 1253.3,1379 C1254.1,1376.9 1253.7,1376.2 1236.1,1345.8 C1223.7,1324.4 1222.1,1322 1221.4,1323.8 C1221.2,1324.4 1214.4,1336.1 1206.4,1349.8 C1198.3,1363.6 1191.3,1375.7 1190.8,1376.9 C1189.8,1379 1192.8,1384.7 1212.5,1418.3 C1214.2,1421.3 1216.9,1426 1218.4,1428.6 C1220,1431.3 1221.6,1433.1 1222,1432.6 C1222.5,1432.2 1229.6,1420.3 1237.7,1406.3 Z M1400.6,1371.1 C1410,1355 1429,1320.2 1429,1319 C1429,1317.7 1402,1267.6 1399,1263.5 C1397.5,1261.4 1396.7,1261.3 1363.4,1260.8 L1329.3,1260.2 L1326.3,1265 C1322.4,1271.1 1299.8,1309.8 1297.7,1313.9 C1296.2,1316.9 1296.2,1317.1 1301,1325.9 C1303.7,1330.8 1311.2,1344 1317.7,1355.3 L1329.5,1375.8 L1337,1376.4 C1341.1,1376.7 1356.3,1377 1370.7,1377.1 L1396.9,1377.3 L1400.6,1371.1 Z M1116.9,1372.4 C1120.7,1366.9 1148,1319.4 1148,1318.2 C1148,1317 1136.8,1296.9 1122.3,1272.1 L1114.8,1259.3 L1088.2,1259.2 C1073.5,1259.2 1060.2,1259 1058.5,1258.8 C1056.9,1258.6 1053.3,1258.7 1050.5,1259 L1045.5,1259.5 L1038.3,1271.6 C1034.4,1278.3 1027.3,1290.4 1022.6,1298.4 C1017.9,1306.4 1014,1313.8 1014,1314.8 C1014,1316.4 1028.5,1342.4 1043.2,1367 L1048.1,1375.3 L1079.3,1375.5 C1096.5,1375.7 1111.5,1375.6 1112.8,1375.4 C1114,1375.2 1115.9,1373.9 1116.9,1372.4 Z M1189.7,1368.1 C1195.9,1358 1217,1321.3 1217,1320.7 C1217,1320.5 1206.7,1320.3 1194.2,1320.3 C1178.1,1320.3 1171.1,1320 1170.2,1319.1 C1169.3,1318.2 1168.4,1318.2 1166.5,1319.1 C1165.1,1319.8 1161.5,1320.3 1158.6,1320.3 L1153.3,1320.3 L1137.6,1347.4 C1129,1362.3 1122.2,1374.8 1122.5,1375.2 C1122.7,1375.7 1136.8,1376.1 1153.8,1376.2 L1184.7,1376.4 L1189.7,1368.1 Z M1322.5,1374.6 C1320.6,1369.5 1292.5,1322.1 1291,1321.3 C1289,1320.2 1228,1319.9 1228,1320.9 C1228,1321.2 1234.9,1333.4 1243.3,1348 C1252.4,1363.9 1259.3,1374.9 1260.5,1375.3 C1261.6,1375.8 1276.2,1376.2 1292.9,1376.2 C1321.4,1376.3 1323.2,1376.2 1322.5,1374.6 Z M1217.3,1314.6 C1217.8,1313.8 1189,1263.9 1186.5,1261.4 C1184.8,1259.6 1122,1258.4 1122,1260.1 C1122,1260.7 1126.2,1268.5 1131.4,1277.5 C1150,1309.9 1152.4,1313.7 1155,1314.3 C1158.9,1315.3 1216.7,1315.5 1217.3,1314.6 Z M1292.7,1311.5 C1316.9,1270.2 1321.7,1261.7 1321.1,1261 C1320.7,1260.6 1306.5,1260.4 1289.4,1260.5 L1258.5,1260.8 L1251.9,1271.8 C1239.7,1292.2 1228.8,1311.3 1228.3,1313.3 C1227.8,1315.3 1228.4,1315.3 1259.1,1315.3 L1290.5,1315.3 L1292.7,1311.5 Z M1232.6,1294.6 C1237.9,1285.3 1244.9,1273.4 1248.2,1268 C1251.4,1262.6 1254,1257.4 1254,1256.5 C1254,1255.6 1249.1,1246.5 1243.2,1236.3 C1237.3,1226.1 1230.4,1214.3 1228,1210.1 C1225.6,1205.8 1223.3,1202.3 1223,1202.3 C1222.5,1202.3 1195.8,1247.7 1192.7,1253.9 C1191.2,1256.8 1191.2,1257.3 1193,1260.6 C1194.4,1263.2 1217.8,1303.9 1221.7,1310.6 C1221.9,1311 1222.3,1311.3 1222.5,1311.3 C1222.6,1311.3 1227.2,1303.8 1232.6,1294.6 Z M1398.8,1252 C1401.6,1248 1419.7,1216.4 1425.5,1205.5 C1427.1,1202.7 1428,1200 1427.7,1199.7 C1427.4,1199.3 1413.2,1198.8 1396.3,1198.6 C1370.9,1198.1 1365.3,1198.3 1364.4,1199.4 C1363.8,1200.2 1362.2,1202.8 1360.8,1205.3 C1357.9,1210.5 1338.4,1244.1 1335.2,1249.3 C1334,1251.2 1333,1253.4 1333,1254 C1333,1255 1339.3,1255.3 1359.4,1255.5 C1373.9,1255.7 1388,1255.9 1390.8,1256 C1395.8,1256.3 1396,1256.2 1398.8,1252 Z M1331.9,1244.5 C1350.9,1212.7 1360.1,1195.8 1359.6,1193.9 C1358.9,1191.4 1330.4,1141.3 1328.7,1139.6 C1326.8,1137.8 1262.9,1137.3 1260.7,1139.1 C1258.9,1140.6 1229.2,1190.2 1227.7,1194.3 C1226.5,1197.4 1225.7,1195.9 1246.3,1231.3 C1253.5,1243.7 1259.8,1254.1 1260.4,1254.5 C1261,1254.9 1275.9,1255.3 1293.5,1255.3 L1325.5,1255.3 L1331.9,1244.5 Z M1111,1253.1 C1111,1252.4 1110.1,1250.7 1109,1249.3 C1107.9,1247.9 1107,1246.5 1107,1246.1 C1107,1245.7 1104.1,1240.5 1100.6,1234.6 C1097.1,1228.7 1091.1,1218.3 1087.1,1211.6 C1083.2,1204.9 1079.6,1199.2 1079.2,1198.9 C1078.2,1198.3 1016.1,1197.9 1015.5,1198.5 C1015.3,1198.7 1021.8,1210.5 1030,1224.8 C1038.2,1239.1 1045.1,1251.3 1045.3,1251.8 C1045.8,1253.1 1057.1,1253.7 1086.8,1254.1 C1106,1254.3 1111,1254.1 1111,1253.1 Z M1191.2,1245.1 C1194.2,1240 1202,1227 1208.4,1216.1 L1220.1,1196.5 L1217.9,1192.6 C1216.8,1190.5 1214.3,1186.3 1212.5,1183.3 C1210.8,1180.3 1204,1168.9 1197.6,1158.1 L1185.9,1138.3 L1168.2,1138.2 C1158.5,1138.1 1142.9,1138 1133.6,1137.9 L1116.8,1137.8 L1109.7,1149.8 C1105.9,1156.4 1098.7,1168.5 1093.9,1176.8 C1088.5,1185.9 1085,1192.8 1085,1194.5 C1085,1196.7 1106.3,1235.4 1116.6,1252.1 L1118,1254.3 L1151.9,1254.3 L1185.8,1254.3 L1191.2,1245.1 Z M1420.9,1181.2 C1403.8,1150 1399.6,1142.6 1397.7,1140.6 C1395.7,1138.3 1395.5,1138.3 1365.3,1138.3 C1348.6,1138.3 1335,1138.6 1335,1139.1 C1335,1139.6 1360.8,1184.7 1364.9,1191.3 C1365.7,1192.6 1370.6,1192.9 1395.7,1193.3 C1412.1,1193.6 1425.9,1193.5 1426.3,1193.2 C1426.8,1192.8 1424.4,1187.4 1420.9,1181.2 Z M1087.3,1178.1 C1092,1170.2 1096.7,1162.2 1097.8,1160.3 C1098.8,1158.4 1102.1,1152.8 1104.9,1148 C1107.7,1143.1 1110,1138.7 1110,1138.2 C1110,1137.7 1097,1137.3 1078.5,1137.3 L1047.1,1137.3 L1036.9,1154.6 C1031.3,1164 1024.3,1175.9 1021.4,1180.9 C1018.4,1186 1016,1190.6 1016,1191.2 C1016,1192 1024.9,1192.3 1047.5,1192.3 L1078.9,1192.3 L1087.3,1178.1 Z M1226.2,1186.1 C1227.6,1183.7 1234.8,1171.4 1242.3,1158.6 C1249.8,1145.9 1256,1135.1 1256,1134.6 C1255.9,1133.2 1224.5,1080 1223.7,1079.9 C1222.7,1079.8 1192.2,1130.9 1191.4,1134 C1190.9,1135.7 1192.7,1139.5 1197.7,1148 C1201.6,1154.5 1208.7,1166.7 1213.6,1175 C1218.5,1183.4 1222.8,1190.3 1223.2,1190.3 C1223.5,1190.3 1224.9,1188.4 1226.2,1186.1 Z M1324.3,1131.8 C1324.1,1130.5 1297.7,1085 1294.3,1080.1 L1291.7,1076.3 L1260.4,1076.3 C1243.1,1076.3 1229,1076.6 1229.1,1077.1 C1229.1,1077.5 1236.2,1090 1244.8,1104.8 L1260.5,1131.8 L1282,1132.3 C1314.4,1133.1 1324.5,1132.9 1324.3,1131.8 Z M1187.6,1129 C1191,1123.9 1216.9,1079.8 1217.6,1078 C1218.2,1076.4 1216.7,1076.3 1200.9,1076.2 C1191.3,1076.2 1177,1076.1 1169,1076 C1161,1075.9 1154,1076.2 1153.4,1076.6 C1152.2,1077.3 1122.8,1127.1 1121.5,1130.6 C1120.8,1132.2 1122.7,1132.3 1153.1,1132.3 L1185.5,1132.3 L1187.6,1129 Z" id="Shape"></path>
                <path d="M890.7,1562.1 C889.8,1561.4 882.1,1548.7 873.6,1533.8 C865.1,1519 857.8,1506.7 857.2,1506.5 C856.6,1506.3 853.6,1510.6 850.4,1516 C847.3,1521.4 839.8,1534 833.8,1544.1 L822.9,1562.4 L752.2,1562.1 C713.3,1561.9 680.8,1561.4 679.9,1561 C679,1560.5 677.7,1559 676.9,1557.5 C676.1,1556 674.4,1552.8 672.9,1550.3 C671.5,1547.8 665,1536.4 658.5,1525 C652,1513.6 646.3,1504.4 645.8,1504.5 C645.3,1504.7 638.7,1515.4 631,1528.3 C623.4,1541.2 615.9,1553.8 614.3,1556.3 L611.5,1560.8 L583,1560.9 C567.3,1561 550.9,1560.8 546.5,1560.4 L538.5,1559.8 L538.6,1556.3 C538.7,1554 540.4,1550.2 543.8,1544.8 C549.6,1535.5 567.1,1505.9 569.5,1501.3 C571.4,1497.7 572.8,1500.8 554,1467.8 C548.4,1457.9 542.2,1447 540.3,1443.6 L536.9,1437.5 L538.9,1433.9 C540,1432 542,1428.7 543.4,1426.6 C550.3,1415.8 572.4,1376.6 572.3,1375.3 C572.2,1373.8 551.4,1336.5 543.2,1322.8 C538.6,1315.2 538.6,1312.1 543.1,1305.2 C545.1,1302.2 552.6,1289.6 559.9,1277.2 L573.1,1254.5 L570.4,1249.7 C564.2,1238.4 549.4,1212.3 545.5,1205.7 C543.2,1201.8 540.7,1197.1 540,1195.2 C538.6,1191.2 536.8,1194.8 557.4,1160.5 C565.4,1147.1 572.4,1135.3 573,1134.3 C573.8,1132.8 571.4,1127.8 559.8,1107.6 C543.5,1079 538.1,1069.1 538,1068.1 C538,1067.2 576.4,1067.3 598.5,1068.2 L613.4,1068.8 L618.7,1077.8 C621.6,1082.8 629.1,1095.7 635.3,1106.5 C641.4,1117.4 646.8,1126.3 647.2,1126.3 C648.1,1126.3 647.6,1127.2 666.5,1095 L682.3,1068.2 L739.4,1068.5 C770.8,1068.7 802.9,1068.9 810.8,1069.1 L825.1,1069.4 L827.6,1073.6 C829,1075.9 836.5,1089.2 844.4,1103.1 L858.8,1128.4 L860.8,1125.6 C862.5,1123.2 876.8,1099.1 890.3,1075.9 L894.3,1069 L929.9,1069.7 C970.3,1070.5 970.2,1070.5 965.8,1077 C960.4,1084.9 934,1130.3 933.5,1132.5 C933.1,1134.2 937.1,1142.2 949.5,1163.8 C958.6,1179.7 966.3,1193.6 966.6,1194.6 C966.9,1195.7 966.2,1197.9 964.7,1200.1 C961.3,1205 936.9,1246.6 934.1,1252.1 L931.9,1256.4 L944.6,1278.6 C969.1,1321.4 967.3,1317.3 964.2,1321.4 C960.3,1326.5 932,1376 932,1377.7 C932,1378.7 933.7,1382.5 935.9,1386.1 C938,1389.8 944.6,1401.4 950.5,1411.8 C956.5,1422.3 962.4,1432.4 963.7,1434.3 C964.9,1436.2 966,1438.4 966,1439.1 C966,1439.8 963.8,1444.1 961.1,1448.6 C945.3,1475.4 935.9,1491.4 933.4,1495.9 L930.6,1500.9 L946,1527.9 C954.4,1542.7 962.1,1556 963.2,1557.5 C964.9,1559.9 964.9,1560.3 963.4,1561.7 C962.1,1563.1 957.5,1563.3 927.1,1563.3 C900.9,1563.3 892,1563 890.7,1562.1 Z M957,1557.7 C957,1556.9 929.3,1508.7 926.8,1505.1 L924.9,1502.3 L893.4,1502.3 C876.1,1502.3 862,1502.5 862,1502.7 C862,1503 868.9,1515.2 877.3,1530 C892.1,1555.8 892.8,1556.8 896.1,1557.4 C900.8,1558.2 957,1558.5 957,1557.7 Z M745.4,1556.4 C745.6,1556.1 739,1543.9 730.6,1529.4 C720.1,1511.2 714.7,1502.8 713.2,1502.2 C711.1,1501.4 652.2,1500.8 651.4,1501.6 C651.2,1501.8 658,1514 666.4,1528.9 L681.8,1555.8 L698.7,1556.3 C724.4,1557.1 745,1557.1 745.4,1556.4 Z M822.8,1552.6 C830.1,1540.8 852.1,1503.1 851.8,1502.8 C851.3,1502.3 788,1501.9 787.6,1502.4 C787.5,1502.6 784,1508.4 780,1515.3 C776,1522.2 769,1534.1 764.4,1541.7 C759.9,1549.4 756.3,1556 756.6,1556.4 C756.8,1556.8 771.1,1557.2 788.4,1557.2 L819.8,1557.3 L822.8,1552.6 Z M614.3,1546.3 C627.7,1524.6 640.8,1501.8 640.4,1501.1 C640.1,1500.6 625.5,1500.3 608,1500.3 L576,1500.3 L573.7,1504.1 C569.5,1510.7 544.8,1552.6 544.3,1554 C543.7,1555.4 553.4,1555.8 587.5,1555.8 L608.5,1555.8 L614.3,1546.3 Z M758.7,1541.6 C762.6,1535.1 769.6,1523.2 774.4,1515.1 L783.1,1500.5 L779.1,1493.1 C770.9,1477.8 752.2,1445.9 751.3,1445.6 C750.2,1445.2 720,1496.5 720,1498.7 C720,1500.6 724.9,1509.6 746.2,1546.6 C748.3,1550.3 750.5,1553.3 750.9,1553.3 C751.4,1553.3 754.9,1548 758.7,1541.6 Z M851.3,1496.6 C851.8,1495.7 823,1444.9 820.8,1442.8 C819.2,1441.3 757.4,1439.8 756.5,1441.2 C756.2,1441.7 762.9,1454.2 771.3,1469 L786.6,1495.8 L800.6,1496.3 C827.2,1497.3 850.8,1497.4 851.3,1496.6 Z M931.5,1489.1 C943,1469.9 958,1443.9 958,1443.1 C958,1442.7 943.5,1442.3 925.7,1442.3 L893.5,1442.3 L888.1,1451.6 C870.3,1481.8 862.2,1496.2 862.8,1496.7 C863.1,1497 877.6,1497.3 894.9,1497.3 L926.5,1497.3 L931.5,1489.1 Z M717.3,1491.5 C723.2,1482.8 746.8,1441.8 746.3,1441.1 C746.1,1440.6 732,1440.3 715.1,1440.3 C692,1440.3 684,1440.6 682.8,1441.6 C680,1443.8 650.7,1494 651.5,1495.3 C651.8,1495.8 666.1,1496.1 683.2,1496 L714.4,1495.8 L717.3,1491.5 Z M641,1494.9 C641,1494.2 611.1,1442 610.1,1441 C609.6,1440.5 595.4,1439.9 577.1,1439.6 C550.8,1439.1 545,1439.3 545,1440.4 C545,1441.5 567.3,1481.3 573.7,1491.6 L576,1495.3 L608.5,1495.3 C626.4,1495.3 641,1495.1 641,1494.9 Z M862.8,1485.1 C865.5,1480.5 871.9,1469.6 877,1460.8 C882.1,1452 887,1443.6 887.8,1442.2 C889.3,1439.7 889.2,1439.2 884.9,1431.7 C882.4,1427.4 875.5,1415.3 869.5,1404.8 C863.6,1394.4 858.4,1385.4 857.9,1384.9 C857.5,1384.5 853.3,1390.8 848.5,1398.9 C843.7,1407.1 836.9,1418.5 833.5,1424.3 C830.1,1430.1 826.9,1435.8 826.6,1437 C825.8,1439.5 826.9,1441.9 838.3,1461.8 C851.8,1485.6 856.5,1493.3 857.2,1493.3 C857.6,1493.3 860.1,1489.6 862.8,1485.1 Z M653.5,1480.6 C670.8,1451.1 677.3,1439.7 677.3,1438.7 C677.4,1436.7 646.5,1382.3 645.5,1382.7 C644.5,1383 621.2,1421.8 616.6,1430.9 C614.3,1435.4 614.1,1436.6 615,1438.5 C618.3,1445 645.6,1492.3 646,1492.3 C646.3,1492.3 649.7,1487 653.5,1480.6 Z M958,1436 C958,1435.1 933.8,1392.1 929.3,1385.1 L927,1381.3 L894.5,1381.3 C863.8,1381.3 862,1381.4 862.9,1383.1 C863.4,1384 870.4,1396.3 878.4,1410.3 L893,1435.8 L911.8,1436.3 C941.6,1437.1 958,1437 958,1436 Z M821.8,1433.5 C824.2,1430.2 843,1398.7 848.4,1389 C850.5,1385.3 851.9,1381.9 851.5,1381.5 C851.1,1381.1 837,1380.7 820.1,1380.5 C791.5,1380.2 789.3,1380.3 787.9,1382 C786.2,1383.9 757,1433.8 757,1434.7 C757,1435 767.2,1435.4 779.8,1435.5 C792.3,1435.7 806.4,1435.9 811.2,1436.1 C819.6,1436.3 819.9,1436.3 821.8,1433.5 Z M608.4,1434.1 C611.2,1431 640.3,1380.3 639.7,1379.7 C639.4,1379.4 625.2,1378.9 608.2,1378.6 L577.2,1378 L575.5,1381.4 C574.5,1383.3 567.5,1395.4 559.9,1408.4 C552.2,1421.4 546,1432.5 546,1433.1 C546,1434.5 607.2,1435.5 608.4,1434.1 Z M745,1434.3 C745,1433 717.2,1383.5 715.2,1381.1 C713.8,1379.5 711,1379.3 682.3,1379.3 C665.1,1379.3 651,1379.6 651,1380 C651,1380.4 657.9,1392.8 666.3,1407.5 C677,1426.3 682.1,1434.3 683.5,1434.6 C688.1,1435.6 745,1435.3 745,1434.3 Z M767.5,1406.3 C778.1,1388.2 783,1379.1 782.7,1377.6 C782.2,1375 752.9,1323.3 751.9,1323.3 C751.2,1323.3 742.4,1337.9 725.5,1366.7 L719.7,1376.6 L722.4,1382.2 C724.8,1387.1 731.4,1398.9 746.8,1425.6 C749.2,1429.9 751.4,1433.2 751.6,1433.1 C751.8,1432.9 758.9,1420.8 767.5,1406.3 Z M837.5,1348.7 C829.4,1334.4 822.1,1322 821.2,1321.1 C819.8,1319.5 816.9,1319.3 788.2,1319.3 C759.5,1319.3 756.8,1319.4 757.4,1320.9 C758.2,1322.9 774.6,1352 782.4,1365.3 L788.1,1374.8 L819.3,1375.3 C836.5,1375.6 850.9,1375.5 851.3,1375.2 C851.8,1374.8 845.5,1362.9 837.5,1348.7 Z M932.8,1364.6 C951.1,1333.7 957.9,1321.2 956.7,1320.7 C956,1320.5 941.8,1320.4 925,1320.5 L894.5,1320.8 L888.4,1330.8 C881.2,1342.7 863,1374.1 863,1374.7 C863,1375.7 870.5,1376 897.7,1376.1 L925.8,1376.3 L932.8,1364.6 Z M722.2,1362.8 C725.9,1356.8 729.5,1350.7 730.2,1349.3 C730.9,1347.9 735,1340.8 739.4,1333.5 C743.7,1326.2 747,1319.9 746.7,1319.6 C746.4,1319.3 732,1318.9 714.7,1318.6 L683.3,1318 L681.3,1320.9 C678.7,1324.7 651,1372 651,1372.7 C651,1373.6 663,1373.9 690,1373.9 L715.5,1373.8 L722.2,1362.8 Z M640,1372.4 C640,1371.8 635.6,1363.6 630.2,1354.1 C624.8,1344.6 618.4,1333.3 616.1,1329.1 C613.8,1324.8 611.2,1320.6 610.4,1319.8 C609.1,1318.5 604.1,1318.3 577.9,1318.3 C560.9,1318.3 547,1318.5 547,1318.8 C547,1319.4 561.9,1345.9 570.7,1361 C573.7,1366.1 576.8,1370.9 577.6,1371.8 C578.9,1373.1 583.6,1373.3 609.6,1373.3 C628.1,1373.3 640,1372.9 640,1372.4 Z M860.4,1368.4 C864.7,1361.7 887.8,1321.9 889,1319.1 C890.2,1316.7 889.2,1314.6 874.4,1288.7 C859.9,1263.3 858.5,1261.2 857.2,1262.9 C854.1,1267.2 826,1315.9 826,1317.1 C826,1317.8 832.3,1329.5 840.1,1343.1 C855.3,1369.8 856.8,1372.3 857.5,1372.3 C857.8,1372.3 859.1,1370.5 860.4,1368.4 Z M653.6,1358 C657.5,1351.3 664.6,1339.2 669.4,1331 C675.7,1320.4 677.9,1315.7 677.5,1314.2 C676.8,1312 648.4,1262.3 647.1,1261 C646.3,1260.2 618.9,1306.2 616.1,1313 C614.8,1316.2 615,1316.7 622.7,1330.5 C638.4,1358.6 645.2,1370.3 645.8,1370.3 C646.2,1370.2 649.7,1364.7 653.6,1358 Z M958,1313.9 C958,1313.1 954.5,1306.3 950.2,1298.7 C933.2,1268.6 929.8,1262.7 928.4,1260.8 C927,1258.9 925.5,1258.8 895.5,1258.4 C875.6,1258.2 864,1258.4 864,1259.1 C864,1259.6 865.7,1263.1 867.8,1266.9 C877.9,1285 890.2,1306.6 892.5,1310.3 L895,1314.3 L914.7,1314.5 C925.6,1314.7 939.8,1314.9 946.3,1315.1 C955.9,1315.3 958,1315.1 958,1313.9 Z M822.1,1312.1 C823,1310.8 829.2,1300.4 836,1288.8 C852.5,1260.8 853,1259.9 853,1259.1 C853,1258.6 838.6,1258.3 821.1,1258.3 L789.2,1258.3 L787,1262.1 C768,1294.1 758,1311.6 758,1312.7 C758,1313.3 769.2,1313.7 800,1314.1 C820.4,1314.4 820.5,1314.4 822.1,1312.1 Z M610.2,1311.6 C611.1,1310.6 614.2,1305.5 617.2,1300.3 C620.3,1295.1 626.8,1283.7 631.9,1275.1 C636.9,1266.5 641,1258.9 641,1258.3 C641,1257.6 631.1,1257.4 608.8,1257.5 L576.7,1257.8 L570,1269.3 C566.4,1275.6 559.5,1287.5 554.7,1295.6 C549.9,1303.8 546,1310.9 546,1311.4 C546,1311.9 556,1312.4 568.3,1312.6 C580.5,1312.7 594.6,1312.9 599.6,1313.1 C607.2,1313.3 608.9,1313 610.2,1311.6 Z M746,1312.5 C746,1311.8 742.5,1305.5 723.4,1271.7 L716,1258.6 L709.2,1258 C700.9,1257.2 652,1257.1 652,1257.9 C652,1258.8 681.2,1309.7 682.8,1311.6 C684.2,1313.1 687,1313.3 715.2,1313.3 C732.1,1313.3 746,1312.9 746,1312.5 Z M767.7,1285.2 C786.2,1253.5 784.6,1256.9 782.9,1253.6 C779.5,1246.6 752.6,1200.3 752.1,1200.3 C751.7,1200.3 747.8,1206.5 743.4,1214.1 C739,1221.6 731.9,1233.7 727.6,1241 L719.8,1254.2 L722.7,1259.5 C726.9,1267.1 749.1,1306.5 750.4,1308.6 C751,1309.5 751.9,1310.2 752.4,1310 C753,1309.8 759.8,1298.7 767.7,1285.2 Z M853.3,1252.6 C853.5,1252.1 849.5,1244.4 844.4,1235.3 C826.2,1203 822.8,1197.5 820.6,1196.9 C817.4,1196 758.2,1196.2 757.7,1197.1 C757.5,1197.5 764.3,1210 772.8,1225 C786.1,1248.4 788.7,1252.3 790.9,1252.6 C795.8,1253.3 852.9,1253.3 853.3,1252.6 Z M928.6,1250.6 C932.2,1245.7 959,1199.7 959,1198.5 C959,1197.6 950.9,1197.3 927.1,1197.3 L895.2,1197.3 L879.3,1224.6 C870.5,1239.5 863.5,1252.1 863.7,1252.6 C863.9,1253 878.2,1253.3 895.4,1253.3 L926.6,1253.3 L928.6,1250.6 Z M641.1,1251.8 C641.6,1251.4 641.4,1250.2 640.6,1249 C639.8,1247.8 633,1235.8 625.5,1222.3 C618,1208.8 611.5,1197.5 611.1,1197 C610.2,1196.1 549.8,1194.8 547.6,1195.6 C546.3,1196.1 546.6,1197.2 549.3,1202 C551.2,1205.2 558.2,1217.6 565,1229.5 L577.3,1251.3 L597.4,1251.5 C608.5,1251.7 622.6,1251.9 628.8,1252.1 C635,1252.2 640.6,1252.1 641.1,1251.8 Z M725.1,1235.1 C730.7,1225.6 737.9,1213.4 741.2,1208 C744.4,1202.6 747,1197.8 747,1197.3 C747,1196.7 734.8,1196.3 715.6,1196.3 L684.1,1196.3 L682.2,1199.1 C677.3,1206.1 652.1,1250.6 652.6,1251.4 C652.9,1251.9 666.5,1252.3 684,1252.3 L714.9,1252.3 L725.1,1235.1 Z M869.5,1231.8 C885.6,1204.2 888.7,1198.8 889.8,1196.9 C890.9,1194.7 890,1192.8 871.7,1160.9 C865.5,1149.9 859.9,1140.8 859.3,1140.6 C858.7,1140.4 853.6,1148 848,1157.5 C842.3,1167 835.2,1179 832.2,1184 C828.9,1189.7 827,1193.9 827.4,1194.9 C828,1196.5 853.8,1242.4 856.7,1247.2 C858.7,1250.3 858.7,1250.2 869.5,1231.8 Z M656.4,1233 C661.3,1224.6 668.4,1212.5 672.2,1206.1 C678.3,1195.7 679,1194.1 677.9,1192.1 C671.8,1180.1 647.5,1139.3 646.7,1139.6 C645.8,1139.9 627.2,1170.7 619,1185.8 L615.1,1192.8 L630.7,1220.6 C639.2,1235.8 646.5,1248.3 646.8,1248.3 C647.2,1248.3 651.5,1241.4 656.4,1233 Z M959,1191.5 C959,1190.2 930.2,1140.1 928.5,1138.4 C927.4,1137.3 920.7,1136.9 895.6,1136.5 C877.5,1136.2 864,1136.4 864,1136.9 C864,1137.4 870.9,1149.7 879.3,1164.3 L894.5,1190.8 L899,1191.4 C906.7,1192.3 959,1192.4 959,1191.5 Z M746,1190.8 C746.6,1190.4 746.5,1189.3 745.6,1188 C744.9,1186.8 741.7,1181.1 738.5,1175.3 C735.2,1169.5 730.2,1160.5 727.2,1155.3 C724.2,1150.1 720.8,1144.2 719.8,1142.3 C716.2,1135.9 717.8,1136.2 685.2,1135.6 C668.7,1135.3 654.5,1135.3 653.6,1135.6 C652.2,1136.2 652.3,1136.8 654.5,1140.3 C655.9,1142.5 657,1144.5 657,1144.8 C657,1145 658.3,1147.4 659.8,1150 C661.4,1152.7 667.1,1162.5 672.5,1171.8 C677.9,1181.2 682.9,1189.3 683.7,1189.9 C685.2,1191.1 744.1,1192 746,1190.8 Z M823.8,1188.6 C826.3,1184.8 854,1137.5 854,1136.8 C854,1136.5 839.3,1136.4 821.4,1136.5 L788.8,1136.8 L773.3,1163.1 C764.8,1177.5 758.2,1189.7 758.5,1190.3 C758.8,1190.8 772,1191.2 790.4,1191.3 L821.8,1191.3 L823.8,1188.6 Z M617.1,1178.8 C630.9,1155.8 642.2,1136.1 641.8,1135.7 C641.3,1135.3 578.9,1135 578.5,1135.5 C575.9,1138.7 547.2,1188.8 547.6,1189.4 C547.9,1189.9 561,1190.2 579.3,1190.1 L610.5,1189.8 L617.1,1178.8 Z M769.6,1159.8 L785.3,1132.8 L781.6,1125.8 C773.5,1110.7 754.5,1077.4 753.9,1077.3 C753.3,1077.3 725.5,1124.3 722,1131.1 C721,1133.2 721.7,1134.9 728.6,1147.1 C745,1176.4 752.3,1188.4 753,1187.6 C753.4,1187.2 760.9,1174.7 769.6,1159.8 Z M854,1130.3 C854,1129.7 852.9,1127.6 851.7,1125.5 C850.4,1123.5 845.4,1114.8 840.5,1106.3 C835.7,1097.8 829.5,1087.1 826.8,1082.6 L821.9,1074.3 L790.4,1074.3 C773.1,1074.3 759,1074.4 759,1074.6 C759,1074.8 763.7,1083.2 769.3,1093.4 C775,1103.5 780.7,1113.6 781.9,1115.8 C783.1,1118 785.6,1122.1 787.3,1125 L790.4,1130.2 L801.9,1130.5 C838,1131.4 854,1131.3 854,1130.3 Z M928.9,1129.1 C935.5,1118.5 960.1,1076.1 959.8,1075.8 C959.5,1075.5 911.1,1075 899.9,1075.2 C896.4,1075.3 896.2,1075.5 887,1091.1 C867.4,1124.1 864.1,1130.1 864.8,1130.7 C865.1,1131 879.3,1131.3 896.4,1131.3 L927.5,1131.3 L928.9,1129.1 Z M641.3,1128.6 C641,1127.2 617.6,1085.7 612.8,1078.1 L609.8,1073.3 L578.4,1073.3 C561.1,1073.3 547,1073.5 547,1073.8 C547,1074 551.3,1081.8 556.6,1091 C561.8,1100.3 568.9,1112.6 572.3,1118.5 L578.4,1129.3 L596.9,1129.5 C633.5,1130.1 641.5,1129.9 641.3,1128.6 Z M716.8,1129.1 C717.3,1128.4 724.8,1115.9 733.4,1101.4 C745.1,1081.7 748.8,1074.8 747.8,1074.2 C747.1,1073.7 733,1073.3 716.4,1073.3 C686.5,1073.3 686.3,1073.3 684.3,1075.6 C683.2,1076.8 678.3,1084.6 673.5,1092.8 C668.7,1101.1 662.1,1112.3 658.9,1117.9 C655.7,1123.4 653,1128.5 653,1129.1 C653,1130.9 715.3,1130.8 716.8,1129.1 Z" id="Shape"></path>
                <path d="M308.4,1556.5 C307.8,1556.1 307.4,1552.4 307.4,1548 C307.5,1542.1 307.1,1539.9 306,1539.2 C283.4,1525.5 249.1,1506.4 247.7,1506.9 C245.7,1507.5 199.3,1533.3 193.8,1536.9 C190.1,1539.3 190.1,1539.3 189.8,1547 C189.5,1554.6 189.4,1554.8 187,1554.8 C184.6,1554.8 184.5,1554.6 184,1546.4 L183.5,1537.9 L155.5,1521.6 C140.1,1512.7 126.9,1505.3 126.2,1505.3 C124.8,1505.3 116.5,1509.7 95,1521.8 C87,1526.3 78.4,1531.1 75.9,1532.5 C66.5,1537.7 67.1,1536.9 66.8,1546.3 C66.5,1554.8 66.5,1554.8 63.8,1555.1 L61,1555.4 L61,1546.4 L61,1537.3 L57.3,1535 C55.2,1533.7 42.3,1526.2 28.5,1518.3 C14.8,1510.4 2.7,1503.3 1.8,1502.5 C0.1,1501.1 0,1498.1 0,1466.3 C0,1440.1 0.3,1431.3 1.2,1430.2 C1.9,1429.3 10.2,1424.5 19.5,1419.3 C28.9,1414.2 39,1408.6 42,1406.8 C45,1405 50.2,1402.1 53.5,1400.3 C56.8,1398.5 60.1,1396.5 60.8,1395.8 C62.7,1394 63.9,1329.1 62.1,1326.9 C61.4,1326 57.8,1323.6 54.2,1321.5 C50.5,1319.4 38.7,1312.6 28,1306.4 C17.3,1300.2 7,1294.1 5.3,1293 L2,1290.8 L2,1255.3 C2,1235.8 2.4,1219.4 2.8,1218.8 C3.2,1218.3 6.4,1216.3 10,1214.4 C16.6,1211 35.4,1200.5 53.5,1190.2 L63.5,1184.5 L63.5,1150.2 L63.5,1115.9 L46.5,1106 C37.2,1100.5 25.2,1093.5 20,1090.4 C14.8,1087.3 10.1,1084.6 9.5,1084.4 C9,1084.2 7.5,1083.1 6.3,1082 C4.3,1080.2 4,1079 4,1072.1 L4,1064.3 L7.1,1064.3 L10.3,1064.3 L9.7,1070.4 C9.1,1077.8 9.2,1077.9 22.1,1085.5 C40.6,1096.4 58.6,1106.7 63.1,1109.2 L67.7,1111.7 L74.6,1107.8 C89.3,1099.7 123.6,1080 124.7,1079.1 C125.4,1078.6 126,1075.6 126.2,1072.5 C126.5,1067.1 126.7,1066.8 129.3,1066.5 C132,1066.2 132,1066.2 132,1072.5 C132,1078.5 132.2,1078.9 135.3,1081 C142.2,1085.6 189.2,1112.3 190.3,1112.3 C191,1112.3 198.6,1108.4 207,1103.7 C215.5,1099 227.9,1092.2 234.5,1088.6 C241.1,1085 247.1,1081.3 247.8,1080.5 C248.5,1079.6 249,1076 249,1072 L249,1065.2 L251.8,1065.5 C254.5,1065.8 254.5,1065.9 254.2,1072 C254,1077.2 254.3,1078.5 256.2,1080.6 C258.2,1082.7 288.8,1100.8 307.5,1110.9 L313.5,1114.1 L334.5,1102.4 C372.3,1081.3 371.4,1081.8 372.1,1078.7 C372.5,1077.1 372.8,1074 372.9,1071.7 C373,1067 373.4,1066.3 376.1,1067 C377.7,1067.5 378,1068.4 378,1073.9 C378,1081.7 376.1,1080.2 410.4,1099.8 L436.4,1114.7 L441.9,1111.7 C452.9,1105.8 493.5,1083 494.5,1082.1 C495,1081.7 495.5,1080 495.6,1078.5 C496,1068.9 495.9,1069.3 498.5,1069.3 C500.9,1069.3 501,1069.5 501,1076.7 C501,1083.9 499.7,1087.3 497,1087.3 C496.3,1087.3 485.8,1093 460.5,1107.3 C458.3,1108.5 452.6,1111.8 447.8,1114.6 L439,1119.7 L438.9,1136.3 C438.8,1145.4 438.7,1160.4 438.6,1169.7 L438.5,1186.7 L446,1191.2 C469.3,1205 496.1,1220.3 497.1,1220.3 C499.2,1220.3 499.5,1225.2 499.2,1257.8 C498.9,1289.2 498.7,1292.9 497.2,1294.1 C495.7,1295.3 459.6,1315.9 443.7,1324.6 C440.2,1326.5 437.8,1328.6 437.5,1329.8 C436.5,1334.7 436,1394.5 436.9,1396.2 C437.5,1397.2 443.7,1401.4 450.7,1405.6 C477.6,1421.4 493.6,1430.6 495.8,1431.4 L498.1,1432.3 L498,1462.2 C497.9,1478.7 497.6,1495.3 497.3,1499 L496.7,1505.9 L490.6,1509.2 C474.5,1518.1 445,1534.9 440.3,1537.9 L435.2,1541.2 L435.4,1549.3 L435.7,1557.4 L433.1,1557.1 C430.3,1556.8 430.4,1557.1 430.1,1543.2 C430,1539.6 429.9,1539.5 415.3,1531.1 C407.1,1526.4 394.1,1518.9 386.3,1514.4 L372,1506.2 L349.3,1518.9 C336.7,1525.9 323.5,1533.4 319.8,1535.5 C312.3,1539.8 312.9,1538.6 312.6,1551.3 C312.5,1556.7 311.1,1558.5 308.4,1556.5 Z M453.9,1524.1 C463.6,1518.6 475.9,1511.6 481.3,1508.6 C486.6,1505.6 491.2,1502.8 491.4,1502.4 C491.6,1502.1 492,1487 492.1,1469 C492.5,1440.7 492.3,1436.1 491,1435.3 C486.6,1432.4 438.1,1404.3 435.9,1403.3 C433.5,1402.2 431.2,1403.3 405.4,1417.8 C390.1,1426.4 377,1434 376.4,1434.6 C375.6,1435.4 375,1446.1 374.7,1467.9 C374.1,1499.2 374.1,1500.1 376.1,1501.9 C377.2,1502.9 390.3,1510.8 405.3,1519.5 C424,1530.3 433.1,1535.1 434.4,1534.7 C435.4,1534.3 444.2,1529.6 453.9,1524.1 Z M331.5,1523 C342.5,1516.8 355.4,1509.5 360.3,1506.8 L369,1501.9 L369,1489.9 C369.1,1483.2 369.3,1468.6 369.6,1457.3 C369.9,1446 369.7,1436.3 369.3,1435.6 C368.6,1434.7 329.5,1411.3 314.4,1402.8 L310.2,1400.5 L302.4,1405 C298,1407.5 285.3,1414.7 274,1421 C262.7,1427.3 253.2,1432.7 252.8,1433.1 C252.5,1433.5 252,1448.7 251.8,1467 C251.5,1495.5 251.7,1500.4 253,1501.7 C255.5,1504 308.3,1534.3 310,1534.3 C310.9,1534.3 320.5,1529.2 331.5,1523 Z M213.7,1519.6 C226.2,1512.6 238.6,1505.8 241.2,1504.4 L246,1501.8 L246.2,1482.3 C246.3,1471.6 246.4,1456.3 246.4,1448.3 L246.5,1433.8 L234.5,1426.7 C220.8,1418.7 198.4,1405.6 192.7,1402.4 L188.8,1400.2 L182.7,1403.6 C165.7,1413 140.8,1427 135.5,1430.2 L129.5,1433.8 L129.3,1466.8 L129,1499.8 L132.8,1502.2 C134.8,1503.6 146.6,1510.5 159,1517.6 C171.4,1524.7 182.4,1531.2 183.5,1532 C184.6,1532.8 186.7,1533.2 188.2,1532.9 C189.6,1532.6 201.1,1526.7 213.7,1519.6 Z M82,1523.2 C91.1,1518.2 104,1511 110.6,1507.2 L122.7,1500.3 L123.5,1467.8 C124,1441.9 123.9,1434.9 122.9,1433.7 C122.2,1432.8 117.5,1429.8 112.6,1426.9 C107.6,1424 95.3,1416.8 85.3,1410.9 C75.3,1405.1 66.4,1400.3 65.6,1400.3 C64.1,1400.3 60.3,1402.3 35,1416.5 C28.7,1420.1 19.6,1425.2 14.9,1427.8 L6.3,1432.6 L5.6,1465 C5.2,1482.8 5.2,1497.8 5.5,1498.2 C5.7,1498.7 14,1503.7 23.7,1509.4 C33.5,1515 46.2,1522.5 52,1525.9 C57.8,1529.3 63.2,1532.2 64,1532.2 C64.9,1532.3 73,1528.2 82,1523.2 Z M403.5,1413 C417.3,1405.3 429,1398.5 429.6,1397.9 C430.4,1397.1 430.9,1386.5 431.1,1362.9 L431.5,1329 L424.5,1324.8 C420.7,1322.5 409.9,1316.2 400.5,1310.8 C391.2,1305.3 381.5,1299.7 379.2,1298.2 C376.6,1296.6 374.1,1295.7 373.2,1296 C372.2,1296.4 364.3,1300.8 355.5,1305.8 C346.7,1310.8 334.6,1317.7 328.5,1321.1 C322.5,1324.4 316.7,1327.8 315.8,1328.5 C314.3,1329.7 314.1,1333 314,1361.3 C313.9,1378.6 313.9,1393.5 313.9,1394.4 C314,1396.3 319.6,1399.9 347.5,1416 C373.9,1431.3 371.9,1430.4 375.5,1428.6 C377.1,1427.7 389.8,1420.7 403.5,1413 Z M148.3,1417.1 C159.3,1410.9 171.9,1403.8 176.4,1401.3 C184.3,1396.8 184.5,1396.7 185.2,1392.1 C185.7,1389.5 185.9,1374 185.8,1357.7 L185.5,1328 L166,1316.6 C155.3,1310.4 142.2,1302.8 136.9,1299.8 L127.3,1294.3 L111.9,1302.9 C103.4,1307.7 90.2,1315.3 82.5,1319.8 L68.5,1327.9 L68.2,1361 L68,1394.1 L70.7,1396.1 C72.3,1397.2 81.2,1402.5 90.5,1407.8 C99.9,1413.2 111.6,1420 116.5,1422.9 C121.5,1425.8 126.1,1428.2 126.9,1428.2 C127.7,1428.3 137.3,1423.2 148.3,1417.1 Z M256.9,1424.7 C260.5,1422.7 273.5,1415.4 285.7,1408.5 L307.8,1395.9 L308.5,1381.9 C308.8,1374.1 309,1359.1 308.8,1348.4 L308.5,1329 L280,1312.2 C264.3,1302.9 250.9,1295.4 250.3,1295.3 C249.6,1295.3 246.9,1296.6 244.3,1298.1 C241.6,1299.7 231.6,1305.4 222,1310.8 C193,1327 192.6,1327.3 191.9,1331.8 C191.5,1334 191.2,1349.1 191.1,1365.3 L191,1394.8 L193.3,1396.4 C194.5,1397.3 204.7,1403.3 216,1409.8 C227.3,1416.3 239,1423.1 242,1424.9 C245,1426.7 248.1,1428.2 248.9,1428.2 C249.7,1428.3 253.3,1426.7 256.9,1424.7 Z M325.4,1316.8 C352.4,1301.8 369.6,1291.9 370.2,1290.9 C370.6,1290.3 371,1274.9 371,1256.6 L371,1223.4 L359.3,1216.5 C334.1,1201.7 316.2,1191.5 314,1190.8 C312.3,1190.3 306.2,1193.2 287.2,1203.8 C273.6,1211.4 260.4,1218.9 257.8,1220.5 L253,1223.5 L253,1256.8 L253,1290.2 L261.3,1295.1 C265.8,1297.8 274,1302.6 279.5,1305.8 C285,1309 294.4,1314.4 300.3,1317.9 C306.6,1321.5 311.8,1323.9 312.7,1323.6 C313.5,1323.3 319.2,1320.2 325.4,1316.8 Z M195.8,1319.6 C199.6,1317.5 212.6,1310.2 224.8,1303.3 L247,1290.8 L247.2,1274.8 C247.3,1266 247.4,1250.6 247.4,1240.5 L247.5,1222.2 L218.8,1205.7 L190,1189.1 L162.2,1204.7 C146.9,1213.3 133.5,1220.9 132.5,1221.7 C130.9,1222.9 130.7,1225.6 130.2,1255.9 L129.7,1288.9 L133.1,1291.1 C137.8,1294.3 187.3,1323.1 188.2,1323.2 C188.6,1323.3 192,1321.6 195.8,1319.6 Z M459.4,1309.6 C472.7,1302.1 485.9,1294.5 488.8,1292.6 L494,1289.3 L494,1257.3 L494,1225.4 L477.3,1215.5 C451.2,1200.1 436.8,1192 435.6,1192 C434.4,1192 403.4,1209 386.4,1218.9 C379.1,1223.2 377.1,1224.8 376.7,1227 C376.4,1228.6 376.1,1243.4 376,1260 L375.9,1290.2 L387.7,1297.1 C394.2,1301 406.3,1308 414.5,1312.8 C422.8,1317.6 429.9,1321.9 430.5,1322.4 C432.6,1324.4 436.3,1322.7 459.4,1309.6 Z M102.5,1302.2 L123.5,1290.5 L124.1,1284.2 C124.5,1280.7 124.8,1265.3 124.9,1250.1 L125.1,1222.4 L121.3,1220 C110.2,1213 68,1189.3 66.7,1189.3 C65.2,1189.3 30.4,1208.3 15.8,1217.1 L8.1,1221.8 L8,1243.3 C7.9,1255.1 7.8,1269.8 7.7,1276 C7.5,1284.9 7.8,1287.5 9,1288.6 C10.3,1289.8 32.8,1303 58.9,1318 L66.4,1322.2 L73.9,1318.1 C78.1,1315.8 91,1308.7 102.5,1302.2 Z M404,1203.1 C418.6,1194.9 431,1187.7 431.7,1187 C432.5,1186.1 432.9,1176.5 433.1,1153.1 C433.4,1121.5 433.4,1120.2 431.5,1118.4 C428.5,1115.6 377.6,1086.3 375.7,1086.3 C373.4,1086.3 319.9,1116.1 317.8,1118.5 C316.2,1120.3 316,1123.4 316,1152.7 C316.1,1184.7 316.1,1184.8 318.3,1186.4 C320.2,1187.8 367.2,1215.2 372.4,1218.1 C373.5,1218.6 375.1,1218.8 375.9,1218.5 C376.8,1218.2 389.4,1211.2 404,1203.1 Z M147.5,1207 C156.3,1202.1 168.8,1195.1 175.3,1191.5 L187,1184.9 L187,1169.4 C187,1160.8 187.3,1145.9 187.6,1136.3 C188.2,1120 188.1,1118.7 186.4,1117.2 C185.3,1116.3 176.9,1111.2 167.5,1105.8 C158.2,1100.4 145.6,1093.1 139.6,1089.6 L128.7,1083.2 L109.1,1094.1 C98.3,1100.2 85.2,1107.6 80,1110.6 L70.5,1116.1 L69.9,1129.9 C69.5,1137.6 69.2,1152.7 69.1,1163.5 L69,1183.2 L78.8,1189 C114.4,1210 127.6,1217.2 129.5,1216.6 C130.5,1216.3 138.6,1212 147.5,1207 Z M279.4,1202.2 C294.3,1193.9 307.2,1186.4 308.1,1185.5 C309.6,1184 309.8,1179.8 310.1,1151.4 L310.5,1119 L282.5,1102.6 C267.1,1093.6 253.7,1086.1 252.8,1085.8 C251.8,1085.4 244.4,1089 234.3,1094.6 C225.1,1099.8 212.8,1106.6 207,1109.8 C201.2,1113 195.7,1116.3 194.8,1117.1 C193.1,1118.5 193,1121.4 193,1151.3 C193,1176.3 193.3,1184.3 194.3,1185.1 C197.3,1187.5 249.6,1217.3 250.9,1217.3 C251.7,1217.3 264.5,1210.5 279.4,1202.2 Z" id="Shape"></path>
                <path d="M1297.2,1032.1 C1296.5,1031.4 1296,1030.6 1296,1030.2 C1296,1029.8 1298.8,1024.9 1302.3,1019.2 C1313.8,1000.4 1328.2,975.2 1327.8,974.8 C1327.6,974.5 1305.1,974.3 1277.9,974.3 L1228.5,974.2 L1227.8,990.5 C1227.5,999.5 1227.3,1012.1 1227.5,1018.5 C1227.8,1030.6 1227.3,1032.1 1223.5,1030.7 C1222.3,1030.2 1222,1025.7 1221.8,1001.9 L1221.5,973.8 L1173.3,973.5 C1146,973.4 1125,973.6 1125,974.1 C1125,974.6 1132,987.3 1140.6,1002.2 C1149.6,1018.1 1155.9,1030.1 1155.6,1031 C1154.1,1034.9 1150.9,1030.6 1136.1,1004.5 C1127.6,989.6 1120.4,977.3 1120.1,977.3 C1119.7,977.3 1112.3,989.5 1103.6,1004.3 C1094.9,1019.2 1087.3,1031.2 1086.7,1031 C1083.2,1029.9 1084.1,1027.4 1094.2,1010.3 C1107.3,988.2 1115,974.7 1115,973.9 C1115,973.6 1092.6,973.4 1065.3,973.5 L1015.5,973.8 L1015.2,1002.1 L1015,1030.4 L1012.4,1030.1 L1009.9,1029.8 L1010,980.8 C1010,929.4 1010.6,908.5 1012.1,906.7 C1012.6,906.1 1015.4,904.4 1018.3,902.9 C1031.4,896.1 1063,877.9 1063,877 C1063,876.5 1060,870.9 1056.3,864.4 C1052.7,858 1047.8,849.4 1045.5,845.3 C1039.8,834.9 1030.3,818.4 1020.2,801.4 L1011.7,787.1 L1013.9,782.9 C1015,780.7 1017.3,776.8 1018.8,774.3 C1020.4,771.8 1024.2,765.5 1027.2,760.3 C1030.2,755.1 1035.7,745.7 1039.4,739.5 C1043,733.3 1046,728.1 1046,727.9 C1046,727.7 1050.1,720.6 1055.1,712.3 C1060.1,703.9 1063.8,696.7 1063.3,696.3 C1062.9,695.8 1052.2,689.5 1039.5,682.3 C1026.9,675 1015.7,668.3 1014.8,667.5 C1013.1,666.1 1013,661.8 1013,604.8 C1013,552.2 1013.2,543.4 1014.5,542.3 C1018.3,539.2 1018.5,540.9 1018.5,571.4 L1018.5,600.8 L1067.3,601.1 C1094.1,601.2 1116,601 1116,600.6 C1116,599.8 1114.5,597.2 1095.1,562.9 C1084.8,544.8 1084,542.9 1085.4,541.5 C1087.6,539.2 1087.9,539.6 1100.2,561.8 C1115.9,590.1 1120.4,597.6 1121.4,597.5 C1122.2,597.5 1135.1,575.9 1148.7,551.6 C1154.5,541.4 1156.1,540 1158.3,543.5 C1159.1,544.7 1159,545.6 1157.9,546.9 C1156.3,548.8 1126.1,600.7 1126.4,601 C1126.5,601.1 1148.7,601.5 1175.8,601.8 L1225,602.4 L1225.1,578.1 C1225.2,540.3 1225,541.8 1228,541.8 L1230.5,541.8 L1230.5,571.8 L1230.5,601.8 L1279.8,602.1 C1306.8,602.2 1329,602 1329,601.7 C1329,600.4 1303.1,555.3 1298.3,548.1 C1296.2,545 1296,544 1297,542.8 C1299.1,540.3 1300.8,541.1 1303,545.3 C1305.1,549.3 1330.4,593.8 1333.1,598.1 C1333.8,599.3 1334.7,600.3 1335,600.3 C1335.3,600.3 1339.5,593.7 1344.2,585.6 C1361.4,556 1369,542.9 1369.2,542.1 C1369.7,540.8 1372.7,542.2 1373.4,543.9 C1373.7,544.7 1372.5,547.7 1370.6,550.6 C1361.7,564.7 1340.8,601.4 1341.4,602 C1341.8,602.4 1363.6,602.9 1390,603.1 L1438,603.4 L1438.1,596.6 C1438.2,592.9 1438.4,586.2 1438.6,581.8 C1438.8,577.4 1438.9,566.7 1439,558 L1439,542.2 L1441.3,542.5 L1443.5,542.8 L1443.1,605.3 C1442.7,675.9 1443.7,668.8 1434,674.1 C1427.3,677.8 1391.7,698.3 1391.3,698.7 C1391,699 1403.3,720.7 1404.9,722.7 C1405.4,723.3 1407.3,726.7 1409.2,730.3 C1414.1,739.3 1431.3,770.1 1436.7,779.5 C1440,785.3 1441,787.8 1440.5,789.5 C1440.1,790.8 1433.1,803.5 1425,817.8 C1416.9,832.1 1409.2,845.7 1407.9,848 C1406.6,850.4 1402.2,857.8 1398.3,864.6 C1394.3,871.4 1391,877.5 1391,878 C1391,879.4 1392.2,880.1 1417.4,894.9 C1429,901.7 1439.1,907.6 1439.9,908.1 C1441.1,908.8 1441.3,917.8 1441,966.3 C1440.7,1037.9 1441,1030.7 1437.9,1031.1 L1435.3,1031.4 L1435.8,1004 C1436.1,986.7 1435.9,976.4 1435.3,976 C1434,975.2 1338,973.8 1338,974.6 C1338,974.9 1340.4,979.4 1343.3,984.5 C1363.9,1020.2 1369.1,1029.5 1368.8,1029.8 C1368.7,1029.9 1367.6,1030.3 1366.4,1030.7 C1364.6,1031.2 1363.2,1029.2 1354.5,1014.1 C1340.6,989.6 1333.9,978.3 1333.1,978.3 C1332.8,978.3 1325.3,990.5 1316.5,1005.5 C1307.7,1020.4 1300,1032.8 1299.5,1033 C1298.9,1033.2 1297.9,1032.8 1297.2,1032.1 Z M1435.5,940.8 L1435.5,911.8 L1432.3,910.2 C1430.5,909.3 1428.5,908.1 1427.8,907.5 C1426.2,906.2 1388.1,883.3 1387.5,883.3 C1387.3,883.3 1383.3,889.9 1378.7,898.1 C1374.1,906.2 1363.2,925 1354.6,940 C1346,954.9 1339,967.6 1339,968.2 C1339,969.1 1375.1,969.8 1426.5,969.8 L1435.5,969.8 L1435.5,940.8 Z M1327.6,967.6 C1327.2,966.6 1322.5,958.2 1317.1,948.8 C1311.7,939.5 1301.3,921.5 1294,908.8 C1286.7,896.2 1280.2,885.2 1279.5,884.4 C1278.1,882.9 1278.6,882.7 1248,900 C1238.9,905.1 1230.8,909.7 1230,910.2 C1228.7,910.9 1228.5,915.4 1228.2,939.6 L1228,968.2 L1241.7,968.5 C1249.3,968.7 1271.9,968.9 1291.9,969.1 C1326.7,969.4 1328.2,969.4 1327.6,967.6 Z M1114.2,967.7 C1114.5,967.4 1107.8,955 1099.3,940 C1090.7,925 1079.9,906.1 1075.3,897.8 C1070.6,889.6 1066.6,882.6 1066.4,882.4 C1066.1,882.1 1064.3,882.9 1062.2,884.1 C1060.2,885.3 1051.2,890.5 1042.2,895.6 C1033.3,900.6 1024,905.9 1021.5,907.3 C1019.1,908.7 1016.8,910.1 1016.5,910.5 C1015.7,911.3 1014.5,964.7 1015.3,966.6 C1015.8,968 1021.5,968.2 1064.8,968.3 C1091.7,968.3 1113.9,968 1114.2,967.7 Z M1222,950.8 C1222.1,941.2 1222.1,928.5 1222.1,922.7 C1222.1,916.8 1221.8,911.7 1221.3,911.3 C1220.9,910.8 1218.9,909.6 1217,908.5 C1215.1,907.5 1205.2,901.8 1195.1,895.9 C1185,890 1176.2,884.9 1175.4,884.6 C1174.6,884.3 1172.1,887.8 1168.5,894 C1165.3,899.4 1158.2,911.5 1152.7,920.8 C1136.2,948.6 1134.5,951.5 1130.2,959 C1127.9,962.9 1126,966.6 1126,967.2 C1126,968 1140.4,968.3 1174,968.3 L1222,968.3 L1222,950.8 Z M1140.5,931.6 C1168.4,884.1 1169,883 1169,881.8 C1169,881.3 1160.1,875.7 1149.3,869.4 C1138.4,863.1 1128.2,857.2 1126.5,856.2 C1119.2,851.7 1120.7,851.3 1101.9,861.8 C1092.3,867.2 1081.7,873.1 1078.3,875 C1074.8,876.9 1071.8,878.9 1071.5,879.3 C1071.2,879.8 1073.7,885.1 1077.1,891 C1086.6,907.6 1095.7,923.7 1102.5,935.8 C1112.1,953.1 1119.4,965.3 1120.1,965.3 C1120.5,965.3 1129.7,950.1 1140.5,931.6 Z M1338.8,957.1 C1343.8,948.8 1360.5,919.7 1365.2,911.3 C1366.6,908.8 1371,901.2 1375,894.4 C1380.2,885.5 1382,881.6 1381.4,880.5 C1380.9,879.7 1377.7,877.6 1374.3,875.8 C1370.9,874 1366.8,871.6 1365.1,870.4 C1363.5,869.2 1362,868.3 1361.7,868.3 C1361.5,868.3 1355.2,864.9 1347.9,860.7 C1340.5,856.5 1334,853 1333.4,853 C1331.5,852.9 1284,879.7 1284,880.8 C1284,881.4 1285.8,885 1288.1,888.8 C1290.4,892.7 1300.3,910 1310.2,927.3 C1332.2,965.7 1332,965.3 1333,965.3 C1333.5,965.3 1336.1,961.6 1338.8,957.1 Z M1250,892.7 C1263.5,885.2 1274.8,878.8 1275.2,878.4 C1275.6,878.1 1271.8,870.6 1266.7,861.8 C1252.7,837.7 1237.7,811.8 1232.7,802.8 C1230.3,798.5 1227.9,794.8 1227.4,794.6 C1226.9,794.5 1219.8,805.9 1211.5,820.1 C1203.3,834.2 1194,850.1 1190.9,855.4 C1187.7,860.7 1183.3,868.3 1181.1,872.2 L1177.1,879.3 L1179.3,880.7 C1185.7,884.8 1224.1,906.2 1225,906.3 C1225.3,906.3 1236.6,900.2 1250,892.7 Z M1175,872.6 C1176.3,870.5 1180.5,863.2 1184.5,856.3 C1188.5,849.4 1198.5,832.2 1206.9,818.1 C1215.2,803.9 1222,791.9 1222,791.3 C1222,790.6 1205.3,790.3 1172.5,790.3 L1123,790.3 L1123,819.1 L1123,847.9 L1147.3,862.1 C1160.6,869.9 1171.8,876.3 1172.2,876.3 C1172.5,876.3 1173.8,874.6 1175,872.6 Z M1300.4,864.7 C1320.7,853.4 1329.1,848.4 1330.1,847.1 C1330.4,846.6 1330.7,833.9 1330.9,818.8 L1331.1,791.3 L1308.8,791.3 C1296.5,791.3 1274.5,791.1 1259.7,790.9 C1245,790.7 1232.8,790.8 1232.6,791.2 C1232.1,791.9 1238.9,804.1 1259.3,839.3 C1266.4,851.7 1274,864.8 1276.2,868.6 C1278.3,872.3 1280.4,875.3 1280.7,875.3 C1281,875.3 1289.9,870.5 1300.4,864.7 Z M1392.8,863.6 C1396.6,857.1 1400.8,849.9 1402.1,847.5 C1403.4,845.2 1410.7,832.5 1418.3,819.3 C1426,806.1 1432.4,794.4 1432.7,793.3 C1433.2,791.3 1432.8,791.3 1384.6,791.3 L1336,791.3 L1336,819.1 L1336,846.8 L1339.8,849.3 C1347.2,854.2 1383.5,875.2 1384.7,875.2 C1385.4,875.3 1389,870 1392.8,863.6 Z M1085.9,864.9 C1095,859.8 1105.7,853.7 1109.5,851.5 L1116.5,847.5 L1117.1,819.7 C1117.5,804.3 1117.5,791.5 1117.1,791.1 C1116.6,790.5 1066.9,790.1 1024.2,790.3 L1019.8,790.3 L1023.1,796.1 C1034.3,815.8 1051.5,846 1058.8,859.1 C1063.5,867.4 1067.8,874.3 1068.3,874.3 C1068.8,874.3 1076.7,870.1 1085.9,864.9 Z M1326.8,785.4 L1331,785.3 L1331,757.1 L1331,728.8 L1327.2,726.7 C1325.2,725.5 1314.4,719.3 1303.3,712.9 C1292.2,706.5 1282.7,701.3 1282.3,701.3 C1281.6,701.3 1279.1,705.4 1268.9,723.3 C1267.5,725.8 1260.2,737.9 1252.8,750.3 C1237.7,775.6 1233,783.8 1233,784.7 C1233,785.6 1280.7,786 1326.8,785.4 Z M1434,785.5 C1434,784.7 1412.4,746 1396,717.5 C1390.9,708.6 1386.4,701.4 1386.1,701.5 C1384.7,702.1 1356.9,717.9 1347.4,723.5 L1337.2,729.4 L1336.5,756.8 C1336.1,771.8 1336.1,784.6 1336.4,785.2 C1337.2,786.4 1434,786.8 1434,785.5 Z M1117.8,756.7 L1118,728.5 L1100.8,718.3 C1091.3,712.6 1080.3,706.1 1076.3,703.7 L1069.1,699.4 L1067.2,702.1 C1065.2,704.9 1058.9,715.7 1054.8,723.3 C1053.4,725.8 1045,740.1 1036.2,755.2 C1027.3,770.2 1020,783 1020,783.4 C1020,784.3 1045.8,784.8 1091,784.8 L1117.5,784.8 L1117.8,756.7 Z M1222,784.9 C1222,784.5 1202.9,751 1183,716.6 C1177.8,707.6 1173.3,700.3 1172.9,700.3 C1172.1,700.3 1160.8,706.6 1133.7,722.3 C1124.3,727.7 1124.2,727.9 1123.6,732.2 C1122.8,738.2 1122.8,783.8 1123.7,784.6 C1124.4,785.3 1222,785.6 1222,784.9 Z M1242.3,758.2 C1249.9,745.3 1257.4,732.6 1259,729.8 C1260.5,727.1 1265.2,719.2 1269.4,712.3 C1273.6,705.5 1277,699.4 1277,698.8 C1277,698.2 1267.2,692.2 1255.3,685.4 C1243.3,678.6 1232.3,672.2 1230.8,671.1 C1229.3,670.1 1227.8,669.3 1227.6,669.3 C1227.3,669.3 1218.1,674.3 1207.3,680.5 C1196.4,686.6 1185.4,692.8 1182.8,694.2 C1180.2,695.6 1178,697.1 1178,697.4 C1178,697.8 1181,703.3 1184.8,709.7 C1188.5,716.1 1193.8,725.3 1196.5,730.2 C1213.4,760.2 1226.6,782.3 1227.5,782 C1228.1,781.8 1234.7,771.1 1242.3,758.2 Z M1340.8,720.8 C1344.5,718.9 1355.4,712.9 1365,707.5 C1378.2,700 1382.5,697.1 1382.4,695.6 C1382.4,693.8 1374.4,679.5 1349.1,635.6 C1336.1,613 1335.7,612.3 1334.9,612.3 C1334.6,612.3 1327.5,624.1 1319,638.6 C1310.6,653 1302,667.5 1300,670.8 C1298,674.1 1293.7,681.1 1290.6,686.3 C1285,695.8 1285,695.8 1287.1,697.3 C1290.4,699.6 1331.6,723.3 1333.8,724.2 C1333.9,724.3 1337.1,722.7 1340.8,720.8 Z M1128.6,719.1 C1153.2,705.9 1170,695.7 1169.7,694.2 C1169.4,693.3 1165.4,685.9 1160.6,677.7 C1155.9,669.5 1145.3,651.1 1137.2,636.9 C1129.1,622.6 1122,610.8 1121.5,610.6 C1120.9,610.4 1118.3,614.2 1115.5,619.1 C1112.8,623.9 1105,637.3 1098.1,648.8 C1074.7,688.4 1071.9,693.5 1072.3,694.6 C1072.7,695.6 1107.8,716.6 1117.5,721.7 C1119.2,722.5 1120.5,723.2 1120.6,723.3 C1120.6,723.3 1124.2,721.4 1128.6,719.1 Z M1289.5,678.6 C1294.3,670.4 1299.3,662.2 1300.5,660.3 C1307,649.8 1330,609.5 1330,608.5 C1330,607.6 1317.9,607.3 1280.3,607.5 L1230.5,607.8 L1230.2,636 L1230,664.1 L1232.7,666.1 C1236.2,668.6 1279.3,693.3 1280.1,693.3 C1280.5,693.3 1284.7,686.7 1289.5,678.6 Z M1412.1,680.6 C1424.2,673.5 1435,667 1436.1,666 C1437.9,664.3 1438,662.7 1438,636.3 L1438,608.3 L1397.3,608.3 C1374.8,608.2 1354.3,608 1351.5,607.7 C1348.8,607.5 1344.9,607.5 1342.9,607.9 L1339.2,608.4 L1342.9,615.1 C1345,618.8 1351.7,630.6 1357.9,641.3 C1364.1,652 1372.3,666.3 1376,672.9 C1385,688.9 1387.8,693.3 1389.1,693.3 C1389.7,693.3 1400,687.6 1412.1,680.6 Z M1200,678.8 L1223.7,665.3 L1224.3,656.2 C1224.7,651.1 1225,638.1 1225,627.1 L1225,607.3 L1176,607.3 C1144.8,607.3 1127,607.7 1127,608.3 C1127,608.8 1133.6,620.8 1141.8,634.8 C1149.9,648.9 1157.2,661.6 1158,663.1 C1162.5,671.2 1173.5,690 1174.3,691.1 C1174.8,691.7 1175.5,692.3 1175.8,692.3 C1176,692.3 1186.9,686.2 1200,678.8 Z M1069.1,688.5 C1075.4,677.6 1087.3,657.2 1095.5,643.3 C1112.5,614.7 1116.2,608.2 1115.5,607.5 C1115.2,607.1 1093.2,606.8 1066.7,606.8 L1018.5,606.8 L1018.2,635 L1018,663.2 L1020.6,664.9 C1026.8,669 1065.6,691.3 1066.5,691.3 C1067.1,691.3 1068.2,690.1 1069.1,688.5 Z" id="Shape"></path>
                <path d="M896.1,1029.9 C895.2,1028.9 898.4,1022.7 911,1001.2 C919.8,986.1 927,973.3 927,972.6 C927,971.6 917.4,971.3 881.3,971.3 C856.1,971.2 811.5,971 782.3,970.6 C743.2,970.2 729,970.4 729,971.2 C729,971.8 736,984.5 744.5,999.4 C753,1014.2 760,1027 760,1027.8 C760,1030 756.6,1030.6 755.2,1028.6 C754.5,1027.6 746.7,1014.1 737.9,998.6 L721.9,970.3 L687,970.3 L652,970.3 L649.5,974.2 C647.6,977.3 623.2,1019.1 619.1,1026.3 C618.7,1027.1 617.2,1027.9 615.8,1028.1 C613.5,1028.4 612.7,1027.4 608.2,1019.1 C593.8,992.8 581.1,971.7 578.9,970.6 C577.1,969.6 568.5,969.4 544.5,969.6 L512.6,969.8 L505.1,982.3 C501,989.2 493.3,1002.2 488.1,1011.2 C482.8,1020.3 478,1027.8 477.4,1028 C476.9,1028.2 475.6,1027.8 474.7,1027.1 C473.1,1025.9 474.5,1023.3 489.1,998.9 C497.9,984.1 505.4,971.4 505.7,970.7 C506.1,969.6 503.1,969.3 490.8,969.1 L475.5,968.8 L475.2,965.9 L474.8,963.1 L491.9,963.8 L508.9,964.5 L513.3,957.7 C515.7,953.9 523.2,941.4 530,929.8 C536.7,918.3 542.7,908.3 543.2,907.6 C544.3,906.3 544.3,906.3 524.2,871.3 C516.8,858.4 510.3,847.5 509.6,847 C509,846.6 501.3,846.3 492.6,846.4 C477.2,846.6 476.6,846.5 475.9,844.5 C475.4,843.2 475.5,842.1 476.2,841.7 C476.8,841.3 483.7,841.1 491.6,841.2 C500.3,841.3 506,841.1 506,840.5 C506,839.5 497.3,823.9 482.2,797.6 C477.7,789.8 474,783.1 474,782.9 C474,782.6 478.9,774.1 484.9,764.1 C490.8,754 498.2,741.5 501.3,736.3 L506.8,726.8 L498.7,726.1 C494.2,725.7 487.5,725.6 483.8,725.8 C478.1,726.2 476.9,726 476.2,724.6 C474.1,720.6 475.4,720.3 493.3,720.3 L510.5,720.3 L514.1,714.5 C516.1,711.4 524,698.3 531.6,685.4 L545.4,662 L542.7,656.9 C539.4,650.6 513.2,605.2 512.4,604.4 C512.1,604.1 504.1,603.6 494.7,603.3 L477.5,602.8 L477.5,600.4 L477.5,597.9 L493.3,598.2 C501.9,598.3 509,598.3 509,598 C509,597.8 503.3,587.8 496.4,575.7 C475.4,539.3 476.5,541.4 478.4,539.5 C479.8,538.1 480.2,538.1 481.4,539.3 C482.2,540.1 489.8,553.2 498.3,568.3 C506.9,583.4 514.3,596.4 514.7,597.1 C515.3,598 523.8,598.5 548.6,598.9 L581.6,599.6 L591,583.7 C605.6,558.9 617,539.9 617.9,539 C619.5,537.4 622.3,541.8 637.3,568.3 C645.9,583.4 653.5,596.7 654.2,597.7 C655.6,599.5 657.6,599.7 688.7,600.1 L721.7,600.5 L723.8,597.6 C724.9,596 730.5,586.8 736.1,577.2 C741.7,567.6 748.9,555.3 752.2,549.8 C756,543.2 758.6,539.8 759.8,539.8 C761,539.8 764.7,545.5 772.1,558.3 C813.8,631.4 827.4,655 828.4,656 C829.3,657 833.6,650.3 847.5,626.5 C857.3,609.6 868.7,590.2 872.7,583.5 C876.8,576.7 883.5,565.2 887.7,558 C896.7,542.4 897.1,541.8 900.7,541.6 C903.4,541.4 904.3,542.8 919.9,570.4 C928.9,586.3 936.7,599.7 937.4,600.1 C938,600.5 945.9,601 955,601.3 C971.2,601.8 971.5,601.8 971.8,604.1 L972.1,606.3 L956.5,606.3 C944.3,606.3 940.9,606.6 941.3,607.6 C941.5,608.2 948,619.6 955.6,632.8 C974.9,666.5 973.6,663.3 971,668 C969.9,670.1 967.7,673.8 966.1,676.3 C964.5,678.8 957.5,690.3 950.6,701.8 L937.9,722.8 L953.2,723.3 C968.1,723.8 968.5,723.9 968.8,726.1 C969.2,728.7 970.5,728.5 949,728.3 L934.5,728.2 L932.9,731 C932.1,732.5 924.7,745.1 916.6,759 L901.8,784.2 L904.2,788.5 C915.8,809 934.6,841.1 935.8,842.5 C937,844 939.6,844.3 953.4,844.5 C968.7,844.8 969.5,844.9 969.5,846.8 C969.5,848.7 968.7,848.8 954.8,849.1 C946.6,849.2 940,849.6 940,850 C940,850.5 951.6,871.1 965,894.3 C972.9,907.9 972.6,906.3 967.6,914.5 C954,937.1 937.7,965.4 938.2,965.8 C938.4,965.9 945,966.3 952.9,966.7 C960.9,967 967.8,967.7 968.3,968.2 C968.8,968.7 969,969.9 968.7,970.7 C968.2,972 965.3,972.3 950.8,972.5 L933.5,972.8 L918.8,997.8 C910.7,1011.6 903.5,1023.9 902.8,1025.3 C901.3,1028.4 898.9,1031.3 898,1031.3 C897.6,1031.3 896.7,1030.7 896.1,1029.9 Z M617.9,1017.7 C618.5,1016.3 623.3,1008 628.4,999.4 C644,973.4 663.1,941 676.2,918.3 C683.1,906.5 694.9,886.4 702.4,873.6 C709.9,860.9 716,850 716,849.4 C716,848.6 709.3,848.3 693.8,848.3 C681.5,848.3 657.1,848.1 639.5,847.8 C570.1,846.7 517.3,846.3 516.8,846.9 C516.2,847.4 520,854.3 540.7,890.3 C549.8,906.2 561.7,927.1 601.3,997 C608.6,1009.8 615,1020.2 615.6,1020.3 C616.2,1020.3 617.2,1019.1 617.9,1017.7 Z M857.3,965.6 C857.8,964.7 828.6,913 827.3,912.6 C826.6,912.3 798,959.6 796.4,963.7 C795.9,964.9 797.1,965.3 803.2,965.6 C818.4,966.3 856.9,966.3 857.3,965.6 Z M933.1,963.5 C934,962 941.8,948.8 950.4,934.1 L966,907.3 L963.4,902.1 C959.3,893.9 935.9,853 934.2,851.1 C932.8,849.4 929.8,849.3 898,849.3 L863.3,849.3 L853.5,866.1 C836.1,895.8 831,904.8 831,905.9 C831,906.5 833.5,911.5 836.6,916.9 C839.7,922.4 846.2,933.9 851.1,942.5 C855.9,951.1 861,960 862.5,962.2 L865,966.3 L898.3,966.3 L931.5,966.3 L933.1,963.5 Z M718,964.3 C718,963.7 711.2,951.3 702.8,936.6 C689,912.3 687.6,910.2 686.3,911.9 C684.4,914.5 656,963 656,963.7 C656,964.6 662.8,964.8 690.8,965.1 C709.9,965.3 718,965.1 718,964.3 Z M796.9,952.5 C801,945.5 805.5,937.8 807,935.3 C815.4,921.4 824,906.4 824,905.8 C824,905.4 816.9,892.7 808.3,877.6 C797,857.8 791.9,849.8 790.2,849.2 C788.9,848.7 773.3,848.3 755.5,848.3 L723.2,848.3 L718.4,856.6 C715.8,861.1 708.5,873.5 702.2,884.2 L690.7,903.6 L692.9,908 C694.9,912.2 713.1,944.8 721.2,958.6 L725.1,965.3 L757.3,965.3 L789.5,965.3 L796.9,952.5 Z M575.8,963 C575.3,960.9 547.7,912.3 547,912.3 C546.2,912.3 517,961.9 517,963.3 C517,964 527,964.3 546.6,964.3 C570.1,964.3 576.1,964 575.8,963 Z M832.6,891.7 C834.8,887.9 840.7,878.1 845.5,869.8 C850.3,861.6 858.6,847.4 864,838.3 C869.4,829.2 879,812.8 885.5,801.8 C892,790.8 903.7,771 911.5,757.8 C927.2,731.4 928.3,729.3 927.8,728.8 C927.6,728.6 882.7,728.1 828,727.7 C734.6,727 728.7,727.1 729.3,728.7 C729.7,729.6 735.1,739.3 741.3,750.1 C747.6,760.9 753.8,771.8 755.2,774.3 C759.8,782.6 762.1,786.6 786.3,828.8 C799.5,851.9 813.1,875.8 816.6,881.8 C826.3,899.1 826.4,899.3 827.5,899 C828,898.8 830.3,895.5 832.6,891.7 Z M929.7,843.1 C929.3,841.9 920.8,827 905.4,800.6 C902.2,794.9 899.2,790.3 898.9,790.3 C898.5,790.3 892.7,799.6 886,811.1 C879.2,822.5 872.2,834.3 870.4,837.3 L867.1,842.8 L870.8,843.3 C872.8,843.7 887,844 902.4,844.1 C925.2,844.3 930.2,844.2 929.7,843.1 Z M737.1,814 C746.4,798.2 754,784.7 754,784 C754,783.3 749.2,774.5 743.4,764.3 C737.6,754.1 730.6,741.9 727.9,737.1 C725.1,732.3 722.6,728.2 722.2,727.9 C721.8,727.7 706.6,727.2 688.4,726.9 L655.3,726.3 L639.7,752.5 C631.1,767 623.6,780 622.9,781.5 C621.8,784 622.5,785.5 632.5,803 C638.4,813.3 646,826.4 649.3,832 L655.3,842.2 L664.4,842.5 C669.4,842.7 684,842.8 696.9,842.8 L720.3,842.8 L737.1,814 Z M788,842.7 C788,841.6 758.5,790.4 757.8,790.3 C757.5,790.3 754.1,795.6 750.3,802.1 C730.2,836 727,841.6 727,842.4 C727,842.9 740.3,843.3 757.5,843.3 C774.3,843.3 788,843 788,842.7 Z M582.2,838.6 C584.6,835.1 589.4,827.1 607.8,796 C611.8,789.3 614.6,783.5 614.3,782.5 C614.1,781.6 607,768.9 598.7,754.3 C586.6,733.4 582.9,727.7 581,727.2 C579.6,726.8 563.9,726.5 546,726.4 L513.5,726.3 L505,740.6 C489.4,767 482.5,778.8 481.2,781.3 C479.7,784.2 477.7,780.1 500.7,820.3 L512.5,840.8 L532,841.3 C542.7,841.6 557.8,841.9 565.6,842.1 L579.7,842.4 L582.2,838.6 Z M645.9,836.6 C629.6,807.9 619.2,790.1 618.5,790 C617.5,789.8 588,839.2 588,841.1 C588,842 594.8,842.3 618.6,842.3 L649.1,842.3 L645.9,836.6 Z M633.3,753.1 C649.3,726 681.4,671.3 685.3,664.3 C686.6,661.8 694.8,647.7 703.5,633 C712.1,618.2 719,606 718.8,605.8 C718.6,605.6 684.9,605.2 644,604.9 C603,604.5 558.4,604 544.8,603.7 C529.7,603.4 520,603.6 519.6,604.1 C519.3,604.7 521,608.4 523.4,612.4 C528.3,620.6 605.6,755.9 612.9,769 C615.4,773.6 617.8,777.3 618.2,777.3 C618.6,777.3 625.4,766.4 633.3,753.1 Z M860,722.1 C860,721.3 859.6,720.3 859.1,719.8 C858.6,719.2 857.1,716.8 855.7,714.3 C846.3,697.3 830.1,669.8 829.4,669.6 C828.9,669.5 825.8,673.9 822.5,679.6 C819.2,685.2 812.6,696.5 807.7,704.6 C802.9,712.7 798.7,720 798.4,720.8 C797.7,722.6 799.6,722.7 833.3,723.1 C855.6,723.4 860,723.3 860,722.1 Z M947.8,696.6 C956.6,681.8 964.5,668.4 965.3,666.7 C966.9,663.6 966.9,663.5 959.1,649.7 C942.3,619.5 935.8,608.4 934.7,607.5 C934,606.9 919.5,606.3 899.7,606 L866,605.6 L862.8,610.7 C854.6,623.9 833,662 833,663.2 C833,664.7 863.3,718.5 865.8,721.6 C867.2,723.2 870.1,723.3 899.6,723.3 L931.8,723.3 L947.8,696.6 Z M718.2,721.7 C718.5,721.4 716.4,717 713.6,712 C697,682.7 689.5,670.3 688.7,670.6 C687.7,670.9 659,719.1 659,720.5 C659,720.9 664.7,721.4 671.8,721.6 C698.2,722.2 717.7,722.3 718.2,721.7 Z M792.6,720 C793.2,718.8 801,705.5 809.9,690.5 L826,663.3 L823.9,659 C818.4,648.2 794.7,607.7 793.2,606.5 C792,605.6 784,605.3 758.6,605.5 L725.6,605.8 L711.9,628.8 C697.9,652.3 692.7,661.8 692.7,663.8 C692.7,666.3 724.6,720.6 726.5,721.4 C727.6,721.8 742.7,722.2 760,722.2 L791.5,722.3 L792.6,720 Z M578.7,719.9 C578.4,719.2 572.6,708.9 565.9,697.2 C559.2,685.4 552.7,674.1 551.6,672.1 C550.4,670 549.1,668.3 548.5,668.4 C548,668.4 540.7,680 532.4,694.3 L517.2,720.2 L520.4,720.6 C522.1,720.8 536,721.1 551.4,721.1 C574.7,721.3 579.1,721.1 578.7,719.9 Z M930.3,600.6 C930.6,600.2 927.9,594.6 924.3,588.3 C902.8,550.6 900.7,547.2 899.7,548.2 C899.1,548.8 892,560.7 883.9,574.5 L869.2,599.8 L882.8,600.3 C908.4,601.2 929.8,601.4 930.3,600.6 Z M790,599.8 C790,599.5 781.4,584.4 764.5,555 C762.3,551.3 760.2,548.4 759.7,548.6 C758.5,549 730.1,597.4 730,599.1 C730,600 736.6,600.3 760,600.3 C776.5,600.3 790,600.1 790,599.8 Z M648,598.6 C648,597.2 619.7,548.3 618.9,548.3 C618.5,548.3 614.9,553.8 611,560.6 C607,567.3 600.5,578.5 596.4,585.4 C592.3,592.3 589,598.2 589,598.6 C589,599 602.3,599.3 618.5,599.3 C634.7,599.3 648,599 648,598.6 Z" id="Shape"></path>
                <path d="M286.7,1024.5 C285.8,1023.5 285,1022.4 285,1022.1 C285,1021.8 278.1,1009.5 269.6,994.7 C257.8,974.1 253.7,967.7 251.9,967.2 C250.6,966.8 235,966.5 217.4,966.4 L185.2,966.3 L183.8,968.6 C183,969.8 180.6,974 178.5,977.8 C176.4,981.7 172.1,989.1 169,994.3 C165.9,999.5 160.7,1008.4 157.5,1014.1 C151.8,1024.1 151.7,1024.3 148.1,1024.3 C144.7,1024.3 144.2,1023.9 142.1,1019.6 C140.8,1016.9 135.3,1006.9 129.7,997.3 C124.2,987.7 118,976.9 116.1,973.4 C114.1,969.9 111.6,966.7 110.5,966.3 C109.4,965.9 94,965.4 76.4,965.4 L44.3,965.2 L42.4,968 C41.4,969.5 34.2,981.8 26.4,995.3 C8.6,1026 9.3,1024.9 7,1022.8 C5.3,1021.3 6,1020 19.3,997.5 C27,984.5 34.4,972 35.6,969.8 L37.9,965.8 L22.7,965.3 L7.5,964.8 L7.2,962 L6.9,959.2 L23.8,959.9 L40.6,960.6 L46.2,951.7 C49.3,946.8 57,933.7 63.4,922.5 L75,902.2 L73.4,899 C70.7,893.8 45.9,850.1 43.4,846.1 L41,842.3 L24.3,842.1 C7.7,841.8 7.5,841.8 7.2,839.6 C7,838.2 7.4,837.3 8.2,837.3 C8.9,837.2 15.9,837.2 23.8,837.3 L38.1,837.4 L36.9,835.1 C36.3,833.8 29.8,822.5 22.5,809.8 C15.2,797.2 8.3,784.9 7.1,782.5 L4.9,778.2 L21.5,750.5 L38.1,722.8 L22.8,722.3 L7.5,721.8 L7.5,719.3 L7.5,716.8 L24.6,716.5 L41.6,716.3 L52.4,698 C58.4,688 66.2,674.9 69.7,669 C74.5,660.8 75.9,657.7 75.4,656 C75,654.8 70.4,646.4 65.2,637.3 C60,628.2 53.2,616.4 50.1,610.9 C46.4,604.3 43.7,600.8 42.1,600.1 C40.7,599.6 33.3,599.3 25.6,599.3 C17.8,599.4 10.9,599.4 10.3,599.3 C9.6,599.3 9,598.2 9,596.8 C9,595.4 9.6,594.3 10.3,594.3 C10.9,594.2 17.9,594.2 25.8,594.3 C33.6,594.3 40,594.2 40,593.9 C40,593.4 29.8,575.3 18.3,555.3 C7.9,537.3 7.1,535.6 8.3,534.4 C11,531.7 11.3,532.1 28.5,562.8 C34.3,573.1 46.1,593.7 46.3,594 C46.5,594.1 61.4,594.5 79.6,594.9 L112.7,595.6 L119.6,583.9 C132.4,562.2 143.2,543.8 145.7,539.1 C150.2,530.5 150.4,530.6 169.9,564.7 L187.3,595.1 L191.8,595.7 C194.3,596 209.6,596.3 225.9,596.3 L255.6,596.3 L260.2,588.6 C262.7,584.3 270.1,571.7 276.6,560.6 C283.2,549.5 289.3,539 290.2,537.3 C291.6,534.8 292.3,534.4 293.7,535.2 C294.7,535.7 299.2,542.6 303.6,550.5 C324.6,587.4 329.1,594.9 331.2,596 C332.9,596.9 341.9,597.3 365.1,597.3 L396.8,597.3 L403.7,585.6 C407.6,579.1 413.3,569.3 416.5,563.8 C419.7,558.3 424.2,550.5 426.6,546.6 C429,542.6 431,538.9 431,538.4 C431,537.9 431.6,537 432.4,536.4 C433.5,535.5 434.2,535.6 435.4,536.8 C436.3,537.7 437,538.7 437,539 C437,539.6 431.3,549.3 412.9,580.3 C407.5,589.3 403.2,596.9 403.4,597.1 C403.7,597.3 410.3,597.7 418.2,598 C426,598.2 432.9,598.9 433.4,599.3 C433.9,599.8 434,600.9 433.7,601.7 C433.2,603.1 430.6,603.3 416.2,603.3 L399.3,603.3 L395.3,610.1 C371.5,650.6 367,658.5 367,659.7 C367,660.8 396.2,712.7 399.7,717.9 C400.2,718.6 406.2,719.3 415.5,719.7 C423.8,720.1 430.9,720.8 431.3,721.2 C431.7,721.6 431.8,722.8 431.4,723.7 C430.8,725.3 429.4,725.4 417.9,725.2 C410.8,725 404.8,725.1 404.5,725.4 C404.2,725.7 409.9,736.3 417.2,748.9 C424.4,761.5 431.5,773.9 432.9,776.4 L435.4,781 L432.9,785.9 C431.5,788.6 426,798.2 420.6,807.3 C406.5,830.9 402,838.7 402,839.5 C402,839.9 408.6,840.4 416.8,840.5 L431.5,840.8 L431.5,843.3 L431.5,845.7 L414.9,845.6 L398.3,845.4 L381.1,874.3 L363.8,903.2 L379.7,931.3 C388.4,946.7 396.3,960.3 397.3,961.3 C398.9,963.1 400.5,963.3 415,963.3 L431,963.3 L431,965.8 L431,968.3 L416.5,968.3 C406.4,968.3 402,968.6 402,969.4 C402,970 408.8,982.4 417.1,997 C425.7,1012 431.9,1024 431.6,1024.8 C430.9,1026.8 427.4,1026.7 426.6,1024.6 C426.2,1023.7 418.9,1010.6 410.4,995.6 C396.2,970.7 394.6,968.3 392.2,968.3 C390.7,968.2 375.3,968 357.9,967.7 L326.2,967.1 L319.8,978.5 C313.6,989.3 293,1024.7 292.7,1024.9 C291.1,1026.2 288,1026 286.7,1024.5 Z M305.4,992.5 C312.9,979.8 319,968.8 319,968.3 C319,967.7 308.5,967.3 289.9,967.3 C262.6,967.3 260.8,967.4 261.4,969.1 C261.8,970 268.2,981.5 275.7,994.6 C286.9,1014.3 289.5,1018.2 290.6,1017.1 C291.3,1016.4 298,1005.3 305.4,992.5 Z M164.3,991.7 L179,966.8 L149.4,966.5 C133,966.4 119.5,966.5 119.2,966.8 C118.9,967 123.6,975.7 129.5,986 C135.5,996.4 142,1007.6 143.9,1011 C145.9,1014.5 148,1017.1 148.5,1017 C149.1,1016.8 156.1,1005.4 164.3,991.7 Z M390.8,961.9 C390.2,959.7 361.5,909.3 360.9,909.3 C360.5,909.3 355.8,916.8 350.4,926.1 C345.1,935.3 338.3,946.8 335.3,951.7 C332.4,956.6 330,961 330,961.4 C330,961.9 342.3,962.4 357.3,962.5 C372.2,962.7 386,962.9 387.8,963 C389.9,963 391,962.7 390.8,961.9 Z M340.1,933.3 C349.4,917.6 356.9,904.1 357,903.3 C357,901.9 352.8,894.3 332.1,857.8 C328.6,851.8 325.1,846.2 324.2,845.6 C323,844.6 314.6,844.3 289.9,844.3 L257.2,844.3 L251.2,854.1 C242.5,868.3 228.3,892.8 225.6,898.2 L223.3,902.8 L232.4,918.9 C237.4,927.7 244.9,940.9 249,948.1 L256.5,961.2 L264.5,961.6 C268.9,961.8 283.9,961.9 297.9,961.9 L323.3,961.8 L340.1,933.3 Z M184.3,957.6 C187.6,952.6 207.1,919.8 212.1,910.7 C214.2,906.8 216,903 216,902.2 C216,900.4 184.4,845.2 182.7,844.1 C182.1,843.7 166.7,843.4 148.6,843.6 L115.6,843.8 L110.2,852.8 C95.1,877.6 82,900.9 82.2,902.4 C82.4,903.3 89.7,916.7 98.5,932.1 L114.5,960.2 L124.5,960.5 C130,960.7 145.1,960.9 158.1,961.1 L181.7,961.3 L184.3,957.6 Z M250,960.9 C250,960.7 246.7,954.7 242.7,947.7 C238.6,940.6 232,928.9 227.9,921.6 C223.8,914.3 220.3,908.3 220,908.3 C219.4,908.3 189.6,958.1 189.2,960 C188.9,961.1 194.3,961.3 219.4,961.3 C236.2,961.3 250,961.1 250,960.9 Z M107.8,959.5 C106.5,956.2 78.7,908.3 78.1,908.3 C77.7,908.3 75.2,912 72.6,916.6 C56.8,943.3 48,958.7 48,959.4 C48,959.9 61.5,960.3 78.1,960.3 C94.6,960.3 108,959.9 107.8,959.5 Z M375.8,872.6 C383.6,859.5 390.2,848.1 390.5,847.1 C391.1,845.6 388.6,845.5 361.8,845.1 C345.7,844.9 332.2,845 331.8,845.3 C331.2,845.8 340.8,863.2 358,893 C359.4,895.3 360.7,897 361.1,896.7 C361.4,896.5 368.1,885.6 375.8,872.6 Z M233.8,873.5 C250.4,845.5 250.5,845.4 249.9,844.9 C249.2,844.2 194.6,843.5 192.3,844.2 C190.2,844.8 190.9,846.2 204.8,870.5 C212.8,884.6 219.8,895.9 220.2,895.7 C220.6,895.4 226.7,885.5 233.8,873.5 Z M94.3,869.8 C102.4,856.2 109,844.7 109,844.3 C109,842.9 50.2,841.5 48.8,842.8 C48.5,843.1 50.5,847.6 53.4,852.7 C69,880.8 77.6,895.3 78.5,895 C79.1,894.8 86.1,883.5 94.3,869.8 Z M400.6,830.6 C403.8,825.2 411.4,812.2 417.7,801.6 C423.9,791.1 429,781.8 429,781 C429,780.2 422,767.5 413.6,752.7 C400.1,729.3 397.7,725.7 395.3,725.2 C393.8,724.8 378,724.5 360.4,724.4 L328.2,724.3 L325.2,729.1 C320.2,737 303,766.3 298.7,774.4 L294.6,781.9 L300.2,791.9 C308.7,807 309.6,808.7 318.7,824.5 L327.2,839.2 L335.4,839.6 C339.8,839.7 355.1,840 369.2,840.1 L394.9,840.3 L400.6,830.6 Z M262.5,825.1 C267.3,817.2 275,804.3 279.7,796.4 L288.2,782 L286.2,778.4 C277.4,762.3 255.5,724.7 254.6,724.1 C254,723.7 238.4,723.3 220,723.3 L186.5,723.3 L171.1,749.4 C162.7,763.7 155.3,776.7 154.7,778.2 C153.8,780.6 154.2,781.8 157.1,786.9 C159,790.1 161.6,794.9 163,797.4 C164.4,799.9 170.2,810.1 175.9,820.1 L186.4,838.3 L209.9,838.6 C222.9,838.7 238.1,838.9 243.7,839.1 L253.9,839.3 L262.5,825.1 Z M321,838.9 C321,837.2 292.2,788.3 291.2,788.3 C290.8,788.3 287.7,792.9 284.4,798.6 C281,804.2 274.6,814.9 270.2,822.3 C265.7,829.7 261.8,836.6 261.4,837.6 C260.8,839.2 262.6,839.3 290.9,839.3 C307.5,839.3 321,839.1 321,838.9 Z M113.2,836.6 C114,835.6 122,822.6 130.9,807.6 L147,780.4 L144.9,776.6 C143.7,774.5 140.5,769 137.8,764.3 C135,759.6 130.4,751.8 127.5,746.8 C124.6,741.9 120.3,734.4 117.9,730.3 L113.5,722.8 L78.8,722.5 L44.2,722.3 L37.2,734 C24.1,756.3 13.3,774.8 12.2,776.9 C11.3,778.7 11.8,780.3 15.6,786.9 C18.1,791.2 23.4,800.4 27.3,807.3 C31.2,814.2 35.3,821.2 36.2,822.8 C37.2,824.5 39.1,827.9 40.4,830.4 C41.7,832.9 43.5,835.5 44.3,836.1 C45.2,836.9 53.4,837.4 70.6,837.6 C84.3,837.7 99.1,837.9 103.6,838.1 C110.3,838.3 112,838 113.2,836.6 Z M177.8,834.1 C176.4,831.7 169.8,820 163,808.1 C156.1,796.1 150.3,786.3 150,786.3 C149.5,786.3 133.7,812.3 123.7,829.5 C121.6,833.2 120.1,836.7 120.5,837.3 C120.9,837.9 131.6,838.3 150.7,838.3 L180.2,838.3 L177.8,834.1 Z M292.8,774.1 C294,772.6 315.1,737.2 319.3,729.6 L322.2,724.3 L307.8,724.2 C299.9,724.2 286.4,724 277.8,723.7 C265.1,723.2 262,723.4 262,724.5 C262,725.2 263.6,728.5 265.6,731.8 C267.6,735.1 270.5,739.9 271.9,742.4 C285.5,766.7 290.6,775.3 291.1,775.3 C291.5,775.3 292.2,774.7 292.8,774.1 Z M162.8,754.1 C179.4,725.8 180.3,724.3 179.7,723.7 C179.4,723.4 166.1,722.9 150.1,722.6 C125.2,722.1 121,722.2 121,723.4 C121,724.2 127.3,735.7 135,748.8 C142.7,762 149,773.1 149,773.5 C149,776.4 152.3,771.8 162.8,754.1 Z M327.2,715.6 C328.6,713.5 333.1,706 337.2,698.8 C341.3,691.7 348.2,679.8 352.4,672.6 L360.2,659.3 L355.8,651.6 C353.3,647.3 346.5,635.3 340.5,624.8 C334.6,614.4 329,605 328.1,604 C326.6,602.4 323.4,602.3 292.5,602 L258.5,601.8 L241.8,629.8 C232.7,645.2 225.1,658.5 225.1,659.4 C225,660.2 232.3,673.7 241.3,689.4 L257.6,717.8 L278.5,718.3 C290.1,718.6 305.2,718.9 312.1,719.1 L324.7,719.4 L327.2,715.6 Z M394,718.8 C394,718.5 387.2,706.3 378.8,691.6 C365.2,667.6 363.6,665.2 362.3,666.8 C361.6,667.9 356.5,676.4 350.9,685.7 C345.3,695.1 338.8,706.1 336.4,710.2 C334,714.2 332,717.9 332,718.4 C332,718.9 345.7,719.3 363,719.3 C380.1,719.3 394,719.1 394,718.8 Z M251,717.4 C251,716.9 247.9,711.2 244.2,704.6 C221.5,665.1 221.6,665.3 220.4,666.5 C218.5,668.7 191,715.9 191,717.1 C191,718 198.7,718.3 221,718.3 C238.2,718.3 251,717.9 251,717.4 Z M110,716.8 C110,715 79.6,663.3 78.9,664 C78.5,664.4 71.4,676.3 63.1,690.3 C48.9,714.4 48.1,715.8 50.3,716.5 C52.9,717.2 110,717.5 110,716.8 Z M188.3,710.1 C191.9,704.1 216.4,662.5 217.7,660.1 C217.9,659.7 216.9,657.5 215.6,655.1 C202.3,631.6 187.2,605.3 185.7,603.3 L184,600.8 L149.8,600.8 L115.7,600.8 L99.8,627.8 C91.1,642.7 83.7,655.6 83.4,656.5 C83,657.8 107.3,702 115.6,715.1 L117,717.3 L150.5,717.3 L183.9,717.3 L188.3,710.1 Z M230,639.8 C247.7,610 252.2,602.2 251.8,601.7 C251.5,601.5 237.8,601.4 221.2,601.5 L191.2,601.8 L203.7,623.8 C210.6,635.9 217.2,647.5 218.4,649.5 C219.6,651.6 220.9,653.2 221.4,653 C221.9,652.8 225.7,646.9 230,639.8 Z M372.3,639.1 C390.2,608.7 392.9,604 392.4,603.1 C392.1,602.7 378.8,602.3 362.8,602.3 C335.7,602.3 333.8,602.4 334.4,604 C334.8,605 339.7,613.6 345.2,623.3 C350.8,632.9 356.9,643.6 358.9,647.1 C360.8,650.5 362.7,653.3 363.1,653.3 C363.5,653.3 367.6,646.9 372.3,639.1 Z M89.1,636 C93.6,628.2 99.9,617.4 103.1,612 C106.4,606.6 109,601.8 109,601.3 C109,600.3 54,599.4 51.6,600.3 C50.6,600.7 54.5,608.2 64.7,626 C72.7,639.9 79.6,651 80.1,650.8 C80.5,650.5 84.6,643.9 89.1,636 Z M323,596.2 C323.7,595.3 293.8,543.3 292.9,543.8 C291.8,544.5 263.8,592.2 263.3,594.4 C262.8,596.2 263.8,596.3 283.6,596.5 C314.6,596.9 322.4,596.9 323,596.2 Z M181,594.8 C181,594.1 152.1,544 151.1,543 C150.6,542.6 148.5,545.3 146.3,549 C144.1,552.7 138.4,562.6 133.5,570.8 C128.7,579.1 123.7,587.5 122.4,589.5 C121.1,591.6 120,593.7 120,594.3 C120,595 130.4,595.3 150.5,595.3 C167.3,595.3 181,595.1 181,594.8 Z" id="Shape"></path>
                <path d="M1071.6,496.2 C1070.7,494.9 1064.1,483.6 1057,471.1 C1043.7,447.7 1039.3,440.3 1038.6,440.3 C1038.2,440.3 1031.3,451.9 1013.9,481.3 C1004.5,497.3 1004.6,497.2 1002.4,495.1 C1000.8,493.6 1001.3,492.5 1010.7,476.6 C1032.9,439.3 1035.2,435.2 1034.7,433.4 C1034.5,432.4 1028,420.9 1020.4,407.9 C1000.9,374.7 1001,375 1001,373.2 C1001,371.3 1001.8,369.8 1019.4,339.6 C1027.1,326.5 1033.8,314.9 1034.4,313.8 C1035,312.7 1040.2,303.9 1045.9,294.3 C1051.6,284.7 1059.1,271.9 1062.6,265.9 C1066.2,259.9 1068.9,254.9 1068.7,254.6 C1068.4,254.4 1053.9,254 1036.4,253.7 C1018.9,253.5 1004.2,252.9 1003.8,252.5 C1003.3,252 1003.2,251 1003.5,250.2 C1003.9,249 1009.6,248.8 1038.2,248.8 L1072.3,248.8 L1081.3,233.8 C1093.1,214.1 1105,193.5 1105,192.8 C1105,192.5 1082.3,192.3 1054.5,192.3 L1004,192.3 L1004,189.8 L1004,187.3 L1019.5,187.3 C1028,187.3 1035,187.1 1035,186.9 C1035,186.6 1019,158.2 1011.1,144.5 C1009.1,141 1006.3,136.1 1004.9,133.5 L1002.2,128.8 L1004.5,124.8 C1005.7,122.6 1013.6,109.3 1022,95.3 C1030.4,81.3 1037.3,69.1 1037.2,68.3 C1037.1,66.9 1030.6,55.3 1014.7,28.3 C1004.8,11.6 1003.3,8.4 1005,7.2 C1006,6.5 1073.8,6.3 1217.5,6.8 C1446.8,7.4 1433.6,7.1 1430,12.6 C1429.2,13.8 1421.5,27 1412.9,41.8 C1404.3,56.7 1396.1,70.6 1394.7,72.8 C1385,88.5 1363,126.6 1363,127.7 C1363,128 1377.9,128.3 1396,128.3 L1429,128.3 L1429,130.8 L1429,133.3 L1394.1,133.3 L1359.2,133.3 L1343.5,160.3 C1334.8,175.2 1327.9,187.6 1328.2,187.8 C1328.4,188.1 1351.1,188.4 1378.6,188.5 L1428.5,188.8 L1428.8,191.3 L1429.1,193.8 L1414.4,193.5 C1406.4,193.3 1399.4,193.5 1398.9,194 C1398.5,194.4 1405.3,207.6 1414,223.3 C1431.1,253.9 1431.2,254.2 1427,260.3 C1426.1,261.7 1418.9,274.2 1411,288.2 C1397.7,311.7 1396.7,313.8 1397.7,316.4 C1398.3,317.9 1405.8,331.6 1414.5,346.7 C1428.7,371.6 1430,374.4 1428.9,376.5 C1428.3,377.8 1421.2,390.3 1413.2,404.3 C1405.2,418.3 1397.9,431.3 1396.8,433.1 C1395.8,435 1391.4,442.4 1387.1,449.6 C1382.7,456.9 1375.1,470 1370.1,478.8 C1359,498.5 1358.8,498.8 1356.7,498 C1354.5,497.2 1354.5,494.2 1356.8,491.2 C1358.9,488.5 1385.6,442.7 1386.5,440.1 C1387.3,438.1 1384.5,437.9 1350,437.5 C1327.3,437.2 1325.3,437.3 1323.8,439 C1321.8,441.2 1291,493.1 1291,494.2 C1291,494.6 1290.2,495.7 1289.3,496.5 C1286.4,499.1 1283.6,497 1279.2,489.1 C1267.3,468.1 1251.2,440.9 1250.4,440.6 C1249.9,440.4 1242.3,452.5 1233.5,467.4 C1224.7,482.2 1216.8,495.3 1216,496.4 C1214.5,498.4 1214.4,498.4 1212.8,496.6 C1211.2,494.9 1211.4,494.2 1216.9,485.3 C1229.9,463.8 1244.9,438.5 1246,436.2 C1247.2,433.5 1247.2,433.6 1220.6,387.5 C1217.9,382.9 1215.4,379.5 1215,380 C1214.5,380.4 1207.3,392.5 1198.9,406.8 C1190.5,421.1 1182.3,435 1180.6,437.7 C1178.9,440.3 1170.2,455 1161.3,470.2 C1152.4,485.4 1144.6,497.8 1143.9,497.8 C1143.3,497.8 1142.3,497.1 1141.8,496.3 C1141.1,495.2 1143.2,490.8 1149.8,479.8 C1167.1,450.8 1172.9,440.8 1173.6,439 C1174.2,437.4 1172.4,437.3 1142,437.5 L1109.9,437.8 L1093.5,465.8 C1084.5,481.2 1076.3,494.9 1075.2,496.2 L1073.3,498.6 L1071.6,496.2 Z M1293.1,480.2 C1315.3,443 1319.2,436.1 1318.6,434 C1318.3,432.8 1311.2,419.7 1302.7,404.8 C1290.7,383.8 1286.8,377.7 1284.9,377.2 C1281.5,376.2 1221,376.1 1221,377.1 C1221,378 1235.8,404.1 1246.3,421.8 C1250.3,428.4 1256.2,438.6 1259.5,444.5 C1277.7,476.9 1285.6,490.2 1286.5,490 C1287,489.8 1290,485.4 1293.1,480.2 Z M1089.9,462 C1098.4,447.6 1105.3,435 1105.2,434.1 C1105.1,432.3 1075.8,380 1073.2,377.1 C1071.8,375.5 1068.9,375.3 1039.8,375.3 C1022.3,375.3 1008,375.6 1008,375.9 C1008,376.2 1009.6,379.2 1011.7,382.6 C1027.9,410 1041.9,434.4 1065.6,476 C1069.4,482.7 1073,488.3 1073.5,488.3 C1074.1,488.3 1081.4,476.5 1089.9,462 Z M1391.6,431.1 C1392.8,429.8 1398.4,420.5 1404.2,410.3 C1422.3,378.4 1422.2,378.6 1420.5,378 C1419.7,377.6 1396,377.4 1367.8,377.3 C1339.6,377.3 1312.9,377 1308.5,376.7 C1304.1,376.4 1298.8,376.5 1296.8,377 L1293,377.8 L1308.4,404.8 L1323.8,431.8 L1345.1,432.3 C1356.9,432.6 1371.7,432.9 1378,433.1 C1389,433.4 1389.7,433.3 1391.6,431.1 Z M1194,405.4 C1202.8,390.6 1210,378 1210,377.4 C1210,376.6 1199.4,376.3 1171.8,376.3 C1150.7,376.3 1121.5,376 1106.8,375.6 C1084.1,375.1 1080,375.2 1080,376.4 C1080,377.2 1084,384.8 1088.8,393.3 C1093.6,401.8 1100.4,413.8 1103.9,420 C1107.4,426.2 1110.9,431.4 1111.8,431.6 C1112.8,431.9 1128,432.1 1145.7,432.2 L1177.9,432.3 L1194,405.4 Z M1352,371.5 C1352,370.5 1337.9,345.1 1327.9,328.1 L1320.9,316.3 L1286.7,316.3 L1252.4,316.3 L1245.5,328.1 C1225.9,361.1 1221,369.7 1221,370.4 C1221,370.9 1237.1,371.4 1256.8,371.5 C1276.4,371.7 1305.9,371.9 1322.3,372.1 C1339.8,372.3 1352,372.1 1352,371.5 Z M1422,371.1 C1422,369.9 1394.1,319.7 1390.9,315.1 C1389.8,313.7 1389,312.2 1389,311.8 C1389,311.5 1383.3,301.4 1376.3,289.5 C1369.4,277.6 1362.5,265.7 1361.1,263.1 C1359.7,260.5 1358.1,258.5 1357.5,258.6 C1357,258.8 1353,265 1348.7,272.4 C1344.3,279.8 1337.5,291.5 1333.4,298.4 C1329.3,305.3 1326,311.8 1326,312.9 C1326,315.3 1356.4,369.2 1358.8,371.1 C1361,372.8 1422,372.9 1422,371.1 Z M1139,370.4 C1139,368.9 1115.7,327.8 1109.6,318.6 L1107.5,315.3 L1073.8,315.3 L1040.1,315.3 L1038.2,318.1 C1033.7,324.5 1009,368 1009,369.4 C1009,369.9 1030.5,370.4 1056.8,370.5 C1083,370.7 1112.3,370.9 1121.8,371.1 C1132.2,371.3 1139,371 1139,370.4 Z M1210,370.2 C1210,369.6 1202,355.3 1192.1,338.5 C1182.3,321.6 1168.4,297.5 1161.2,284.8 C1154,272.2 1147.5,260.9 1146.7,259.9 C1145.4,258.1 1144.2,259.9 1130.8,282.4 C1122.8,295.8 1115.5,308.3 1114.6,310.1 L1112.9,313.4 L1129.2,341.8 C1143,365.9 1145.8,370.3 1148,370.6 C1149.4,370.8 1163.9,371.1 1180.3,371.2 C1201.2,371.3 1210,371 1210,370.2 Z M1231.5,341.9 C1239.6,328.2 1247,315.6 1248,313.9 C1249,312.2 1257.2,298.2 1266.4,282.9 C1275.5,267.6 1282.9,254.9 1282.8,254.8 C1282.6,254.6 1268.5,254.3 1251.4,253.9 C1222.8,253.4 1220.1,253.5 1218.7,255.1 C1217.4,256.5 1207.4,273.5 1188.8,305.4 C1186.7,309 1185,312.7 1185,313.6 C1185,316.4 1215,368.7 1216,367.6 C1216.4,367.2 1223.4,355.6 1231.5,341.9 Z M1326.8,299.6 C1340.3,276.9 1354,252.8 1354,251.6 C1354,251 1349,241.7 1342.8,231.1 C1336.7,220.5 1329.8,208.5 1327.6,204.6 C1325.3,200.6 1323.1,197.4 1322.6,197.6 C1322.2,197.7 1315,209.6 1306.8,223.8 C1298.6,238.1 1288.6,255.2 1284.7,261.8 C1263.7,297.2 1257,308.8 1257,309.8 C1257,310.8 1264.8,311.1 1288.4,311.2 L1319.8,311.4 L1326.8,299.6 Z M1111.8,304.1 C1120.3,290.8 1142,253.6 1142,252.3 C1142,250.4 1111.1,196.3 1110,196.3 C1109.3,196.3 1091.6,225.8 1080.6,245.3 C1078.6,248.9 1076.5,252.5 1076,253.3 C1075.5,254.1 1069.6,264.3 1062.8,275.8 C1056.1,287.4 1049.1,299.1 1047.3,302 C1041.7,310.9 1039.7,310.3 1075.9,310.3 L1107.8,310.3 L1111.8,304.1 Z M1398.5,299.8 C1409.9,280.6 1424,255 1424,253.5 C1424,251.2 1403.4,213.3 1393.8,198.1 L1390.8,193.3 L1359.4,193.3 C1337,193.3 1328,193.6 1328,194.4 C1328,195 1330.8,200.3 1334.2,206.2 C1337.5,212 1344.4,223.8 1349.3,232.3 C1354.3,240.8 1360.4,251.6 1363,256.3 C1365.6,261 1369.3,267.5 1371.2,270.8 C1373.1,274.1 1378.4,283.3 1383,291.3 C1391.1,305.6 1393,308.6 1393.5,308.1 C1393.7,307.9 1395.9,304.2 1398.5,299.8 Z M1195.6,283.6 C1203.4,270.5 1210.7,258 1211.8,255.7 L1213.9,251.6 L1211.3,246.7 C1209.9,244 1207,238.9 1205,235.3 C1202.9,231.7 1200.2,227 1199,224.8 C1197.8,222.6 1193,214.4 1188.4,206.6 L1179.9,192.3 L1148,192.3 C1130.5,192.3 1115.9,192.7 1115.6,193.1 C1115.4,193.5 1117,197 1119.2,200.8 C1121.4,204.7 1125.6,212.1 1128.5,217.3 C1131.4,222.5 1136.8,232 1140.5,238.3 C1144.2,244.6 1148.4,251.8 1149.8,254.3 C1167.1,285.1 1180.2,307.3 1181,307.3 C1181.3,307.3 1187.9,296.6 1195.6,283.6 Z M1286.2,248.1 C1287.1,247.4 1292.9,238 1299.1,227.3 C1305.3,216.6 1312.1,204.7 1314.3,201 C1316.5,197.3 1318.1,194.1 1317.9,193.9 C1317,193.2 1188,192.4 1187.6,193.1 C1187.2,193.7 1198.1,213.5 1215.6,244 C1217.1,246.6 1218.9,248.3 1220.3,248.5 C1221.5,248.7 1236.5,249 1253.5,249.1 C1277.4,249.3 1284.9,249.1 1286.2,248.1 Z M1247,187.5 C1247,186.2 1218.2,136.1 1216.4,134.3 C1214.3,132.2 1148,131.4 1146.3,133.4 C1145.1,134.9 1115,186.3 1115,186.9 C1115,187.6 1129.2,187.8 1187.3,188.1 C1221.1,188.3 1247,188 1247,187.5 Z M1317,187.3 C1317,186.7 1310,174 1301.3,159 C1292.7,144 1284.4,129.6 1282.9,126.8 C1270.7,105 1254.2,76.9 1253.4,76.6 C1252.9,76.4 1249.8,80.7 1246.6,86 C1230.1,113.5 1221,129.3 1221,130.3 C1221,132 1252,185.6 1253.8,187.1 C1255.9,188.7 1317,188.9 1317,187.3 Z M1104.6,185.6 C1104.2,184.7 1096.9,171.6 1088.2,156.4 C1079.6,141.2 1072,127.9 1071.4,126.8 C1069.5,123.3 1048.4,86.1 1044.9,80.1 C1043.1,76.9 1041.3,74.3 1041,74.3 C1040.3,74.3 1040.2,74.6 1023.3,103.1 C1015.4,116.5 1009,128.2 1009,129.2 C1009,130.5 1018.9,148.6 1038.7,183.1 L1041.1,187.3 L1073.1,187.3 C1102.6,187.3 1105.2,187.2 1104.6,185.6 Z M1329.4,175.1 C1332.7,169.4 1337.4,161.2 1340,156.8 C1342.6,152.4 1349.1,141.2 1354.5,131.8 C1359.9,122.5 1369.7,105.7 1376.2,94.5 C1382.7,83.4 1387.8,73.8 1387.5,73.3 C1387.1,72.7 1375.2,72.3 1356.5,72.3 L1326.1,72.3 L1324.2,75.1 C1319.9,81.1 1292,129.8 1292,131.2 C1292,134 1321.2,185.3 1322.8,185.3 C1323.2,185.3 1326.2,180.7 1329.4,175.1 Z M1124.2,160.8 C1143.8,127.1 1145.5,124.2 1160.9,98.4 C1169.2,84.4 1176,72.6 1176,72.1 C1176,71.7 1162.4,71.3 1145.7,71.3 C1122.9,71.3 1115,71.6 1113.9,72.6 C1110.8,75.1 1080,127.5 1080,130.2 C1080,131.4 1084.5,140.3 1090.1,150 C1095.6,159.8 1102.2,171.5 1104.8,176.1 L1109.5,184.4 L1111.3,182.1 C1112.4,180.8 1118.1,171.3 1124.2,160.8 Z M1216.4,126.4 C1217.8,124.7 1245.6,78.1 1248.3,72.7 C1249.8,69.8 1249.8,69.3 1247.8,65.7 C1240.5,51.7 1218.2,14.3 1217.2,14.3 C1216.8,14.3 1210.2,25 1202.6,38.1 C1194.9,51.1 1185.5,67 1181.7,73.3 C1168,95.9 1151,125.3 1151,126.3 C1151,127.2 1159.7,127.4 1206.2,127.9 C1213.1,128 1215.3,127.6 1216.4,126.4 Z M1294.1,116.1 C1297,111 1304,99 1309.7,89.4 C1315.4,79.9 1320,71.4 1320,70.5 C1320,68.8 1318.7,66.3 1301.7,36.5 C1295,24.7 1288.7,14.3 1287.7,13.2 C1286,11.4 1284.2,11.3 1254.5,11.3 C1237.2,11.3 1223,11.6 1223,11.9 C1223,12.5 1232.2,28.6 1251.5,61.8 C1260.5,77.3 1283.4,117.6 1285.4,121.6 C1286.5,123.6 1287.7,125.3 1288.1,125.3 C1288.5,125.3 1291.2,121.1 1294.1,116.1 Z M1082.6,113.1 C1086,107.4 1093.3,95 1099,85.5 L1109.3,68.2 L1096,45 C1088.6,32.2 1081.2,19.4 1079.3,16.6 L1076,11.3 L1044,11.3 C1019,11.3 1012,11.6 1012,12.6 C1012,13.7 1022.9,33.1 1039,60.3 C1042.7,66.6 1049.7,78.8 1054.5,87.3 C1075.5,124.6 1074.8,123.3 1075.8,123.3 C1076.2,123.3 1079.3,118.7 1082.6,113.1 Z M1391.7,66.6 C1394.4,63.9 1423,15.3 1423,13.5 C1423,12.2 1296.1,10.8 1294.9,12 C1294.3,12.6 1299.8,23.2 1309.3,39.9 L1324.5,66.8 L1348,67.3 C1360.9,67.6 1375.6,67.9 1380.7,68.1 C1388.6,68.4 1390.1,68.2 1391.7,66.6 Z M1178.5,66.7 C1179.4,66.3 1184.6,58.3 1190.2,48.9 C1195.7,39.5 1202.7,27.7 1205.6,22.7 C1208.6,17.7 1211,13.1 1211,12.5 C1211,11.6 1194.6,11.3 1147,11.3 C1111.8,11.3 1083,11.7 1083,12.1 C1083,12.5 1089.9,24.7 1098.3,39.3 L1113.5,65.8 L1142.5,66.3 C1158.5,66.6 1172.7,66.9 1174.2,67.1 C1175.6,67.2 1177.6,67 1178.5,66.7 Z" id="Shape"></path>
                <path d="M749.9,496.5 C727,496.3 724.1,496.1 722.8,494.5 C722,493.6 718.6,487.9 715.3,481.8 C708.3,468.9 706.7,466.1 696.8,448.8 L689.3,435.8 L657.7,435.5 C640.2,435.4 626,435.6 626,435.9 C626,436.2 633,448.8 641.5,463.8 C650,478.8 657,491.6 657,492.1 C657,493.1 653.1,494.9 652.6,494.1 C652.5,494 645.7,482.1 637.6,467.7 C629.6,453.3 622.4,440.8 621.6,439.8 C620.5,438.3 618.9,440.5 607.9,459.1 C601.1,470.7 593.5,483.7 591.1,487.9 L586.8,495.6 L561.2,495 C547.2,494.6 530.8,494.3 524.8,494.3 C514.1,494.3 513.9,494.3 514.2,492.1 L514.5,489.9 L548.6,490.2 L582.8,490.5 L585.7,486.1 C587.3,483.8 593.5,473.5 599.5,463.3 C605.4,453.1 611.6,442.8 613.1,440.3 C615.1,437.1 615.6,435.7 614.7,435.1 C614,434.7 599.1,434.4 581.6,434.4 C556.4,434.4 549.5,434.2 548.5,433.1 C547.8,432.4 541.4,421.5 534.2,408.8 C527.1,396.2 519.3,382.7 517.1,378.8 C514.8,375 513,371 513,369.9 C513,368.9 518.6,358.5 525.4,346.9 C537.1,326.9 539,323.6 544.7,313.6 L547.1,309.4 L540.6,297.6 C537,291.1 530.4,279.7 526,272.3 C521.7,264.9 516.9,256.6 515.4,253.9 L512.8,249 L514.8,245.4 C515.9,243.4 524.1,229.2 533.1,213.9 L549.5,186 L584.5,186.2 L619.5,186.4 L631.1,166.6 C637.5,155.7 645.3,142.4 648.5,137 L654.3,127.1 L652,123 C649.9,119.2 639.2,100.7 627.3,80.1 C624.8,75.8 622.5,72.3 622.1,72.3 C621.6,72.3 607.8,95.3 592.6,121.6 L587.6,130.3 L552,130.1 C517.3,129.8 516.5,129.8 516.5,127.8 C516.5,125.8 517.2,125.8 550.3,125.8 L584,125.8 L592.4,111.8 C613.3,76.7 617.1,70 616.3,69.2 C615.8,68.7 601.1,68.2 583.5,68.1 L551.6,67.8 L535.8,40.8 C516,6.9 516.3,7.6 517.7,6.2 C518.4,5.5 519.5,5.3 520.3,5.6 C521.1,5.9 528.8,18.4 537.4,33.5 C546.1,48.5 553.7,61.3 554.3,61.9 C556,63.5 617,64.8 617,63.2 C617,62.6 610.6,50.9 602.8,37.2 C584.7,5.7 585.6,7.3 586.8,6.1 C587.4,5.5 588.5,5.3 589.2,5.6 C590.4,6 601.4,24.5 617.4,53 C619.7,57 621.8,60.3 622.2,60.3 C622.6,60.3 626.1,54.8 630.1,48.1 C634,41.3 641.3,29 646.2,20.7 C651.2,12.1 655.8,5.4 656.8,5.2 C657.7,5 674.9,5 695,5.3 L731.4,5.8 L743.3,26.3 C749.7,37.6 756.8,50 759,53.8 C761.1,57.7 763.5,61.6 764.2,62.5 C765.4,64 769,64.3 796.8,64.8 C820.9,65.3 828,65.2 828,64.2 C828,63.6 825.7,58.9 822.8,53.9 C816.2,42.2 804.7,22.4 800.4,15.1 C796.4,8.5 796.1,6.3 799.3,6.3 C801.6,6.4 806.1,13.7 825.2,48 C829.2,55.3 833,61.3 833.6,61.3 C834.3,61.3 841.6,49.7 850,35.6 C858.4,21.4 865.9,8.8 866.6,7.6 L868,5.4 L904.2,6 C924.2,6.3 940.9,6.9 941.4,7.3 C941.9,7.8 942,8.8 941.7,9.7 C941.2,10.9 936.6,11.1 906.8,10.6 C887.9,10.4 872,10.5 871.4,11 C869,12.7 838.9,63.9 839.8,64.7 C840.1,65 855.1,65.3 873.2,65.3 C903.4,65.3 906.1,65.4 907,67 C907.9,68.5 932,110.8 940.3,125.4 L942.4,129 L937.8,136.4 C935.3,140.5 927.3,154.1 920,166.6 C907.6,188 906.8,189.7 908,192.1 C908.6,193.6 915.5,206.1 923.3,219.8 C931,233.6 938.3,246.5 939.4,248.5 C941.1,251.6 941.3,252.6 940.3,254 C939.1,255.7 927.4,275.6 911.7,302.3 L904.4,314.8 L869,314.8 L833.6,314.8 L825,329.3 C820.2,337.3 812.6,350.2 808.1,358 L799.8,372.3 L803.5,379 C813.1,396.7 831.6,428.2 832.2,428 C833,427.8 851.1,397.6 860.7,380.6 C864.6,373.7 867.1,370.3 868.5,370.1 C869.6,369.9 885.8,370 904.5,370.3 L938.5,370.8 L938.5,373.2 L938.5,375.5 L904.5,375.4 L870.5,375.2 L868.3,378.5 C861.5,388.9 838.1,429.6 838.6,430.4 C838.9,430.9 852.7,431.3 871.1,431.3 C900.4,431.3 903.1,431.4 904,433.1 C904.6,434 912.7,448.3 922.1,464.8 C937.7,492.3 938.9,494.9 937.3,496 C934.8,497.9 934.1,497.4 930.7,491.3 C927,484.6 904,444.1 901.4,439.6 L899.5,436.3 L868.3,436.3 C851.1,436.3 837,436.6 837,436.9 C837,437.3 844.1,450 852.8,465.2 C861.4,480.4 868.6,493.3 868.8,493.9 C869.2,495.6 866,496.5 864.3,495.1 C863.5,494.5 861.9,492.1 860.8,489.9 C856.1,480.7 832.8,440.3 832.2,440.3 C831.6,440.3 819.7,459.9 803.5,487.6 L797.8,497.4 L786.7,497.1 C780.5,496.9 764,496.7 749.9,496.5 Z M796.2,488.9 C797.2,487.8 800.7,482.1 804.1,476.3 C807.5,470.5 814.1,459.4 818.8,451.5 C823.4,443.6 826.9,436.9 826.6,436.5 C825.7,435.7 822.7,435.6 788.5,435.4 L760.5,435.3 L744.6,407.6 C735.8,392.3 727.9,378.6 726.9,377.2 L725.1,374.6 L693.4,374 C676,373.7 660.8,373.8 659.5,374.3 C658.2,374.8 655.3,378.6 652.5,383.5 C649.8,388.1 642.7,400.1 636.8,410.1 C630.8,420.2 626.2,428.8 626.5,429.1 C626.9,429.5 641.4,429.9 658.8,430.1 C676.2,430.2 691,430.5 691.6,430.8 C692.2,431 696.6,438 701.4,446.5 C706.2,454.9 713.8,468.3 718.4,476.3 L726.7,490.8 L756.1,491.3 C791.5,491.9 793.9,491.8 796.2,488.9 Z M824.7,426.1 C803.4,388.7 798.5,380.4 797,378.3 C792.7,372.1 791.9,373.8 821.1,325.4 C824.9,319.2 828,313.3 828,312.4 C828,310.8 802.3,264.5 797.1,256.8 L794.4,252.8 L763.2,252.5 C746,252.4 732,252.4 732,252.6 C732,253.3 756.1,296.2 763.6,309 C765.3,311.9 765.3,312.3 763.8,314 C761.3,316.8 730.9,369.5 730.7,371.2 C730.7,372.1 733.4,377.5 736.7,383.3 C740,389.1 743.7,395.4 744.7,397.3 C751.7,409.7 762.4,428 763.3,429.1 C764,430 771.7,430.3 795.7,430.3 L827.1,430.3 L824.7,426.1 Z M614.6,427.6 C614.2,426.6 606.9,413.5 598.3,398.4 L582.7,371 L584.6,367.6 C587.2,363.1 598.6,343.9 608.7,326.9 C613.3,319.3 617,312.4 617,311.6 C617,309.6 610.6,297.1 603.2,284.6 C600,279.2 594.5,269.7 591,263.6 L584.6,252.3 L553.3,252.3 C532.4,252.3 522,252.6 522,253.3 C522,253.9 524.9,259.4 528.4,265.6 C546.4,297.2 553,309.1 553,309.5 C553,309.8 545.4,323 536,338.9 C526.7,354.7 519,368.5 519,369.6 C519,370.7 523.7,379.7 529.3,389.7 C535,399.6 542.1,412.1 545,417.3 C547.9,422.5 550.8,427.4 551.3,428.1 C552,429 559.7,429.3 583.7,429.3 C613.3,429.3 615.2,429.2 614.6,427.6 Z M635.3,402.5 C642.8,389.4 650.5,376.5 652.3,373.8 L655.5,368.8 L690.1,369.2 L724.6,369.6 L730.5,359.7 C746.9,331.8 758,312.1 758,310.8 C758,308.6 728.4,256.3 727.2,256.3 C726.5,256.3 699.9,301.5 696.1,309.1 C694.9,311.4 693.4,313.3 692.7,313.3 C692.1,313.4 676,313.4 657,313.3 L622.5,313.3 L605.6,342.3 L588.8,371.3 L604.5,398.8 C613.1,413.9 620.5,426.3 620.9,426.3 C621.2,426.3 627.7,415.6 635.3,402.5 Z M903.2,305.6 C908.1,298.4 933,255.5 933,254.4 C933,253.7 922.5,253.2 899.9,253.1 C871.6,252.8 866.6,252.6 865.9,251.3 C860.8,242.1 845.5,215.1 839.8,205.3 L832.5,192.8 L798.3,192.5 L764.1,192.3 L755.7,206.5 C738.2,236.5 733,245.6 733,246.4 C733,246.9 747.3,247.3 764.8,247.3 C782.2,247.3 797,247.7 797.6,248.1 C798.3,248.5 799.7,250.4 800.7,252.3 C807.3,264 832.4,307.9 832.7,308.3 C833.2,308.9 870.1,309.9 888,309.9 L900.4,309.8 L903.2,305.6 Z M698.6,293.6 C703.4,285.4 710.6,273.2 714.6,266.4 C718.7,259.6 722,253.6 722,253.2 C722,252.7 707.2,252.3 689.2,252.3 L656.4,252.3 L647.5,236.6 C636.2,216.4 623.1,194.1 621.6,192.6 C620.8,191.7 611.4,191.3 586.8,191.2 C568.2,191 552.9,191.1 552.6,191.4 C552.2,191.8 540,212.2 533,224.3 C530.9,227.9 527.4,233.9 525.1,237.7 C522.8,241.6 521,245.3 521,246 C521,247 527.5,247.3 554.4,247.3 L587.8,247.3 L604.6,276.9 C614.9,294.9 622.3,306.8 623.5,307.3 C624.6,307.8 640,308.2 657.7,308.2 L689.9,308.3 L698.6,293.6 Z M932.6,246.7 C932,245.2 906.2,199.6 901.9,192.5 C901,191 900.6,189.4 901,188.8 C901.4,188.3 904.2,183.5 907.2,178.3 C910.3,173.1 918,159.9 924.4,149.1 C930.8,138.2 936,129 936,128.6 C936,128.1 928.6,115 919.7,99.3 L903.4,70.8 L871.1,70.5 C840.9,70.3 838.8,70.4 839.4,72 C839.8,72.9 845.9,83.8 852.9,96.3 C859.9,108.7 867,121.1 868.5,123.8 L871.3,128.9 L855.7,155.6 C836.6,188.2 836.7,187.9 837.5,190.4 C838.4,193.2 867.8,244.4 869.7,246.6 C871.2,248.1 874.1,248.3 902.3,248.3 C930.5,248.3 933.2,248.2 932.6,246.7 Z M722,246.7 C722,246 721.4,245 703,212.5 C691.7,192.5 689.9,188.8 690.8,187 C691.3,185.8 699,172.4 707.9,157.3 C716.8,142.2 724,129.3 724,128.6 C724,127.3 695.4,76.6 691.9,71.5 L690.3,69.3 L658.8,69.5 L627.2,69.8 L639.7,91.8 C646.6,103.9 654,116.9 656.1,120.7 L660,127.5 L655.1,135.7 C639.4,162 626,185.6 626,187.1 C626,189 627.9,192.5 644.9,222.3 C651.7,234.1 658.1,244.6 659.2,245.6 C661,247.1 664.1,247.3 691.6,247.3 C708.3,247.3 722,247 722,246.7 Z M738.8,225.4 C743.4,217.4 750.2,205.7 753.8,199.5 C757.4,193.2 760.8,187.9 761.5,187.7 C762.1,187.4 778.1,187.1 797,187 L831.3,186.8 L845.7,162.3 C865,129.4 865.3,128.8 863.9,126 C859.7,117.7 834.5,74.3 833.9,74.3 C833.1,74.3 827,84.3 811,111.8 C805.9,120.6 801.2,128.6 800.6,129.6 C799.5,131.4 797.5,131.5 765,131.4 C746,131.3 730,131.6 729.4,132 C728.4,132.7 713.4,158.1 700.7,180.6 L695.8,189.3 L702,200.6 C705.5,206.7 709.2,213.4 710.3,215.3 C713.2,220.5 724.1,239.4 725.7,242.1 L727.2,244.5 L728.7,242.3 C729.6,241 734.1,233.5 738.8,225.4 Z M797,124.6 C798.2,123 801.7,117.5 804.7,112.3 C807.8,107.1 814.5,95.7 819.7,86.9 C824.8,78.2 828.8,70.7 828.4,70.4 C828.1,70.1 813.4,69.7 795.7,69.6 C778,69.4 763.2,69.3 762.8,69.3 C762.5,69.3 760.8,66.9 759.2,64.1 C744.7,38.5 729.6,12.6 728.7,11.7 C727.4,10.4 664.4,9.1 660.3,10.2 C658.7,10.6 655.7,14.8 650.3,23.8 C634.3,50.9 628,61.8 627.8,62.8 C627.6,63.4 639.4,64 660.9,64.3 L694.2,64.8 L697.3,70.3 C702.7,80.2 728.2,124.8 728.7,125.3 C729,125.6 742.5,126 758.8,126.3 C775.1,126.6 789.9,127 791.7,127.1 C794.1,127.2 795.4,126.7 797,124.6 Z" id="Shape"></path>
                <path d="M423,492.1 C422.2,490.8 420.7,488.2 419.7,486.3 C415.4,478.4 400.4,452.2 395.3,443.6 L389.9,434.3 L371.2,434.3 C360.9,434.2 346.8,434 339.9,433.7 C332.2,433.3 327,433.5 326.6,434.1 C325.9,435.3 350.4,479.3 356.3,487.5 C357.4,489 358,490.9 357.7,491.7 C357.1,493.1 352.8,493.3 320.3,493.3 C300.1,493.3 283,492.9 282.5,492.5 C281.9,492.1 274.1,478.9 265.1,463 C256.1,447.2 248.5,434.1 248.1,433.9 C246.7,433.1 185.2,432.2 184.7,432.9 C184.2,433.9 188.2,441.4 205.1,470.5 C211.1,480.9 216,490 216,490.8 C216,492.1 211.2,492.3 178.7,492.3 C146.6,492.3 141.1,492.1 139.2,490.7 C138,489.9 137,488.6 137,488 C137,487.3 130.3,475.1 122.1,460.8 C112.3,443.5 106.5,434.4 104.9,433.6 C103.2,432.7 94.3,432.3 72.3,432.3 C55.6,432.3 42,432.5 42,432.7 C42,432.9 49.2,445.7 58,461.2 C66.9,476.7 73.8,489.8 73.5,490.3 C72.7,491.6 10,491.6 10,490.4 C10,486.3 10,486.3 38.6,486.3 C53.7,486.3 66,486.1 66,485.9 C66,485.6 59.7,474.3 51.9,460.6 C44.1,447 36.9,434.1 35.8,432 L33.9,428.1 L37.8,422 C43,413.9 65.7,375.1 66.6,373 C67.1,371.5 66.1,371.3 56.4,371.2 C50.4,371.1 37.9,370.9 28.5,370.7 C19.2,370.5 11.1,370.3 10.7,370.3 C10.2,370.3 10,369.3 10.2,368.1 L10.5,365.8 L38.7,365.3 L67,364.8 L60.4,353.3 C49.2,333.8 38.7,315 36.7,311 L34.8,307.3 L45.6,289 C61.5,262.1 68.3,250.2 67.9,249.8 C67.7,249.7 54.9,249.3 39.5,249 L11.5,248.5 L11.5,246.2 L11.5,243.8 L39.8,244 C55.3,244.2 68,243.9 68,243.4 C68,242.9 65.5,238.1 62.4,232.7 C55.6,220.8 42.8,197.8 38.7,190.5 L35.8,185.2 L38.3,181.5 C39.7,179.5 46.4,168.4 53.3,156.8 C60.1,145.3 66.7,134.1 67.9,132 L70.2,128.3 L43.8,128.2 C29.4,128.1 16.8,127.9 16,127.8 C15.2,127.7 13.9,127.5 13.2,127.4 C12.4,127.4 12,126.4 12.2,125.1 L12.5,122.8 L40.9,123.2 C69.1,123.5 69.3,123.5 68.8,121.5 C68.5,120.3 61.4,107.5 53.1,92.9 C44.8,78.3 37.7,65.7 37.4,64.9 C36.8,63.3 42.6,52.6 59.6,24.1 C64.8,15.5 69.3,7.8 69.6,6.9 C70.2,5.5 67.4,5.3 42.1,5.3 C18,5.3 13.9,5.1 13.4,3.8 C11.8,-0.1 12.5,-0.2 45.3,0.3 C62.6,0.6 77.2,1.2 77.6,1.6 C78.1,2 77.8,3.4 77,4.6 C71.4,13.4 43.9,60.5 44.1,60.8 C44.3,61 59.1,61.3 76.9,61.5 L109.4,61.8 L126.6,32.8 C136,16.9 144.6,3 145.5,1.9 C147.1,0.2 148.7,0.1 171.4,0.7 C184.6,1 200.5,1.3 206.5,1.3 C212.6,1.3 218.1,1.7 218.8,2.1 C219.7,2.7 215.6,10.6 203,31.8 C193.7,47.7 186,61 186,61.5 C186,62 200.5,62.2 218.2,62.1 L250.5,61.8 L265.7,36.3 C274,22.3 282.1,8.8 283.7,6.3 L286.5,1.8 L323.5,2.2 C343.9,2.4 360.9,2.9 361.4,3.3 C361.8,3.8 358.4,10.3 353.7,18 C339.5,41.1 328,61 328,62.2 C328,63 336.5,63.3 360.2,63.1 L392.4,62.8 L409.6,33.9 C419.1,18.1 427.4,4.5 428.2,3.8 C429.1,2.9 433.1,2.7 442.8,3.1 C455.7,3.5 456.1,3.6 455.8,5.7 C455.5,7.7 455,7.8 443.8,7.8 C433.4,7.8 431.9,8 430.2,9.8 C428.4,11.6 402.4,54.7 398.7,61.9 L397.1,65 L413.2,93.4 C422,109 429.9,122.6 430.8,123.6 C432.1,125 434.1,125.3 443.2,125.3 L454,125.3 L454,127.8 L454,130.3 L442.2,130.3 C432.1,130.3 430.1,130.6 428.8,132.1 C427.9,133 423.1,141 417.9,149.8 C412.8,158.6 406,170.2 402.8,175.6 C399.6,181 397,186.3 397,187.5 C397,188.7 404,202.2 412.6,217.4 C430.4,249.1 427.2,246.3 444.8,246.3 C454.1,246.3 455.2,246.8 453.1,250.1 C452.5,251 449.4,251.3 441.1,251.2 C432.6,251 429.5,251.3 428.5,252.4 C427.1,253.8 417.7,269.6 402.8,295.6 C396.3,306.7 395,309.7 395.7,311.6 C396.1,312.8 403.3,325.7 411.5,340.2 C422.1,358.9 427.2,366.8 428.8,367.4 C430.1,367.9 435.8,368.3 441.6,368.3 L452,368.3 L452,370.8 L452,373.3 L440.2,373.3 C430.1,373.3 428.1,373.6 426.7,375.1 C425.4,376.5 403.8,412.7 396.2,426.1 L393.8,430.3 L399.8,441.1 C413.3,465.5 424.9,485.4 426.8,487.6 C428.1,489 430.1,489.3 440.2,489.3 C452,489.3 452.1,489.3 451.8,491.6 C451.5,493.7 451.1,493.8 438,494.1 C424.9,494.3 424.5,494.3 423,492.1 Z M349.8,487.5 C349.4,486.4 326.8,446.7 321.7,438.1 C319.4,434.1 318,430.7 318.4,429.7 C318.7,428.9 322.8,421.8 327.4,414 C332,406.2 339.2,394 343.4,386.8 L351,373.8 L344.2,373.3 C340.5,373 326.3,372.8 312.5,372.8 L287.6,372.8 L282.7,380.8 C277.4,389.4 258.6,421.3 255.1,427.6 C253.4,430.7 253.2,431.8 254.1,433.6 C258.5,441.9 283.5,485.1 284.8,486.6 C286.2,488.1 289.1,488.3 318.2,488.3 C335.8,488.3 350,487.9 349.8,487.5 Z M208,486.4 C208,485.9 201,473.3 192.5,458.4 C184,443.5 177,430.7 177,429.8 C177,429 184.4,415.9 193.5,400.7 C205.8,380.1 209.7,372.8 208.8,372.1 C208.1,371.7 193.7,371.3 176.9,371.3 C149,371.3 146.2,371.5 144.8,373.1 C143,375.3 114.7,422.7 112.5,427.4 L110.8,430.9 L118.7,444.9 C123.1,452.5 130.2,464.9 134.5,472.3 C138.8,479.7 142.4,486.1 142.7,486.5 C143.3,487.6 208,487.5 208,486.4 Z M390.3,425.6 C392.7,422.1 400.4,409.1 415.7,382.9 C419.1,376.9 422,371.3 422,370.4 C422,368.6 394.9,320.2 391.5,315.9 L389.5,313.3 L358.3,312.7 C334.4,312.2 327,312.3 327,313.2 C327,315 330,320.5 344.8,346.3 C352.2,359.2 358.3,370.3 358.3,370.8 C358.3,371.4 351.4,383.2 343.1,397.1 C334.8,411.1 327.3,423.8 326.5,425.4 L325,428.3 L350.2,428.6 C364.1,428.7 378.3,428.9 381.6,429.1 C387.7,429.3 387.8,429.3 390.3,425.6 Z M250.3,425.1 C251.6,423.3 256.8,414.8 261.8,406.3 C266.7,397.8 273.3,386.5 276.5,381.3 C279.7,376.1 282.3,371.3 282.3,370.7 C282.3,369.7 257,324.9 251.5,316.2 L249.2,312.6 L230.3,312 C202.2,311 185,311.1 185,312.3 C185,313.5 211.2,359.6 215.3,365.6 C217.9,369.4 217.9,371.3 215.5,374.3 C213.2,377 185.7,423.6 185.3,425.4 C184.8,427.1 185.9,427.3 201.6,427.5 C210.9,427.7 225.1,427.9 233.1,428.1 L247.8,428.4 L250.3,425.1 Z M123.8,397.9 L141.1,369.1 L131.8,352.9 C126.7,344.1 119.3,331.2 115.4,324.3 L108.2,311.8 L90.3,311.2 C62.8,310.2 43,310.2 43,311.2 C43,312.4 57.9,339.1 73.5,365.8 L75.3,368.9 L65.8,384.8 C51.1,409.5 42,425.1 42,425.7 C42,426.7 47.6,426.9 76.5,426.9 L106.5,426.8 L123.8,397.9 Z M350.3,366.8 C350.1,365.6 335.7,339.9 325.9,323 C322.1,316.5 319,310.6 319,310 C319,309.3 326.6,296 335.9,280.3 C345.1,264.6 352.5,251.5 352.3,251.1 C352.1,250.6 337.6,250.3 320.2,250.3 L288.5,250.3 L286.4,253.6 C284.3,256.7 266.6,286.5 258,301.2 L253.7,308.6 L255.8,312.9 C258.5,318.3 284.9,364.5 286.2,365.8 C286.7,366.4 298.1,367 314.3,367.3 C349.2,367.9 350.5,367.9 350.3,366.8 Z M209,365.6 C209,365.1 202,352.8 193.6,338 C185.1,323.3 177.9,310.5 177.6,309.5 C177.2,308.4 183.1,297.6 194,279.4 C203.3,263.7 210.7,250.7 210.5,250.3 C210,249.5 151.1,249 147.8,249.8 C145.8,250.3 144,252.3 141.2,257.2 C139.1,260.8 132.1,272.6 125.8,283.3 C119.5,294 113.8,303.7 113.2,304.9 C111.7,307.6 113,310.3 130.1,339.8 C138.9,355.1 145.1,364.8 146.4,365.3 C149,366.4 209,366.6 209,365.6 Z M390.2,306.6 C391,305.6 399,292.2 408,276.9 L424.2,249 L422.2,244.9 C416.8,234.4 393.2,193.2 391.7,191.6 C390.8,190.8 381.3,190.4 359,190.1 C331.6,189.9 327.5,190 327.8,191.3 C328.2,192.8 352.3,235.7 356.8,242.7 C359.8,247.4 359.9,250.2 357.3,254 C353.8,259 327,305.2 327,306.3 C327,307.3 334.2,307.6 369.6,308.1 C386.8,308.3 388.8,308.2 390.2,306.6 Z M247.2,306.4 C249,306.3 250.9,303.3 270.4,270.4 C277.4,258.7 282.9,248.4 282.6,247.6 C281.5,244.8 252,193.5 250.3,191.4 C248.5,189.4 247.8,189.3 217.1,189.3 C199.9,189.2 185.6,189.4 185.3,189.6 C185,190 206.4,227.9 216.6,245 C218.3,247.9 218.3,248.5 217.1,250.5 C216.3,251.8 213.1,257.1 209.9,262.3 C191.8,292.7 185,304.5 185,305.3 C185,306.2 227.8,307.2 241,306.6 C243.5,306.5 246.3,306.4 247.2,306.4 Z M109.3,301.1 C112.4,296.2 129.9,266.6 137.6,253.2 L140.8,247.5 L138.5,243.2 C137.3,240.8 130.3,228.5 123,215.8 C115.7,203.2 109.2,191.8 108.6,190.6 C107.5,188.3 107.3,188.3 83.5,188.2 C55.4,188.1 44.7,188.3 44.1,188.8 C43.8,189.2 55.5,210.6 68.8,233.8 C75.9,246.2 76.2,246.9 74.8,249.3 C48.5,293.6 43,303.1 43,304.3 C43,304.9 52.1,305.4 65.3,305.6 C77.5,305.7 91.6,305.9 96.7,306.1 L105.8,306.3 L109.3,301.1 Z M209.3,244.5 C209.8,243.8 193,213.7 181.9,195.2 C179.8,191.6 178,187.8 178,186.8 C178,185 183.7,174.8 202.2,143.5 C206.5,136.2 209.8,129.8 209.5,129.3 C209.1,128.7 196.3,128.3 177.5,128.3 L146.1,128.3 L129.8,155.6 C120.9,170.5 113.4,184 113.2,185.4 C112.9,187.1 114.3,190.4 117.4,195.7 C119.9,200 122,203.6 122,203.7 C122,204.2 144.1,242.7 144.7,243.3 C144.9,243.6 156,244 169.3,244.3 C182.6,244.6 197,244.9 201.2,245.1 C205.4,245.2 209.1,245 209.3,244.5 Z M350.4,242.1 C349.5,240.3 345.7,233.6 342,227.3 C338.3,221 331.6,209.4 327,201.5 L318.8,187.2 L321.3,183.5 C322.7,181.5 329.3,170.4 336,158.8 C342.7,147.3 349.3,136.1 350.6,134 C352.4,131.2 352.7,130.1 351.8,129.8 C351.1,129.5 336.4,129.4 319.1,129.5 L287.8,129.8 L271.8,156.6 C263.1,171.4 255.7,184.7 255.4,186.2 C254.9,188.4 257.5,193.6 268.8,213.4 C276.5,226.8 283.7,239.5 285,241.6 L287.2,245.3 L319.6,245.3 L352.1,245.3 L350.4,242.1 Z M392.5,183.1 C394.8,179.9 420.7,135.7 423.5,130.3 L425.8,125.7 L411.7,100.7 C403.9,87 396.5,74.1 395.3,72 L393.1,68.3 L360.5,68.3 C342.6,68.3 328,68.6 328,68.9 C328,69.5 354.1,115.7 359.1,123.8 C360.9,126.9 360.9,126.9 358.1,131.3 C356.5,133.8 351.3,142.6 346.4,150.8 C341.6,159.1 335.3,169.9 332.3,174.8 L327,183.8 L332.7,184.4 C335.9,184.7 350.3,185 364.7,185.1 C390.8,185.3 390.9,185.3 392.5,183.1 Z M252.7,179.1 C276.5,139 283,127.8 283,126.2 C283,123.8 253.5,71.4 250.8,69.1 C249.1,67.6 245.6,67.4 217.5,67.3 C196.5,67.3 186,67.6 186,68.3 C186,69.3 213.6,118.5 216.5,122.6 C218.6,125.7 218.4,126.6 214.3,133 C212.3,136.2 204.8,148.7 197.8,160.8 L184.9,182.8 L195.2,183.4 C200.9,183.7 215.4,184 227.5,184.1 L249.6,184.3 L252.7,179.1 Z M124.3,155.2 C136.4,134.9 141,126.4 140.6,124.9 C140,122.6 128.7,102 116.2,80.6 L108.5,67.3 L94.1,67.3 C86.2,67.3 71.9,67 62.4,66.7 C48.3,66.3 45,66.4 45,67.5 C45,68.8 74.3,121 76.1,122.7 C77.6,124.3 77.1,127.3 74.8,130.6 C70.7,136.3 45,180.7 45,182 C45,183 51.1,183.3 76.3,183.3 L107.5,183.3 L124.3,155.2 Z M204.7,112.7 C197.2,99.1 181,71.1 179.8,69.6 C177.3,66.6 178.9,62.5 188.3,46.8 C212.5,6.2 212.2,6.9 210.3,6.2 C209.3,5.8 195.2,5.4 178.9,5.4 L149.3,5.3 L146.6,9.3 C143.4,14.2 135,28.3 135,28.9 C135,29.1 133.5,31.6 131.6,34.5 C129.8,37.4 125.1,45.5 121.1,52.5 L113.9,65.1 L116.3,70 C120,77.2 145,120.7 146.1,121.8 C147.2,122.9 207.9,124.2 209.3,123.2 C209.8,122.9 207.7,118.1 204.7,112.7 Z M352.7,123.1 C352.2,121.8 323.5,71.5 321,67.7 C319.8,65.8 320.7,63.9 331.2,46.2 C350,14.6 353.8,7.9 353.5,7.2 C353.2,6.9 338.9,6.5 321.6,6.4 L290.2,6.2 L287.7,9.5 C285.6,12.4 259.3,56 256.1,62.1 C255,64.2 255.5,65.6 260.8,75.1 C273.2,97.3 288.1,122.8 289.3,123.5 C290,123.9 304.6,124.3 321.9,124.3 C346.5,124.3 353.1,124 352.7,123.1 Z" id="Shape"></path>
            </g>
        </g>
    </g>
</svg>