<?xml version="1.0" encoding="UTF-8"?>
<svg width="65px" height="65px" viewBox="0 0 65 65" version="1.1" xmlns="http://www.w3.org/2000/svg" xmlns:xlink="http://www.w3.org/1999/xlink">
    <!-- Generator: Sketch 51.3 (57544) - http://www.bohemiancoding.com/sketch -->
    <title>bitcoin</title>
    <desc>Created with Sketch.</desc>
    <defs></defs>
    <g id="Page-1" stroke="none" stroke-width="1" fill="none" fill-rule="evenodd">
        <g id="Bitcoin_logo" fill-rule="nonzero">
            <path d="M64.03256,39.74529 C59.75856,56.88829 42.39556,67.32129 25.25056,63.04629 C8.11256,58.77229 -2.32044,41.40829 1.95556,24.26629 C6.22756,7.12129 23.59056,-3.31271 40.73056,0.96129 C57.87456,5.23529 68.30656,22.60129 64.03256,39.74529 Z" id="Shape" fill="#F7931A"></path>
            <path d="M47.10256,27.44529 C47.73956,23.18729 44.49756,20.89829 40.06456,19.37129 L41.50256,13.60329 L37.99156,12.72829 L36.59156,18.34429 C35.66856,18.11429 34.72056,17.89729 33.77856,17.68229 L35.18856,12.02929 L31.67956,11.15429 L30.24056,16.92029 C29.47656,16.74629 28.72656,16.57429 27.99856,16.39329 L28.00256,16.37529 L23.16056,15.16629 L22.22656,18.91629 C22.22656,18.91629 24.83156,19.51329 24.77656,19.55029 C26.19856,19.90529 26.45556,20.84629 26.41256,21.59229 L24.77456,28.16329 C24.87256,28.18829 24.99956,28.22429 25.13956,28.28029 C25.02256,28.25129 24.89756,28.21929 24.76856,28.18829 L22.47256,37.39329 C22.29856,37.82529 21.85756,38.47329 20.86356,38.22729 C20.89856,38.27829 18.31156,37.59029 18.31156,37.59029 L16.56856,41.60929 L21.13756,42.74829 C21.98756,42.96129 22.82056,43.18429 23.64056,43.39429 L22.18756,49.22829 L25.69456,50.10329 L27.13356,44.33129 C28.09156,44.59129 29.02156,44.83129 29.93156,45.05729 L28.49756,50.80229 L32.00856,51.67729 L33.46156,45.85429 C39.44856,46.98729 43.95056,46.53029 45.84556,41.11529 C47.37256,36.75529 45.76956,34.24029 42.61956,32.60029 C44.91356,32.07129 46.64156,30.56229 47.10256,27.44529 Z M39.08056,38.69429 C37.99556,43.05429 30.65456,40.69729 28.27456,40.10629 L30.20256,32.37729 C32.58256,32.97129 40.21456,34.14729 39.08056,38.69429 Z M40.16656,27.38229 C39.17656,31.34829 33.06656,29.33329 31.08456,28.83929 L32.83256,21.82929 C34.81456,22.32329 41.19756,23.24529 40.16656,27.38229 Z" id="Shape" fill="#FFFFFF"></path>
        </g>
    </g>
</svg>