<?xml version="1.0" encoding="UTF-8"?>
<svg width="13674px" height="13286px" viewBox="0 0 13674 13286" version="1.1" xmlns="http://www.w3.org/2000/svg" xmlns:xlink="http://www.w3.org/1999/xlink">
    <!-- Generator: Sketch 51.3 (57544) - http://www.bohemiancoding.com/sketch -->
    <title>btc-nobg</title>
    <desc>Created with Sketch.</desc>
    <defs>
        <filter x="-2.9%" y="-2.1%" width="105.8%" height="106.4%" filterUnits="objectBoundingBox" id="filter-1">
            <feOffset dx="0" dy="2" in="SourceAlpha" result="shadowOffsetOuter1"></feOffset>
            <feGaussianBlur stdDeviation="2" in="shadowOffsetOuter1" result="shadowBlurOuter1"></feGaussianBlur>
            <feColorMatrix values="0 0 0 0 1   0 0 0 0 1   0 0 0 0 1  0 0 0 0.5 0" type="matrix" in="shadowBlurOuter1" result="shadowMatrixOuter1"></feColorMatrix>
            <feMerge>
                <feMergeNode in="shadowMatrixOuter1"></feMergeNode>
                <feMergeNode in="SourceGraphic"></feMergeNode>
            </feMerge>
        </filter>
    </defs>
    <g id="Page-1" stroke="none" stroke-width="1" fill="none" fill-rule="evenodd">
        <g id="sbtc-(2)" filter="url(#filter-1)" transform="translate(4.000000, 2.000000)" fill-rule="nonzero">
            <g id="layer104">
                <path d="M97.38036,232.62403 C85.2626957,230.744914 76.7803307,228.216011 66.4715352,223.42163 C63.9075077,222.227426 63.0996634,221.805942 57.6379336,218.785307 C46.5388556,212.638665 35.5627104,203.717255 27.1505927,193.970438 C26.3954339,193.109908 24.9378018,191.476657 23.9016537,190.370262 C21.4956827,187.788673 20.108298,185.909557 17.2632811,181.325918 C11.731304,172.439631 7.86770086,164.273379 5.35635885,156.212498 C3.82847944,151.312747 1.75618323,142.531831 1.75618323,141.003951 C1.75618323,140.582467 1.59812674,139.370701 1.40494658,138.299429 C0.22830382,131.713742 0.0351236646,128.324309 0.0175618323,113.941168 C-5.58650348e-14,105.72223 0.0175618323,105.248061 0.439045807,102.086931 C1.70349773,92.8318455 4.19727792,84.191424 9.04434363,72.354749 C12.0825406,64.9436558 17.8955071,55.3373335 24.0421484,47.5925655 C26.7291087,44.18557 31.6464218,38.6535929 34.0875165,36.2476218 C38.0740524,32.3488951 43.1669838,28.1164935 46.6266647,25.8158935 C47.6979365,25.1134202 49.1906922,24.0421484 49.9634128,23.4450461 C53.0718572,21.0390751 60.5180741,16.2446949 65.3475779,13.5577345 C76.7627689,7.1827894 90.4785599,2.68696034 104.299722,0.790282453 C109.35753,0.105370994 111.710815,0 122.757208,0 L133.557735,0 L136.876921,0.526854969 C141.969852,1.33469925 141.95229,1.33469925 132.240597,0.895653447 C129.781941,0.790282453 127.586712,0.667349627 127.358408,0.61466413 C126.655934,0.439045807 116.06615,0.509293136 113.361627,0.702473291 C102.122055,1.47519391 91.6376409,3.61773745 82.1015659,7.05985658 C75.6914971,9.37801844 67.9291673,12.9781941 66.2081077,14.4358261 C65.4880726,15.0329284 65.3300161,15.0856139 69.10581,13.5226109 C80.4858774,8.81603981 92.2171813,6.00614664 104.405093,5.09293136 C107.390604,4.86462754 139.019464,4.93487487 139.84487,5.16317869 C140.108298,5.25098785 140.31904,5.35635885 140.31904,5.42660618 C140.31904,5.47929167 138.158935,5.51441534 135.542222,5.49685351 C132.433777,5.47929167 130.870774,5.51441534 131.099078,5.61978633 C131.344944,5.74271916 131.204449,5.76028099 130.572223,5.70759549 C130.098054,5.65491 127.446217,5.56710083 124.689009,5.51441534 C120.210742,5.42660618 119.157032,5.46172984 114.749012,5.86565198 C109.35753,6.35738329 106.723255,6.72618176 102.561101,7.55158788 C97.3979218,8.58773599 92.357676,10.0102444 87.0364408,11.9244841 C85.4031904,12.5215864 83.3660179,13.1538124 82.5230499,13.3469925 C77.5003659,14.4709498 66.80521,20.4068491 58.2701595,26.7993561 C52.8962388,30.8210157 49.1906922,34.034831 44.5894922,38.636031 C40.1990341,43.0089273 37.3188936,46.3105517 34.1226401,50.5956388 C28.3623591,58.322845 23.0060003,68.0169764 19.4058247,77.2720621 C17.3510903,82.5406117 15.6475926,88.2482072 15.4544124,90.4434363 C15.3841651,91.2688424 15.1031758,92.7440363 14.8573101,93.7450607 C14.6114445,94.7285233 14.4007025,95.9402898 14.4007025,96.4144592 C14.4007025,96.8886287 14.242646,98.1003951 14.0494658,99.1014196 C13.5401727,101.700571 13.0484414,105.370994 12.6269574,109.656081 C11.9771696,116.399824 12.1703498,127.182789 13.0835651,134.435826 C13.926533,140.968828 15.5070979,147.853066 17.7198888,154.526562 C22.5845163,169.208254 30.1185424,182.256695 40.5327089,194.040685 C45.1163471,199.238987 54.6524221,206.825699 62.4849993,211.514708 L64.4870481,212.708913 L65.1543978,212.410361 L65.8217474,212.11181 L68.5087077,213.516757 C80.626372,219.856578 92.7967218,223.579687 108.093078,225.616859 C111.728377,226.091029 111.903995,226.108591 120.649788,226.091029 C132.258159,226.073467 139.318016,225.827601 141.460559,225.33587 C142.338651,225.14269 143.585541,224.984633 144.235329,224.967072 C145.640275,224.967072 147.361335,224.545588 153.402605,222.771843 C157.828187,221.472267 159.145324,221.015659 163.500659,219.347285 C167.697936,217.731597 174.617298,214.394849 176.93546,212.849407 C177.936485,212.182058 179.657544,211.233719 179.657544,211.33909 C179.657544,211.602517 174.547051,214.904142 170.964437,216.941314 C169.998537,217.503293 169.085321,218.030148 168.944827,218.100395 C168.505781,218.381384 161.621543,221.033221 158.934582,221.98156 C153.174301,224.018733 143.550417,226.723255 142.110347,226.723255 C141.618616,226.723255 140.7054,226.846188 140.090736,226.986682 C139.476072,227.127177 137.913069,227.390604 136.613493,227.583785 C130.291234,228.514562 127.077418,228.69018 117.102298,228.672618 L108.356505,228.655056 L104.369969,228.057954 C96.7656959,226.898873 91.1810332,225.52905 83.5767598,222.894775 C78.6067613,221.191278 72.2142544,218.346261 67.9642909,215.94029 C66.6822772,215.220255 65.5758818,214.658276 65.5231963,214.6934 C65.4178253,214.798771 65.3124543,214.728523 67.5252451,216.045661 C70.1068345,217.57354 77.1491292,221.191278 79.9941461,222.420606 C91.4444607,227.408166 102.824528,230.270745 117.049612,231.728377 C119.42046,231.974243 119.964876,231.974243 122.212791,231.728377 C123.600176,231.587882 125.725157,231.46495 126.954486,231.46495 C128.903849,231.46495 129.360457,231.412264 130.501976,231.008342 L131.801551,230.569296 L137.860383,230.586858 C143.690912,230.60442 144.007025,230.586858 146.096883,230.147812 C147.291087,229.901946 148.783843,229.708766 149.398507,229.708766 C150.698083,229.708766 153.086492,229.146788 158.636031,227.513537 C164.238256,225.845163 169.015074,224.08898 173.686521,221.946436 C176.531538,220.629299 180.131714,218.802868 180.886873,218.276013 C181.132738,218.117957 182.309381,217.415484 183.521147,216.71301 C184.732914,216.010537 187.138885,214.482658 188.877506,213.323577 C201.311283,205.034392 210.987853,195.62125 219.399971,183.64408 C225.651983,174.740231 230.938095,164.132885 234.415337,153.490414 C236.470072,147.185716 238.489682,138.316991 238.489682,135.52466 C238.489682,134.629006 238.612615,133.206498 238.770672,132.328406 C238.911166,131.467876 239.104347,129.448266 239.192156,127.850139 C239.473145,122.405971 239.596078,120.649788 239.719011,120.649788 C240.19318,120.649788 240,130.326357 239.455583,134.523635 C237.716962,147.624762 234.257281,158.618469 227.882336,171.368359 C224.633397,177.866237 219.171667,186.313479 215.167569,191.072735 C210.162447,197.008635 202.154251,204.525099 195.375384,209.61803 C188.210157,215.027074 178.305283,220.73467 170.525391,223.966047 C163.044051,227.05693 150.469779,230.955656 146.904727,231.289331 C146.044197,231.359579 145.008049,231.517635 144.621689,231.623006 C143.67335,231.868872 140.881019,232.290356 137.070101,232.729401 C134.102151,233.080638 132.94307,233.0982 117.488658,233.150885 L101.068345,233.186009 L97.38036,232.62403 Z M102.209864,231.447388 C96.3266501,230.218059 92.9547783,229.287282 87.8969706,227.513537 C83.1728377,225.845163 77.3598712,223.281136 73.3557735,221.085907 C72.2669399,220.488804 70.4405093,219.48778 69.2814284,218.855554 C61.3961657,214.535343 53.0718572,208.423826 46.3632372,202.031319 C41.1298112,197.026196 32.1030294,187.876482 30.5400263,185.979804 C26.6061759,181.238109 23.1640568,175.916874 19.6341285,169.208254 C14.2602078,159.00483 10.9410215,150.241475 8.53505049,139.879994 C7.97307186,137.491585 7.92038636,136.929606 7.8325772,133.821162 C7.7798917,131.836675 7.62183521,129.729255 7.46377872,128.81604 C7.05985658,126.620811 6.88423826,120.737597 6.86667642,109.375091 C6.84911459,98.4691936 6.84911459,98.43407 8.25406117,91.6727645 C10.0102444,83.3133324 12.1176643,76.6047124 15.91102,67.4023123 C19.4409483,58.8321382 26.2900629,47.8208693 32.9108737,40.0409776 C33.4377287,39.4263135 33.8416508,38.8643348 33.7889653,38.8292112 C33.613347,38.636031 29.4511927,43.0440509 26.6764232,46.3632372 C18.0535636,56.6895946 10.8707742,69.6151032 6.58568711,82.4879262 C6.02370847,84.1563003 5.26854969,86.0002927 4.84706571,86.7554515 C4.00409776,88.2306454 3.75823211,89.0911752 3.61773745,90.8824821 C3.56505195,91.5673935 3.3191863,92.9020928 3.07332065,93.8679936 C2.827455,94.8338943 2.63427484,95.9929753 2.63427484,96.4495829 C2.63427484,96.9061905 2.47621835,98.1003951 2.2830382,99.0838577 C1.21176643,104.615835 0.667349627,110.376116 0.579540465,117.453534 C0.474169472,125.426606 0.878091614,130.905898 2.12498171,138.281867 C6.6910581,165.502707 21.1620079,190.019025 43.1142983,207.70379 C49.0501976,212.480609 55.1617152,216.361774 62.9591687,220.295624 C72.2142544,224.984633 79.8887751,227.759403 89.42485,229.866823 C94.7109615,231.043466 101.665447,232.114737 104.053856,232.132299 L105.458803,232.132299 L102.209864,231.447388 Z M25.2890385,175.407581 C22.1279087,169.805356 19.0370262,162.780623 16.96473,156.581297 C15.2436704,151.400556 13.1713742,143.28699 13.1713742,141.706425 C13.1713742,141.232255 13.0133177,140.055612 12.8201376,139.054588 C12.6445192,138.053564 12.3986536,136.543246 12.2932826,135.665154 C12.1703498,134.804625 11.9771696,133.41724 11.8191131,132.591834 C11.4678765,130.519538 11.2571345,106.319333 11.5732475,103.685058 C11.8717986,101.261525 13.399678,93.7099371 14.242646,90.4434363 C15.6124689,85.2275721 17.9657544,78.3608957 19.370701,75.5685643 C19.7043758,74.9187765 20.3541636,73.4611444 20.8107713,72.354749 C23.4450461,65.9798039 28.063808,58.006732 33.191863,51.0171228 C35.4397776,47.961364 36.3529928,46.8374067 40.2341578,42.3240158 C44.1328845,37.7930631 47.118396,34.8602371 52.246451,30.469779 C56.443729,26.8696034 60.9571199,23.6557881 66.383726,20.4244109 C78.0447827,13.4699254 90.0043905,8.90384897 103.351383,6.33982145 C104.879262,6.04127031 106.336894,5.79540465 106.565198,5.79540465 C106.811064,5.79540465 106.96912,5.74271916 106.898873,5.69003366 C106.758378,5.53197717 100.137568,6.0939558 97.2047417,6.51543978 C90.2151324,7.49890239 83.1552759,9.27264745 75.603688,11.9771696 C71.3361627,13.505049 64.9436558,16.2622567 62.2566954,17.7374506 C60.834187,18.5277331 59.0955656,19.4409483 58.4106542,19.792185 C56.2154251,20.8985804 51.0873701,24.2528904 49.0853212,25.8861408 C42.622567,31.1722523 35.1061027,38.8643348 29.9956095,45.3973365 C23.4099224,53.827016 17.9833163,63.6265184 14.0845895,74.1284941 C12.3459681,78.7999415 10.7127177,84.296795 10.7127177,85.4734377 C10.7127177,85.9124835 10.3966047,87.2998683 10.0102444,88.581882 C9.55363676,90.1097615 9.30777111,91.2512806 9.30777111,91.9010683 C9.30777111,92.4454851 9.14971462,93.6923752 8.95653447,94.6933997 C8.55261232,96.8359432 8.02575735,100.769794 7.60427338,104.809015 C7.21791307,108.338943 7.1827894,118.384311 7.51646422,122.405971 C9.18483828,142.163032 14.6992536,159.075077 24.5163179,174.582175 C25.2539148,175.741256 25.8861408,176.672033 25.9212645,176.672033 C25.9739499,176.672033 25.6753988,176.092492 25.2890385,175.407581 Z" id="Shape" fill="#434343"></path>
                <path d="M135.05049,230.080807 C135.05049,229.868127 135.963706,229.708617 136.96473,229.72634 L137.772574,229.744064 L137.070101,229.974467 C136.262257,230.258041 135.05049,230.311211 135.05049,230.080807 Z" id="Shape" fill="#000000"></path>
                <path d="M148.485292,226.815198 C148.678472,226.676309 148.959461,226.565198 149.099956,226.565198 C149.258013,226.565198 149.240451,226.676309 149.012147,226.815198 C148.818967,226.954087 148.537977,227.065198 148.397483,227.065198 C148.239426,227.065198 148.256988,226.954087 148.485292,226.815198 Z" id="Shape" fill="#000000"></path>
                <path d="M149.468755,226.477389 C149.626811,226.319333 154.210449,224.75633 154.280697,224.826577 C154.368506,224.914386 149.925362,226.547636 149.591687,226.547636 C149.486316,226.547636 149.433631,226.512513 149.468755,226.477389 Z" id="Shape" fill="#000000"></path>
                <path d="M156.277068,224.047341 C156.418407,223.860018 156.600129,223.922459 156.660703,224.109782 C156.741468,224.297106 156.62032,224.484429 156.398216,224.421988 C156.176112,224.421988 156.115538,224.234664 156.277068,224.047341 Z" id="Shape" fill="#000000"></path>
                <path d="M157.002781,223.772867 C157.002781,223.61481 159.1102,222.789404 159.215571,222.894775 C159.250695,222.947461 158.776526,223.175765 158.1443,223.42163 C157.512074,223.685058 157.002781,223.825552 157.002781,223.772867 Z" id="Shape" fill="#000000"></path>
                <path d="M184.978779,207.651105 C185.031465,207.563296 185.452949,207.212059 185.909557,206.878384 C186.366164,206.562271 186.682277,206.386653 186.61203,206.492024 C186.541783,206.597395 186.120299,206.948632 185.681253,207.247183 C185.242207,207.563296 184.908532,207.738914 184.978779,207.651105 Z" id="Shape" fill="#000000"></path>
                <path d="M193.987999,199.923899 C198.624323,195.340261 200.468316,193.303088 203.682131,189.158496 C210.057076,180.992244 214.465096,173.668959 218.504317,164.466559 C222.051807,156.42324 224.141665,149.872677 226.00322,140.828333 C226.530075,138.334553 226.723255,136.947168 226.723255,135.823211 C226.723255,134.962681 226.846188,133.557735 227.004244,132.679643 C227.144739,131.819113 227.337919,129.67657 227.425728,127.937948 C227.618908,124.02166 227.917459,120.105371 228.040392,119.982438 C228.251134,119.771696 228.30382,120.210742 228.409191,122.68696 C228.848236,133.768477 226.319333,147.326211 221.454705,159.988292 C218.135519,168.628714 214.851456,175.073906 210.0922,182.256695 C206.843261,187.156447 205.087077,189.474609 201.697644,193.355773 C199.221425,196.183228 199.16874,196.341285 201.328845,194.233865 C206.4569,189.228743 212.796722,181.220547 217.169618,174.213376 C222.051807,166.398361 226.38958,157.073028 229.322406,148.028684 C231.342017,141.846919 233.221133,133.663106 233.221133,131.046393 C233.221133,130.203425 233.344066,128.81604 233.502122,127.937948 C233.642617,127.077418 233.835797,124.864628 233.923606,123.038197 C234.011415,121.211766 234.169472,119.104347 234.274843,118.384311 C234.397776,117.646714 234.520708,116.733499 234.555832,116.347139 C234.608517,115.960779 234.696327,115.451485 234.749012,115.20562 C234.854383,114.766574 234.854383,114.766574 234.977316,115.293429 C235.170496,116.048588 235.152934,122.915264 234.977316,125.918337 C234.573394,132.644519 232.588907,142.23328 230.095127,149.626811 C226.442265,160.427338 222.104493,169.296063 216.13347,178.199912 C212.744036,183.240158 211.198595,185.207083 208.300893,188.157471 C204.595346,191.915703 201.504464,194.620225 193.109908,201.416654 C190.054149,203.875311 190.124396,203.76994 193.987999,199.923899 Z" id="Shape" fill="#000000"></path>
                <path d="M162.46451,179.499488 C162.27133,179.376555 162.446949,178.797014 163.395288,176.426167 C164.027514,174.82804 164.554369,173.405532 164.554369,173.265037 C164.554369,173.124543 163.447973,170.22684 162.095712,166.837407 C160.743451,163.447973 159.637055,160.567833 159.637055,160.427338 C159.637055,160.093663 161.621543,160.058539 161.867408,160.392214 C161.955217,160.497585 162.850871,162.727938 163.851895,165.309527 C164.85292,167.891117 165.731011,170.051222 165.783697,170.086346 C165.853944,170.121469 166.784721,167.908678 167.873555,165.169033 L169.84048,160.16391 L170.981999,160.16391 C171.596663,160.16391 172.105956,160.234158 172.105956,160.321967 C172.105956,160.743451 164.659739,179.253622 164.413874,179.446802 C164.097761,179.692668 162.833309,179.727792 162.46451,179.499488 Z" id="Shape" fill="#434343"></path>
                <path d="M44.5719303,173.967511 C43.7114006,173.651398 43.0264891,173.212352 42.9035563,172.878677 C42.7279379,172.422069 42.517196,172.61525 42.4645105,173.300161 L42.411825,173.949949 L41.358115,173.949949 L40.3044051,173.949949 L40.3044051,164.290941 L40.3044051,154.631933 L41.4108005,154.579248 L42.4996341,154.526562 L42.4996341,158.056491 L42.4996341,161.586419 L43.0967364,160.989317 C44.5192448,159.549246 48.2247915,159.654617 49.8931655,161.164935 C51.2454266,162.394263 51.3683594,162.798185 51.4210449,166.609103 C51.4912923,170.50783 51.3332358,171.403483 50.3322113,172.562564 C49.9634128,172.984048 49.3311869,173.440656 48.8043319,173.686521 C47.645251,174.178253 45.5027074,174.336309 44.5719303,173.967511 Z M47.8735548,171.666911 C48.3301624,171.47373 48.5760281,171.210303 48.8394556,170.613201 C49.1731304,169.875604 49.1906922,169.506805 49.1380067,166.749598 C49.0853212,163.342602 48.9799502,163.044051 47.750622,162.394263 C46.9603395,161.972779 44.3611884,162.043026 43.6587151,162.499634 C42.6576906,163.166984 42.5874433,163.465535 42.5874433,167.013025 C42.5874433,170.665886 42.7279379,171.210303 43.7816479,171.666911 C44.5368067,172.000585 47.0832724,172.000585 47.8735548,171.666911 Z" id="Shape" fill="#434343"></path>
                <path d="M66.2256695,173.932387 C65.1543978,173.651398 64.3289917,173.089419 63.6967657,172.228889 C62.8537977,171.104932 62.7835504,170.648324 62.7835504,167.013025 C62.7835504,163.781648 62.8011122,163.535782 63.2050344,162.657691 C64.0128787,160.866384 65.6461291,159.988292 68.1223474,159.988292 C70.0717108,159.988292 71.1605444,160.357091 72.1791307,161.375677 C73.303088,162.499634 73.5840773,163.395288 73.5840773,165.81882 C73.5840773,167.697936 73.5840773,167.73306 73.1274696,167.891117 C72.881604,167.996488 70.9849261,168.066735 68.9126299,168.066735 L65.1543978,168.066735 L65.1543978,169.190692 C65.1543978,170.051222 65.2422069,170.42002 65.5583199,170.89419 C66.1378604,171.75472 66.6120299,171.930338 68.3682131,171.930338 C70.0717108,171.930338 70.7917459,171.702034 71.4590956,170.981999 C72.0035124,170.402459 72.144007,170.402459 72.881604,171.034685 L73.4962681,171.543978 L72.4425582,172.597688 C71.6171521,173.423094 71.1781062,173.704083 70.4405093,173.932387 C69.2638665,174.283624 67.4901215,174.283624 66.2256695,173.932387 Z M71.3010391,165.309527 C71.3010391,164.097761 71.0200498,163.289917 70.4229475,162.710376 C69.948778,162.253768 69.738036,162.183521 68.5965169,162.130836 C66.1554222,162.007903 65.1543978,162.868433 65.1543978,165.063662 L65.1543978,166.134933 L68.2277184,166.134933 L71.3010391,166.134933 L71.3010391,165.309527 Z" id="Shape" fill="#434343"></path>
                <path d="M77.7637934,173.967511 C75.919801,173.475779 74.9363384,172.070833 74.9363384,169.910727 C74.9363384,168.962388 75.0241475,168.453095 75.3226987,167.838431 C76.0954193,166.257866 76.9735109,165.941753 80.8546758,165.81882 L83.8226255,165.748573 L83.7172545,164.519245 C83.5943217,163.008927 83.2957705,162.517196 82.3298697,162.253768 C81.3112835,161.972779 79.1863018,162.148397 77.8516025,162.622567 C77.2369384,162.833309 76.6925216,162.956242 76.6047124,162.903556 C76.5169033,162.850871 76.3588468,162.499634 76.2183521,162.113274 C75.919801,161.21762 76.0778575,161.006878 77.4125567,160.497585 C78.2379628,160.181472 78.7999415,160.111225 80.6088102,160.093663 C83.1552759,160.076101 84.1387385,160.339529 84.9817064,161.322991 C85.9476072,162.411825 86.0529782,163.166984 86.0529782,168.892141 L86.0529782,174.05532 L84.9641446,174.002634 L83.8577492,173.949949 L83.8050637,173.106981 L83.7523782,172.264013 L82.8918484,173.036733 C81.6273965,174.178253 79.7834041,174.511927 77.7637934,173.967511 Z M81.8557003,171.737158 C83.1201522,171.298112 83.76994,170.332211 83.76994,168.857017 L83.76994,167.891117 L81.0127323,167.891117 C79.0984926,167.908678 78.1501537,167.961364 77.9569735,168.11942 C77.482804,168.488219 77.2720621,169.067759 77.2720621,169.998537 C77.2720621,170.771257 77.3598712,170.981999 77.7813552,171.421045 C78.2730865,171.895214 78.3784575,171.930338 79.7834041,171.930338 C80.5912484,171.930338 81.5220255,171.842529 81.8557003,171.737158 Z" id="Shape" fill="#434343"></path>
                <path d="M132.416215,174.05532 C130.818089,173.686521 129.86975,173.00161 129.149715,171.719596 C128.640421,170.788819 128.640421,170.771257 128.587736,167.364262 C128.53505,164.220694 128.552612,163.851895 128.903849,162.93868 C129.694131,160.83126 131.467876,159.882921 134.418264,160.023416 C135.770525,160.076101 136.156886,160.16391 136.96473,160.602956 C138.720913,161.568857 139.440948,163.114298 139.440948,165.889068 C139.440948,168.154544 139.634128,168.066735 134.839748,168.066735 L131.011269,168.066735 L131.011269,169.225816 C131.011269,171.350798 131.69618,171.930338 134.172399,171.930338 C135.946144,171.930338 136.77155,171.666911 137.245719,170.946875 C137.386214,170.718572 137.649641,170.525391 137.790136,170.525391 C138.194058,170.525391 139.089712,171.210303 139.089712,171.508854 C139.089712,171.930338 137.702327,173.300161 136.859359,173.704083 C135.998829,174.125567 133.557735,174.318747 132.416215,174.05532 Z M136.982292,164.993414 C136.982292,162.921118 136.174448,162.095712 134.172399,162.113274 C131.836675,162.130836 131.011269,162.850871 131.011269,164.923167 L131.011269,166.134933 L133.99678,166.134933 L136.982292,166.134933 L136.982292,164.993414 Z" id="Shape" fill="#434343"></path>
                <path d="M151.576174,173.949949 C149.925362,173.475779 148.748719,172.351822 148.292112,170.771257 C148.063808,169.980975 148.028684,169.17313 148.08137,166.609103 C148.134055,163.553344 148.169179,163.377726 148.608225,162.517196 C148.871652,162.025465 149.32826,161.410801 149.609249,161.164935 C151.330309,159.724865 155.17635,159.566808 156.985219,160.883946 C157.828187,161.481048 158.196985,162.025465 158.600907,163.202107 C159.022391,164.448998 158.934582,164.57193 157.67013,164.519245 L156.61642,164.466559 L156.370555,163.764086 C156.247622,163.377726 155.931509,162.885994 155.685643,162.675252 C155.281721,162.324016 155.035855,162.27133 153.630909,162.27133 C151.804478,162.27133 151.207376,162.517196 150.76833,163.447973 C150.540026,163.939704 150.487341,164.624616 150.540026,167.381824 L150.592712,170.736133 L151.2425,171.333236 C151.892287,171.930338 151.927411,171.930338 153.507976,171.930338 C155.299283,171.930338 155.966633,171.702034 156.721791,170.859066 C157.160837,170.367335 157.213523,170.367335 157.67013,170.595639 C157.933558,170.736133 158.284794,170.999561 158.477975,171.192741 C158.794088,171.56154 158.794088,171.579101 158.126738,172.351822 C157.108152,173.546027 155.984194,174.037758 154.087516,174.143129 C153.016245,174.195814 152.225962,174.125567 151.576174,173.949949 Z" id="Shape" fill="#434343"></path>
                <path d="M176.847651,174.05532 C175.249524,173.686521 174.301185,173.00161 173.58115,171.719596 C173.071857,170.806381 173.071857,170.753695 173.019172,167.504756 C172.948924,163.764086 173.124543,162.815747 174.05532,161.69179 C174.353871,161.322991 175.003659,160.813698 175.512952,160.550271 C176.338358,160.111225 176.566662,160.076101 178.428216,160.076101 C180.184399,160.093663 180.553198,160.146349 181.290795,160.497585 C182.607932,161.147373 183.679204,162.710376 183.696766,163.99239 L183.696766,164.554369 L182.643056,164.554369 C181.642031,164.554369 181.571784,164.519245 181.413727,164.080199 C180.851749,162.534758 180.412703,162.27133 178.393092,162.27133 C176.777404,162.288892 176.303234,162.46451 175.776379,163.254793 C175.477828,163.711401 175.442705,164.097761 175.442705,167.065711 C175.442705,169.822918 175.49539,170.472706 175.723694,170.876628 C176.215425,171.702034 176.830089,171.930338 178.480902,171.930338 C180.254647,171.930338 180.57076,171.824967 181.466413,170.981999 L182.151324,170.349773 L182.660618,170.648324 C183.802137,171.333236 183.819699,171.456169 182.87136,172.474755 C182.414752,172.984048 181.694717,173.528465 181.290795,173.721645 C180.48295,174.072882 177.831114,174.283624 176.847651,174.05532 Z" id="Shape" fill="#434343"></path>
                <path d="M193.12747,173.967511 C191.898141,173.633836 190.932241,172.861115 190.300015,171.75472 L189.755598,170.788819 L189.755598,167.013025 C189.755598,162.7455 189.825845,162.429387 191.21323,161.182497 C192.249378,160.25172 193.390897,159.935607 195.42807,160.023416 C196.903264,160.076101 197.2545,160.16391 198.062345,160.602956 C199.818528,161.551295 200.556125,163.13186 200.556125,165.889068 C200.556125,168.172106 200.766867,168.066735 195.831992,168.066735 L191.898141,168.066735 L192.021074,169.225816 C192.249378,171.47373 192.811357,171.930338 195.287575,171.930338 C197.026196,171.930338 197.359871,171.824967 198.237963,170.981999 L198.817503,170.437582 L199.467291,170.788819 C199.818528,170.981999 200.134641,171.262988 200.169764,171.421045 C200.240012,171.842529 198.887751,173.265037 197.992097,173.704083 C196.973511,174.195814 194.409483,174.336309 193.12747,173.967511 Z M198.097468,165.0461 C198.097468,162.956242 197.236938,162.095712 195.14708,162.095712 C193.777257,162.095712 192.934289,162.429387 192.495244,163.166984 C192.144007,163.746524 191.827894,165.62564 192.038636,165.941753 C192.108883,166.064686 193.232841,166.134933 195.129519,166.134933 L198.097468,166.134933 L198.097468,165.0461 Z" id="Shape" fill="#434343"></path>
                <path d="M53.3177228,173.77433 C53.1596663,173.335285 53.19479,160.63808 53.3704083,160.374652 C53.4582175,160.216596 53.827016,160.16391 54.5470511,160.199034 L55.5831992,160.25172 L55.6710083,161.129811 L55.7588175,161.990341 L56.0573687,161.533733 C56.8125274,160.374652 59.8858481,159.619494 61.3434802,160.216596 C62.098639,160.550271 62.1337626,160.708327 61.5893458,161.656666 C61.3083565,162.148397 61.0800527,162.341578 60.834187,162.306454 C60.6585687,162.288892 60.1317137,162.218645 59.6926679,162.165959 C58.5160252,162.007903 57.2340114,162.359139 56.3910435,163.079175 L55.6710083,163.693839 L55.6358847,168.821894 L55.5831992,173.949949 L54.5119274,174.002634 C53.6513976,174.037758 53.405532,174.002634 53.3177228,173.77433 Z" id="Shape" fill="#434343"></path>
                <path d="M88.2482072,173.651398 C88.1955217,173.423094 88.1779599,169.067759 88.1955217,163.939704 L88.2482072,154.631933 L89.3897263,154.631933 L90.5312454,154.631933 L90.6190546,160.304405 L90.7068637,165.959315 L93.6045661,163.061613 L96.5022684,160.16391 L97.591102,160.16391 C98.1882043,160.16391 98.7326211,160.25172 98.8028684,160.357091 C98.8731158,160.462462 97.9950241,161.49861 96.7481341,162.780623 C95.5363676,163.99239 94.342163,165.23928 94.0611737,165.537831 L93.5694424,166.09981 L96.4847066,169.752671 C98.0828333,171.772282 99.3824089,173.546027 99.3472852,173.686521 C99.3297234,173.879701 99.0311723,173.967511 98.2408898,174.002634 L97.169618,174.05532 L94.6407142,170.89419 C93.2533294,169.155569 92.0240012,167.73306 91.9186302,167.73306 C91.830821,167.715498 91.4971462,167.978926 91.1810332,168.295039 L90.6366164,168.857017 L90.5839309,171.403483 L90.5312454,173.949949 L89.4424118,174.002634 C88.4238256,174.05532 88.3360164,174.020196 88.2482072,173.651398 Z" id="Shape" fill="#434343"></path>
                <path d="M111.640568,173.827016 C110.744914,173.58115 109.849261,172.703059 109.603395,171.842529 C109.480462,171.421045 109.410215,169.401434 109.410215,166.714474 L109.410215,162.27133 L108.672618,162.27133 C107.601346,162.27133 107.44329,162.113274 107.513537,161.112249 L107.566223,160.25172 L108.444314,160.16391 L109.322406,160.076101 L109.375091,159.075077 C109.427777,158.091614 109.445339,158.074052 110.024879,157.95112 C110.340992,157.898434 110.850285,157.898434 111.148837,157.968681 C111.675691,158.074052 111.693253,158.109176 111.693253,159.1102 L111.693253,160.146349 L112.975267,160.199034 L114.239719,160.25172 L114.292405,160.848822 C114.327528,161.182497 114.309966,161.621543 114.257281,161.849846 C114.15191,162.236207 114.064101,162.27133 112.90502,162.27133 L111.675691,162.27133 L111.728377,166.661788 C111.781062,171.649349 111.763501,171.596663 113.273818,171.877653 L114.064101,172.035709 L114.064101,172.984048 L114.064101,173.949949 L113.186009,173.985072 C112.71184,174.002634 112.009366,173.932387 111.640568,173.827016 Z" id="Shape" fill="#434343"></path>
                <path d="M115.995902,173.827016 C115.943217,173.704083 115.925655,169.331187 115.943217,164.115323 L115.995902,154.631933 L117.03205,154.579248 C117.752085,154.544124 118.120884,154.59681 118.208693,154.754866 C118.296502,154.877799 118.36675,156.511049 118.36675,158.372604 L118.36675,161.779599 L119.104347,161.147373 C120.842968,159.654617 123.846041,159.58437 125.391483,160.971755 C126.568125,162.043026 126.655934,162.569881 126.761305,168.20723 C126.796429,170.929314 126.778867,173.370408 126.726182,173.616274 C126.620811,174.037758 126.550563,174.05532 125.514415,174.002634 L124.425582,173.949949 L124.337773,168.681399 C124.249963,163.922143 124.21484,163.360164 123.916289,162.93868 C123.16113,161.797161 120.526855,161.867408 118.981414,163.061613 L118.36675,163.51822 L118.36675,168.505781 C118.36675,171.245427 118.314064,173.598712 118.261379,173.756769 C118.120884,174.108005 116.118835,174.160691 115.995902,173.827016 Z" id="Shape" fill="#434343"></path>
                <path d="M185.540758,173.827016 C185.488073,173.704083 185.470511,169.331187 185.488073,164.115323 L185.540758,154.631933 L186.647154,154.579248 L187.735987,154.526562 L187.700863,164.238256 L187.648178,173.949949 L186.629592,174.002634 C185.927118,174.037758 185.593444,173.985072 185.540758,173.827016 Z" id="Shape" fill="#434343"></path>
                <path d="M152.436704,128.780916 C151.505927,128.447241 147.747695,126.445192 146.483243,125.619786 C139.440948,121.036148 135.770525,115.030001 134.611444,106.143714 C134.330455,103.983609 134.242646,97.6437875 134.506073,97.6437875 C134.576321,97.6437875 134.699254,99.0487341 134.751939,100.769794 C134.962681,107.44329 136.666179,113.414313 139.388263,117.084736 C142.268403,120.983463 145.025611,123.178692 149.925362,125.496854 C154.12264,127.481341 153.92946,127.358408 153.982145,127.902825 C154.017269,128.183814 153.947022,128.517489 153.824089,128.657983 C153.630909,128.903849 152.945997,128.956534 152.436704,128.780916 Z" id="Shape" fill="#000000"></path>
                <path d="M92.7967218,127.235475 C92.3752378,126.603249 92.6211035,126.199327 93.8328699,125.602224 C97.907215,123.54749 100.506366,117.242792 101.191278,107.741841 C101.454705,104.352407 101.665447,104.879262 101.665447,108.953607 C101.700571,113.906044 100.752232,118.138446 98.7677448,122.054734 C97.7315967,124.109469 96.2037173,126.058832 94.869018,127.042295 C93.8328699,127.797454 93.2006439,127.850139 92.7967218,127.235475 Z" id="Shape" fill="#000000"></path>
                <path d="M171.456169,123.090882 C164.817796,120.842968 160.796136,117.6994 158.355042,112.834772 C157.055466,110.235621 156.388116,107.741841 155.878823,103.70262 C155.474901,100.365872 155.422216,99.0136104 155.158788,82.0313186 C155.018294,73.2152788 154.877799,65.9622421 154.842675,65.9095566 C154.78999,65.8744329 154.526562,66.2256695 154.228011,66.6822772 C152.893312,68.7545734 149.71462,70.8268696 145.429533,72.4425582 L144.147519,72.9342895 L144.270452,81.6449583 C144.3407,86.4393385 144.358261,90.3205034 144.305576,90.2678179 C144.25289,90.2151324 143.023562,86.702766 141.548368,82.4528026 C140.073174,78.2028392 138.843846,74.6729109 138.808722,74.6202254 C138.773599,74.549978 138.21162,74.6202254 137.561832,74.76072 C131.485438,76.025172 125.918337,76.4642178 117.400849,76.3412849 C108.567247,76.2007903 103.175765,75.498317 97.274989,73.7070101 L96.4847066,73.4611444 L94.3070394,79.3267964 C93.1128348,82.5406117 92.0766867,85.1748866 91.9888775,85.1748866 C91.9186302,85.1748866 91.8483828,82.1542514 91.8483828,78.4662666 L91.830821,71.7400849 L90.6717401,71.2132299 C88.2130836,70.1068345 85.7719889,68.1574711 84.8236499,66.5066589 C84.3846041,65.7339382 84.3319186,65.6988146 84.2441095,66.0676131 C83.6996927,68.1925948 83.6470072,73.3206498 84.0684911,80.6439339 C84.4899751,88.0199034 84.4899751,100.049759 84.0509293,103.175765 C83.5416362,106.933997 83.032343,108.971169 81.9610713,111.517635 C79.7834041,116.733499 75.8671155,120.403922 70.0717108,122.651837 C67.542807,123.635299 66.7876482,123.793356 66.6295917,123.371872 C66.4188497,122.827455 66.80521,122.528904 68.5438314,121.949363 C73.0220986,120.439046 76.7978926,117.716962 79.0282453,114.380214 C81.3288453,110.938095 82.5230499,107.039368 83.0850285,101.085907 C83.3308942,98.3989463 83.2079614,85.1046393 82.8742866,80.6088102 C82.5581736,76.1129811 82.5932972,68.9653154 82.9620957,66.699839 C83.6470072,62.3445046 84.9817064,59.9209718 87.7564759,57.9891702 C92.4279233,54.7226694 100.436119,52.4220694 110.727353,51.3507976 C114.432899,50.9644373 124.267525,50.9117518 127.76233,51.2629884 C136.57837,52.1410801 143.339675,53.7567686 148.309674,56.1978633 C151.962535,57.9891702 153.841651,59.6399824 155.018294,62.098639 C156.072004,64.3289917 156.089565,64.50461 156.388116,82.9796575 C156.704229,102.508415 156.827162,104.510464 158.038929,108.637495 C158.688717,110.885409 159.145324,112.009366 159.988292,113.431875 C160.708327,114.661203 162.253768,116.505195 163.412849,117.523782 C165.502707,119.367774 169.296063,121.264452 173.106981,122.405971 C173.809454,122.616713 174.459242,122.88014 174.564613,123.020635 C174.775355,123.284063 174.63486,123.74067 174.301185,123.881165 C174.178253,123.916289 172.896239,123.565052 171.456169,123.090882 Z M142.988438,76.1481048 L142.865506,72.670862 L139.440948,71.1429826 C137.54427,70.3000146 135.840773,69.5624177 135.665154,69.4921703 C135.313918,69.3692375 135.71784,69.7731597 138.316991,72.1791307 L139.739499,73.4962681 L141.390312,78.3082102 L143.041124,83.1201522 L143.076248,81.3815308 C143.111371,80.4331919 143.076248,78.0799063 142.988438,76.1481048 Z M94.4124104,75.6914971 C95.2026928,73.5489536 95.8876043,72.038636 96.4144592,71.2132299 C96.853505,70.5458803 97.274989,69.8960925 97.3452364,69.7907215 C97.4154837,69.6677887 96.4495829,70.0014635 95.2202546,70.5107566 L92.9899019,71.4415337 L92.9372164,72.8991658 C92.884531,74.3392361 93.0601493,79.0984926 93.1655203,78.9931216 C93.2006439,78.957998 93.7626226,77.482804 94.4124104,75.6914971 Z M127.76233,74.9890239 C130.291234,74.7782819 134.383141,74.2163032 136.508122,73.7948193 L138.053564,73.4962681 L133.663106,69.5448558 C131.257134,67.3671886 129.272647,65.5407581 129.272647,65.4705108 C129.255086,65.3475779 132.152788,66.594468 139.282892,69.7731597 L143.796283,71.7752085 L145.289038,71.2132299 C153.490414,68.1223474 156.072004,63.9953168 152.190839,60.1492756 C148.520416,56.5139763 140.31904,53.827016 128.903849,52.562564 C124.952437,52.1410801 114.520708,52.1410801 110.376116,52.562564 C96.5725157,54.0201961 86.7730133,57.9716084 85.4207522,62.6430558 C84.6655934,65.2597688 86.5271477,67.8413581 90.7419874,69.9663398 L92.0240012,70.5985658 L96.0983463,68.8775062 C98.3462608,67.9291673 100.225377,67.1740085 100.260501,67.1915703 C100.295624,67.226694 99.5931509,68.4033367 98.6974974,69.8082833 C97.801844,71.2132299 97.1169325,72.4074345 97.1520562,72.4425582 C97.1871799,72.4952437 98.1355188,72.7586712 99.2419142,73.0572223 C102.877214,74.0231231 108.286258,74.8485292 112.922582,75.1646422 C115.767598,75.3402605 124.829504,75.2524513 127.76233,74.9890239 Z" id="Shape" fill="#000000"></path>
                <path d="M126.339821,71.0902971 C124.671447,69.3692375 122.932826,67.4023123 122.405971,66.6471535 C122.283038,66.4539734 123.090882,67.2091322 124.232402,68.3155276 C126.304698,70.3527001 128.324309,72.6533002 128.166252,72.7937948 C128.113567,72.8464803 127.305722,72.0737597 126.339821,71.0902971 Z" id="Shape" fill="#000000"></path>
                <path d="M113.273818,72.5303673 C111.974243,72.46012 109.972194,72.2669399 108.830675,72.1088834 C107.25011,71.8805795 106.688131,71.8630177 106.38958,72.0210742 C106.091029,72.1791307 106.038343,72.1791307 106.126152,71.9508269 C106.1964,71.7576467 105.968096,71.6171521 105.14269,71.4064101 C103.667496,71.0376116 102.561101,70.6336894 103.000146,70.6161276 C103.193327,70.5985658 104.018733,70.7214986 104.844139,70.8619933 C106.933997,71.2307917 107.197424,71.1956681 108.128201,70.5283185 C109.217035,69.7731597 112.518659,67.7359871 113.48456,67.2442558 C114.134348,66.910581 114.187034,66.8403337 113.888482,66.7349627 C113.695302,66.6647154 112.957705,66.5593444 112.23767,66.489097 C109.339968,66.2256695 106.565198,65.4705108 105.212937,64.5397336 L104.352407,63.977755 L101.437143,64.0655642 L98.5043173,64.1533733 L98.9082394,64.5748573 C99.6633982,65.3827016 102.17474,66.4715352 104.75633,67.0861993 C107.601346,67.7886726 107.513537,67.9818528 104.615835,67.437436 C101.156154,66.7700863 99.0662959,65.9095566 98.012586,64.6977901 L97.485731,64.1006878 L94.7109615,64.083126 C91.4795844,64.0655642 91.72545,63.8548222 95.185131,63.661642 C97.2223035,63.5387092 97.4681692,63.4860237 97.4681692,63.2050344 C97.4681692,62.8889214 98.5043173,61.7298405 98.6448119,61.887897 C98.6974974,61.9230206 98.5570028,62.20401 98.3462608,62.4849993 C97.6437875,63.4157764 97.801844,63.4860237 101.12103,63.5211474 L104.141665,63.5738329 L104.036294,63.1523489 C103.983609,62.9240451 104.053856,62.5025611 104.194351,62.2215718 L104.457778,61.7122786 L102.192302,61.3961657 C99.4175326,61.0098054 98.3813845,60.728816 100.278062,60.8693107 C100.998097,60.9219962 102.315235,61.0624909 103.193327,61.2029855 L104.809015,61.4312893 L105.81004,60.9219962 C106.372018,60.6410069 107.144739,60.3600176 107.513537,60.3073321 C107.882336,60.2370847 108.180887,60.1492756 108.180887,60.0790282 C108.180887,59.9560954 105.370994,59.0780038 105.054881,59.1131275 C104.931948,59.1306893 104.545588,59.2009366 104.176789,59.2536221 L103.527001,59.3589931 L104.053856,59.1306893 L104.563149,58.9023855 L103.123079,58.3930923 C102.332797,58.0945412 101.683009,57.8311137 101.683009,57.7608664 C101.683009,57.7081809 102.473291,57.8837992 103.439192,58.1472267 L105.195375,58.638958 L106.898873,58.2701595 C109.498024,57.7257427 109.445339,57.8135519 107.82965,56.7598419 L106.407142,55.8466267 L105.230499,56.022245 C101.472267,56.6193473 96.6603249,58.0242939 93.9733646,59.3063076 C91.9537538,60.2722084 90.3731889,61.7122786 90.1624469,62.7659886 C90.0043905,63.6440802 90.3029416,64.609981 91.0756622,65.5934436 C91.4971462,66.1554222 91.5849554,66.3486024 91.3390897,66.2256695 C90.3205034,65.6636909 89.2316698,64.0128787 89.214108,62.9942924 C89.214108,61.6244695 90.5136836,60.1668374 92.8494073,58.955071 C95.4134348,57.6379336 98.9258013,56.5315381 103.123079,55.706132 C104.440217,55.4602664 105.493927,55.1968389 105.441241,55.1265915 C105.406117,55.0563442 105.52905,55.0387824 105.704669,55.0914679 C105.897849,55.1441534 106.58276,55.0914679 107.267672,54.9860969 C109.427777,54.6524221 114.187034,54.2660618 116.206644,54.2660618 C117.277916,54.2660618 118.191131,54.1958144 118.226255,54.1255671 C118.314064,53.8972633 128.903849,54.4943656 131.432753,54.8807259 C132.398654,55.0387824 133.294307,55.1090297 133.41724,55.073906 C133.540173,55.0212205 133.680667,55.0387824 133.715791,55.1265915 C133.768477,55.1968389 134.383141,55.3548954 135.085614,55.4778282 C142.145471,56.7071564 147.905752,59.3941168 149.099956,62.0283916 C150.065857,64.1533733 148.801405,66.383726 145.851017,67.7886726 C144.410947,68.4735841 143.655788,68.7194497 143.655788,68.5262696 C143.655788,68.4560222 144.217767,68.1223474 144.92024,67.7886726 C146.254939,67.1388848 147.905752,65.7690619 148.309674,64.9787795 C149.064832,63.5211474 148.678472,62.0635153 147.203278,60.7463779 C146.079321,59.7629153 142.970877,58.2877214 140.424411,57.5150007 C138.475048,56.9354603 133.61042,55.8466267 132.907947,55.8466267 C132.732328,55.8466267 131.994731,56.2505488 131.239573,56.7422801 C130.484414,57.2340114 128.903849,58.1823504 127.727206,58.8672618 C126.533002,59.5521733 125.567101,60.1668374 125.567101,60.2370847 C125.567101,60.4478267 124.689009,60.5531977 124.179716,60.4127031 C123.723108,60.2722084 123.723108,60.2722084 124.285087,60.2546466 C124.671447,60.2370847 125.479292,59.8331626 126.831553,58.955071 C127.920386,58.2350359 129.325333,57.3569442 129.957559,56.9881458 C130.589785,56.6193473 131.327382,56.1803015 131.608371,56.0046832 L132.100102,55.7236938 L130.379043,55.5129519 C127.059857,55.1265915 124.583638,54.9685351 121.650812,54.9685351 L118.682863,54.9685351 L118.788234,55.6358847 C118.840919,55.9871213 118.928728,56.6369091 118.981414,57.0759549 L119.086785,57.8837992 L117.927704,57.8135519 C117.295478,57.7784282 116.347139,57.79599 115.820284,57.8662374 L114.854383,57.9716084 L115.346114,58.5862725 C115.609542,58.9199473 115.925655,59.1833748 116.048588,59.1833748 C116.153959,59.1833748 116.25933,59.2887458 116.25933,59.4292405 C116.25933,59.6224206 116.083711,59.6575443 115.574418,59.5872969 C115.188058,59.5346114 114.573394,59.5521733 114.222157,59.6224206 L113.572369,59.7453534 L114.081663,60.1668374 L114.590956,60.6058832 L113.800673,60.2195229 C113.150885,59.9034099 112.852334,59.8507244 111.816186,59.9560954 C110.340992,60.0965901 110.112688,60.2019611 110.657105,60.5356359 L111.078589,60.7815015 L110.639543,60.6761305 C110.393678,60.623445 109.989756,60.5356359 109.74389,60.4829504 C109.287282,60.3775794 107.197424,60.939558 106.424704,61.361042 C106.020782,61.5893458 106.073467,61.6244695 107.355481,61.8176496 C108.093078,61.9405825 108.707742,62.1162008 108.707742,62.20401 C108.707742,62.2918191 108.567247,62.3269428 108.409191,62.2742573 C108.233572,62.2391336 107.495975,62.1337626 106.77594,62.0810771 C105.265623,61.9405825 104.94951,62.1162008 105.054881,62.9942924 C105.107566,63.4509 105.177814,63.4860237 105.950534,63.5387092 C106.933997,63.6089565 107.05693,63.872384 106.126152,63.9601932 L105.458803,64.0128787 L106.459827,64.50461 C108.251134,65.3651398 111.728377,65.9973657 116.399824,66.2959169 C117.383287,66.3661642 118.191131,66.489097 118.191131,66.5769062 C118.191131,66.6647154 117.435972,66.7349627 116.522757,66.7349627 L114.836821,66.7349627 L113.133324,67.9291673 C111.394702,69.1409337 109.199473,70.5283185 108.286258,71.0024879 L107.759403,71.2659154 L108.637495,71.3712864 C110.762476,71.6522757 115.78516,72.0035124 119.157032,72.1264452 C121.492756,72.1966925 122.564028,72.2845017 122.054734,72.3723108 C120.649788,72.565491 115.714913,72.670862 113.273818,72.5303673 Z M110.99078,59.6575443 L112.307917,59.4468023 L111.254208,58.8497 L110.200498,58.2525977 L108.602371,58.4633397 C106.00322,58.8145763 105.968096,58.8321382 107.566223,59.376555 C109.181911,59.9385336 109.234597,59.9385336 110.99078,59.6575443 Z M115.381238,59.2184985 C115.381238,59.1482511 115.117811,58.8145763 114.784136,58.4984633 L114.169472,57.901361 L112.62403,58.0594175 L111.078589,58.217474 L111.956681,58.7794527 C112.729401,59.271184 112.992829,59.3414313 114.116786,59.3414313 C114.801698,59.3589931 115.381238,59.2887458 115.381238,59.2184985 Z M113.133324,57.4974389 L113.800673,57.3745061 L113.431875,56.8827748 C112.975267,56.232987 113.186009,56.232987 113.888482,56.8827748 C114.397776,57.3745061 114.503146,57.3920679 116.575443,57.5150007 C118.630177,57.6379336 118.75311,57.6203717 118.665301,57.3042587 C118.612615,57.1286404 118.507244,56.5315381 118.436997,55.9871213 L118.331626,54.9685351 L116.610566,54.9685351 C113.67774,54.9685351 107.302795,55.5656373 107.302795,55.8290648 C107.302795,55.8993122 107.917459,56.3207961 108.672618,56.7598419 C109.919508,57.5150007 110.112688,57.5676862 111.254208,57.5852481 C111.939119,57.5852481 112.782087,57.5501244 113.133324,57.4974389 Z" id="Shape" fill="#000000"></path>
                <path d="M119.262403,69.3341139 C119.262403,68.2804039 119.345736,67.6130543 119.512403,67.6130543 C119.845736,67.6130543 119.845736,68.8775062 119.512403,70.15952 C119.345736,70.9322406 119.317959,70.8268696 119.262403,69.3341139 Z" id="Shape" fill="#000000"></path>
                <path d="M139.26533,65.6812527 C140.441973,65.0314649 141.197132,64.2411825 141.197132,63.661642 C141.197132,63.4157764 140.968828,62.9767306 140.7054,62.6606176 L140.196107,62.1162008 L137.491585,62.3093809 C135.998829,62.4323138 134.242646,62.5201229 133.557735,62.5025611 C132.451339,62.4849993 132.398654,62.4674374 133.03088,62.3445046 C133.41724,62.2742573 134.804625,62.1162008 136.1042,62.0108298 C137.403776,61.887897 138.668228,61.7649641 138.914093,61.7122786 C139.353139,61.6069077 139.353139,61.6069077 138.738475,61.2907947 C138.01844,60.9219962 134.453388,59.7102298 134.084589,59.7102298 C133.873848,59.7102298 130.343919,60.623445 129.606322,60.8868725 C129.430704,60.939558 129.536075,61.0624909 129.957559,61.2907947 C130.291234,61.466413 130.782965,61.8352115 131.028831,62.1162008 C131.397629,62.5376848 131.450315,62.7133031 131.327382,63.1699107 C131.239573,63.4860237 131.028831,63.8372604 130.835651,63.977755 C130.519538,64.188497 130.73028,64.2411825 132.802576,64.4343627 C135.770525,64.6977901 136.455437,64.8031611 136.455437,65.0139031 C136.455437,65.1719596 135.278794,65.1192741 131.801551,64.7855993 C130.115615,64.609981 129.764379,64.6275428 129.167276,64.8734085 C128.412118,65.1895214 125.672472,65.6812527 124.653886,65.6812527 C123.336748,65.6812527 124.039221,65.4178253 126.304698,65.0490268 C127.586712,64.8382848 128.657983,64.5748573 128.693107,64.4694863 C128.728231,64.3641153 128.921411,64.2763062 129.114591,64.2763062 C129.659008,64.2763062 130.607347,63.6265184 130.73028,63.1699107 C130.958583,62.2918191 129.061905,60.9219962 128.113567,61.2907947 C127.428655,61.5542222 126.972047,61.4839748 127.586712,61.2205473 C128.113567,60.9922435 128.113567,60.9922435 126.936924,60.7815015 C126.269574,60.6410069 125.742719,60.4829504 125.742719,60.3951412 C125.742719,60.2546466 126.023708,60.2722084 127.779892,60.6058832 C128.53505,60.7463779 128.903849,60.7112542 130.168301,60.3424557 C130.993707,60.0965901 131.959608,59.8507244 132.310844,59.7980389 C132.978194,59.6575443 133.136251,59.4292405 132.644519,59.3063076 C132.468901,59.2536221 132.802576,59.2360603 133.382116,59.2536221 C133.961657,59.2536221 134.787063,59.2184985 135.226109,59.1482511 L136.016391,59.0077565 L135.401727,59.2536221 L134.787063,59.4819259 L135.577345,59.6926679 C137.386214,60.1668374 139.405825,60.834187 140.143422,61.2029855 C140.845895,61.5542222 141.144446,61.5893458 142.777696,61.5366603 C144.551442,61.4839748 144.586565,61.5015367 143.48017,61.6595932 C142.847944,61.7649641 142.145471,61.887897 141.917167,61.9230206 L141.495683,62.0108298 L141.846919,62.3971901 C142.373774,62.9767306 142.444022,63.3630909 142.180594,63.9953168 C141.882043,64.715352 140.98639,65.4178253 139.792185,65.8744329 C138.457486,66.383726 138.176496,66.278355 139.26533,65.6812527 Z" id="Shape" fill="#000000"></path>
                <path d="M117.137421,64.609981 C115.082687,64.3641153 115.275867,64.3114298 118.050637,64.293868 C121.088834,64.2763062 122.230353,64.0655642 122.985511,63.4157764 C123.670423,62.7835504 123.54749,62.4498756 122.458657,61.9405825 C120.930777,61.2381092 116.487634,61.466413 116.540319,62.2566954 C116.575443,62.6781794 117.488658,63.0821016 118.595053,63.1699107 C120.491731,63.3279672 121.264452,62.9416069 120.087809,62.4323138 C119.61364,62.2215718 119.578516,62.1864481 119.894629,62.1688863 C120.632226,62.1688863 121.211766,62.4849993 121.141519,62.9064832 C120.965901,64.1709352 116.364701,63.7494512 116.118835,62.4498756 C115.837846,61.044929 120.526855,60.5883214 123.038197,61.7474023 C124.724133,62.5376848 123.74067,64.0480023 121.176643,64.6275428 C120.263427,64.820723 118.981414,64.820723 117.137421,64.609981 Z" id="Shape" fill="#000000"></path>
                <path d="M114.831144,64.2346672 C114.972483,64.0473438 115.154205,64.1097849 115.214778,64.2971083 C115.295544,64.4844318 115.174396,64.6717552 114.952292,64.6093141 C114.730188,64.6093141 114.669614,64.4219906 114.831144,64.2346672 Z" id="Shape" fill="#000000"></path>
                <path d="M108.88336,62.3107134 C108.88336,62.124279 109.129226,62.0497052 109.410215,62.1615659 C109.708766,62.2361396 109.93707,62.3852872 109.93707,62.459861 C109.93707,62.5344347 109.708766,62.6090085 109.410215,62.6090085 C109.129226,62.6090085 108.88336,62.459861 108.88336,62.3107134 Z" id="Shape" fill="#000000"></path>
                <path d="M118.91997,58.5788102 C118.91997,58.3567061 119.107293,58.2961322 119.294616,58.4576625 C119.48194,58.5990015 119.419499,58.780723 119.232175,58.8412968 C119.044852,58.9220619 118.857528,58.8009143 118.91997,58.5788102 Z" id="Shape" fill="#000000"></path>
                <path d="M122.054734,58.217474 C122.054734,58.006732 122.932826,56.2505488 123.178692,55.9344358 C123.477243,55.5831992 123.477243,55.5831992 123.35431,56.022245 C123.178692,56.7071564 122.370847,58.3052832 122.195229,58.3052832 C122.124982,58.3052832 122.054734,58.2701595 122.054734,58.217474 Z" id="Shape" fill="#000000"></path>
                <path d="M228.30382,117.541343 C228.30382,117.365725 228.216011,116.276892 228.128201,115.117811 C228.02283,113.95873 227.864774,111.46495 227.776965,109.585833 C227.689156,107.706717 227.495975,105.406117 227.355481,104.492902 C226.951559,101.805942 226.881311,100.980536 227.039368,100.980536 C227.267672,100.980536 227.706717,102.806966 228.02283,105.107566 C228.286258,107.039368 228.619933,117.839895 228.409191,117.839895 C228.356505,117.839895 228.30382,117.6994 228.30382,117.541343 Z" id="Shape" fill="#000000"></path>
                <path d="M239.473145,115.433924 C239.402898,114.573394 239.279965,112.307917 239.192156,110.376116 C239.104347,108.444314 238.858481,105.634421 238.665301,104.141665 C238.261379,100.945412 238.243817,100.453681 238.595053,101.419581 C239.121908,102.84209 239.508269,106.108591 239.61364,109.93707 C239.683887,112.009366 239.771696,114.450461 239.841944,115.346114 C239.912191,116.399824 239.877067,116.961803 239.771696,116.961803 C239.666325,116.961803 239.543392,116.276892 239.473145,115.433924 Z" id="Shape" fill="#000000"></path>
                <path d="M234.801698,112.536221 C234.801698,112.413288 234.713888,111.166398 234.626079,109.761452 C234.520708,108.356505 234.362652,105.792478 234.274843,104.053856 C234.169472,102.315235 233.941168,99.7687692 233.783111,98.3989463 C233.607493,97.0115615 233.519684,95.8876043 233.589931,95.8876043 C233.76555,95.8876043 234.239719,97.8896532 234.520708,99.8565784 C234.784136,101.630323 235.117811,112.746963 234.907069,112.746963 C234.854383,112.746963 234.801698,112.641592 234.801698,112.536221 Z" id="Shape" fill="#000000"></path>
                <path d="M114.696327,108.180887 C114.661203,106.635446 115.556856,103.632372 117.067174,100.15513 C118.156008,97.6613493 118.577492,95.8173569 118.981414,91.8659447 C119.121908,90.3731889 119.244841,89.0560515 119.244841,88.9331187 C119.244841,88.792624 119.33265,88.687253 119.42046,88.687253 C119.525831,88.687253 119.596078,89.214108 119.596078,89.8990195 C119.596078,93.7626226 121.369823,98.2935753 123.951412,101.015659 C124.302649,101.384458 124.530953,101.718133 124.478267,101.770818 C124.372896,101.876189 122.054734,100.365872 121.229328,99.6282745 C120.913215,99.3648471 120.421484,98.6974974 120.140495,98.1706425 C119.631202,97.2398654 119.61364,97.2223035 119.455583,97.6437875 C118.770672,99.3824089 118.401873,100.207815 117.260354,102.508415 C116.083711,104.844139 115.416362,106.512513 114.889507,108.356505 L114.713888,108.971169 L114.696327,108.180887 Z" id="Shape" fill="#000000"></path>
                <path d="M225.739792,93.3587004 C224.721206,92.4981706 225.388556,90.7946729 226.723255,90.7946729 C227.004244,90.7946729 227.44329,90.9878531 227.706717,91.2161569 C228.725304,92.0766867 228.057954,93.7801844 226.723255,93.7801844 C226.442265,93.7801844 226.00322,93.5870042 225.739792,93.3587004 Z" id="Shape" fill="#000000"></path>
                <path d="M236.768623,90.5136836 C236.153959,90.0921996 236.276892,89.0384897 236.979365,88.7048149 C237.418411,88.4940729 237.523782,88.5116347 237.945266,88.8101859 C238.524806,89.2667935 238.630177,89.951705 238.156008,90.4258744 C237.716962,90.8649202 237.295478,90.9000439 236.768623,90.5136836 Z" id="Shape" fill="#000000"></path>
                <path d="M227.847212,88.7048149 C227.320357,88.476511 226.723255,87.6686668 226.723255,87.1593736 C226.723255,86.9310698 226.846188,86.5095858 226.986682,86.2285965 C227.864774,84.5426606 230.516611,85.4909996 230.165374,87.3525538 C229.972194,88.3887019 228.760427,89.0911752 227.847212,88.7048149 Z" id="Shape" fill="#000000"></path>
                <path d="M224.194351,76.1129811 C223.667496,75.5861262 224.036294,74.6377872 224.773891,74.6377872 C225.14269,74.6377872 225.669545,75.1646422 225.669545,75.5510025 C225.669545,75.8846773 225.107566,76.3939704 224.738768,76.3939704 C224.598273,76.3939704 224.334846,76.2710376 224.194351,76.1129811 Z" id="Shape" fill="#000000"></path>
                <path d="M215.694424,69.2463047 C215.395873,69.1409337 214.956827,68.2452803 214.956827,67.7886726 C214.956827,67.2091322 215.887604,66.383726 216.537392,66.383726 C217.819406,66.383726 218.486755,68.2101566 217.485731,69.000439 C217.046685,69.3516757 216.221279,69.4570467 215.694424,69.2463047 Z" id="Shape" fill="#000000"></path>
                <path d="M222.613786,63.1172252 C222.139617,62.6430558 222.403044,61.993268 223.070394,61.993268 C223.333821,61.993268 223.737743,62.4674374 223.737743,62.7659886 C223.737743,62.9064832 223.193327,63.3982145 223.03527,63.3982145 C222.947461,63.3982145 222.754281,63.2752817 222.613786,63.1172252 Z" id="Shape" fill="#000000"></path>
                <path d="M207.106688,53.2474755 C205.561247,51.0698083 202.71623,47.5047563 200.714181,45.2744036 C200.046832,44.5368067 199.045807,43.3952876 198.483828,42.7279379 C196.973511,40.9366311 190.001463,34.1577638 188.069662,32.6123226 C186.559344,31.4005561 184.065564,28.7311576 184.258744,28.5379775 C184.328992,28.4501683 187.033514,30.5927118 188.789697,32.1030294 C195.796868,38.2145471 201.838138,45.028538 207.12425,52.8259915 C208.072589,54.1958144 208.775062,55.3197717 208.687253,55.3022099 C208.617006,55.3022099 207.896971,54.3714328 207.106688,53.2474755 Z" id="Shape" fill="#000000"></path>
                <path d="M219.645836,54.5821747 C219.417533,54.2660618 218.767745,53.3704083 218.205766,52.5976877 C217.064247,51.0346846 213.63969,46.7847212 213.376262,46.6266647 C213.288453,46.5739792 213.516757,47.0305869 213.885555,47.6276892 C215.150007,49.7526709 215.501244,50.4024587 215.360749,50.3848968 C215.290502,50.3848968 214.746085,49.6999854 214.166545,48.8570174 C211.813259,45.450022 207.282306,40.0761013 203.559198,36.2651837 C202.312308,35.0182936 200.60881,33.086492 199.74828,31.9800966 C198.360896,30.2239134 197.869164,29.7497439 195.287575,27.7652568 C193.689448,26.5359286 192.021074,25.2890385 191.564467,24.9729255 C191.107859,24.6568125 190.686375,24.3231377 190.616128,24.2177667 C190.405386,23.8665301 192.056198,24.814869 193.496268,25.8861408 C194.304112,26.4656813 195.024148,26.9574126 195.111957,26.9574126 C195.902239,26.9574126 206.544709,37.5998829 211.286404,43.1142983 C214.465096,46.8374067 220.611737,55.1441534 220.15513,55.1441534 C220.102444,55.1441534 219.87414,54.8807259 219.645836,54.5821747 Z" id="Shape" fill="#000000"></path>
                <path d="M181.940582,26.7115469 C180.711254,25.7983316 174.283624,21.7415484 171.579101,20.1609835 C160.743451,13.8036002 148.256988,8.99165813 136.332504,6.56812527 C134.945119,6.28713596 133.821162,6.00614664 133.821162,5.93589931 C133.821162,5.84809015 134.348017,5.79540465 134.980243,5.79540465 C136.279819,5.79540465 144.972926,7.90282453 148.924338,9.16727645 C151.734231,10.0804917 157.599883,12.2581589 159.988292,13.294307 C165.90663,15.8407727 173.967511,20.4595346 178.797014,24.0772721 C179.23606,24.4109469 180.360018,25.236353 181.290795,25.9037026 C182.221572,26.5886141 183.029416,27.2384019 183.06454,27.3613347 C183.187473,27.642324 183.240158,27.6774477 181.940582,26.7115469 Z" id="Shape" fill="#000000"></path>
                <path d="M187.033514,22.2684033 C183.099663,20.1785453 177.708181,17.280843 176.443729,16.5783697 C175.706132,16.1744475 174.669984,15.6651544 174.160691,15.4719742 C173.668959,15.2963559 172.545002,14.8046246 171.666911,14.4007025 C164.940729,11.2746963 153.894336,7.70964437 146.781794,6.39250695 C145.833455,6.21688863 145.060735,6.02370847 145.060735,5.93589931 C145.060735,5.86565198 145.622713,5.79540465 146.307625,5.79540465 C147.273526,5.79540465 148.783843,6.11151764 153.191863,7.21791307 C156.300307,7.99063369 159.601932,8.8687253 160.515147,9.16727645 C163.096736,9.97512074 170.244402,12.7147666 172.61525,13.7684765 C177.304259,15.8758964 182.678179,18.8614079 186.857896,21.671301 C187.876482,22.3562125 188.737012,22.935753 188.772135,22.9533148 C188.807259,22.9884385 188.807259,23.041124 188.772135,23.0762476 C188.71945,23.1289331 187.946729,22.7601346 187.033514,22.2684033 Z" id="Shape" fill="#000000"></path>
                <path d="M183.415776,18.3696766 C181.764964,17.2632811 179.499488,15.8583346 178.410654,15.2261086 C175.038782,13.3294307 170.121469,10.7654032 169.383872,10.5370994 C168.997512,10.4141665 167.610127,9.81706425 166.310552,9.21996195 C160.304405,6.44519245 151.382994,3.47724279 144.639251,2.00204888 C143.427484,1.7386214 142.42646,1.45763208 142.42646,1.36982292 C142.42646,1.1415191 142.566954,1.17664276 148.450168,2.65183667 C155.106103,4.32021074 156.124689,4.63632372 161.568857,6.6910581 C168.136982,9.14971462 172.80843,11.3800673 178.129665,14.6114445 C182.20401,17.070101 186.980828,20.3717255 186.453973,20.3717255 C186.436412,20.3717255 185.066589,19.476072 183.415776,18.3696766 Z" id="Shape" fill="#000000"></path>
                <path d="M142.0401,5.76151369 C142.145471,5.60766754 142.356212,5.60766754 142.479145,5.76151369 C142.584516,5.99228293 142.496707,6.14612908 142.250842,6.14612908 C142.004976,6.14612908 141.917167,5.99228293 142.0401,5.76151369 Z" id="Shape" fill="#000000"></path>
                <path d="M140.494658,5.52644863 C140.494658,5.3398935 140.687838,5.27770845 140.98639,5.40207854 C141.671301,5.71300377 141.688863,5.83737386 141.056637,5.83737386 C140.740524,5.83737386 140.494658,5.68191125 140.494658,5.52644863 Z" id="Shape" fill="#000000"></path>
            </g>
        </g>
    </g>
</svg>