<?xml version="1.0" encoding="UTF-8"?>
<svg width="637px" height="466px" viewBox="0 0 637 466" version="1.1" xmlns="http://www.w3.org/2000/svg" xmlns:xlink="http://www.w3.org/1999/xlink">
    <!-- Generator: Sketch 51.3 (57544) - http://www.bohemiancoding.com/sketch -->
    <title>Artboard</title>
    <desc>Created with Sketch.</desc>
    <defs>
        <polyline id="path-1" points="123.3956 289.147979 169.615583 259.698304 205.843651 249.60173 241.910495 242.633334 271.732883 242.633334 279.606 242.652181"></polyline>
    </defs>
    <g id="Artboard" stroke="none" stroke-width="1" fill="none" fill-rule="evenodd">
        <path d="M79.6796875,207.453125 L124.222656,126.285156" id="Path" stroke="#979797"></path>
        <path d="M79.0234375,207.144531 L123.5,288.5" id="Path-2" stroke="#979797"></path>
        <polyline id="Path-3" stroke="#979797" points="523 128 571.019531 206.707337 523 290.136719"></polyline>
        <polyline id="Path-4" stroke="#979797" points="371 171 416.625713 143.65683 452.387981 134.282454 487.991099 127.8125 517.430048 127.8125 523.667969 127.8125"></polyline>
        <polyline id="Path-4" stroke="#979797" transform="translate(446.506529, 267.210787) rotate(-147.000000) translate(-446.506529, -267.210787) " points="369.103141 290.304113 415.368049 261.062099 451.63133 251.03672 487.733231 244.11746 517.584606 244.11746 523.909918 244.11746"></polyline>
        <mask id="mask-2" fill="white">
            <use xlink:href="#path-1"></use>
        </mask>
        <use id="Path-4" stroke="#979797" transform="translate(201.500800, 265.890657) rotate(181.000000) translate(-201.500800, -265.890657) " xlink:href="#path-1"></use>
        <polyline id="Path-4" stroke="#979797" transform="translate(198.914086, 148.925203) rotate(33.000000) translate(-198.914086, -148.925203) " points="123.918943 171.306441 168.744415 142.966112 203.879439 133.249868 238.858104 126.543966 267.780716 126.543966 273.909228 126.543966"></polyline>
        <polygon id="Path-5" stroke="#979797" points="274 171.08844 305.870125 171 324.591237 171 345.390217 171 362.808602 171 371.042969 171"></polygon>
        <polyline id="Path-5" stroke="#979797" points="279 244.5 303.510669 244.5 322.609946 244.5 343.829064 244.5 361.599299 244.5 370 244.5"></polyline>
    </g>
</svg>